<?xml version="1.0" standalone="no"?>
<!DOCTYPE svg PUBLIC "-//W3C//DTD SVG 20010904//EN"
 "http://www.w3.org/TR/2001/REC-SVG-20010904/DTD/svg10.dtd">
<svg version="1.0" xmlns="http://www.w3.org/2000/svg"
 width="1072.000000pt" height="647.000000pt" viewBox="0 0 1072.000000 647.000000"
 preserveAspectRatio="xMidYMid meet">

<g transform="translate(0.000000,647.000000) scale(0.100000,-0.100000)"
fill="#000000" stroke="none">
<path d="M3467 6016 c-61 -22 -105 -62 -134 -125 l-27 -57 -90 -23 c-49 -13
-122 -37 -160 -53 -102 -42 -100 -42 -144 -13 -53 35 -132 43 -200 21 -117
-39 -186 -170 -152 -291 l12 -44 -82 -88 c-45 -48 -128 -149 -184 -224 -55
-75 -110 -147 -121 -162 -18 -22 -29 -26 -102 -30 l-82 -5 -73 101 c-88 124
-177 235 -272 341 l-71 79 0 87 c0 79 -3 91 -30 135 -42 69 -108 108 -189 113
-52 3 -69 -1 -117 -25 l-57 -29 -43 19 c-143 61 -291 96 -442 104 -121 7 -147
-4 -147 -58 0 -43 31 -56 145 -63 124 -7 215 -26 326 -67 l85 -32 0 -76 c0
-59 5 -85 21 -117 25 -47 75 -94 121 -113 l32 -13 0 -649 0 -649 -49 -25 c-65
-32 -101 -82 -122 -164 l-16 -66 -74 -29 c-93 -35 -249 -66 -339 -66 -84 0
-118 -12 -126 -44 -17 -70 19 -87 161 -75 134 12 233 32 341 70 l85 30 21 -26
c11 -14 43 -37 71 -51 125 -64 280 -6 334 125 20 46 13 160 -11 196 l-17 26
98 103 c86 89 256 303 333 419 21 32 29 36 50 30 14 -4 51 -7 82 -8 l58 0 86
-120 c92 -128 137 -184 247 -307 l69 -78 -12 -36 c-31 -94 15 -214 104 -269
44 -27 58 -30 131 -30 72 0 86 3 122 27 l40 26 88 -35 c48 -19 128 -45 176
-57 88 -21 89 -22 99 -57 13 -48 75 -118 124 -140 126 -57 285 9 329 136 13
37 15 38 108 62 51 13 131 40 177 60 76 32 84 34 100 19 51 -45 168 -60 240
-30 107 44 167 164 138 275 l-14 54 57 60 c88 94 148 167 252 309 l96 131 85
2 86 1 67 -95 c80 -113 173 -230 267 -335 l70 -78 -12 -36 c-30 -90 14 -209
98 -268 35 -25 55 -31 113 -34 71 -4 111 5 160 39 25 17 27 17 113 -18 49 -19
128 -45 176 -57 86 -20 88 -22 99 -56 15 -49 77 -119 125 -141 126 -57 285 9
329 136 13 37 15 38 108 62 51 13 131 40 177 60 76 32 84 34 100 19 53 -47
174 -61 247 -27 50 23 99 74 121 126 19 45 21 126 5 168 -11 27 -8 33 59 104
91 98 175 202 273 341 43 61 80 112 81 112 0 0 23 -7 50 -15 27 -8 63 -15 80
-16 28 0 40 -12 121 -126 102 -143 245 -312 328 -391 46 -43 57 -59 57 -85 0
-86 54 -175 130 -213 54 -28 150 -32 208 -9 36 15 42 14 88 -5 118 -51 432
-101 492 -79 31 12 47 50 32 78 -16 30 -50 41 -130 41 -79 0 -193 20 -292 51
-67 21 -69 23 -61 48 16 50 8 153 -15 197 -24 47 -71 90 -119 111 l-33 13 0
614 0 614 34 12 c45 15 122 97 135 146 14 50 14 103 0 143 -8 23 -8 36 -1 43
21 21 235 68 339 75 81 5 110 10 129 25 29 24 31 51 4 78 -41 41 -268 18 -461
-46 -105 -35 -107 -35 -153 -20 -154 52 -307 -43 -323 -201 -6 -57 -8 -59 -96
-148 -94 -94 -232 -262 -332 -402 l-59 -83 -45 0 c-25 -1 -59 -7 -76 -14 l-29
-12 -83 115 c-102 144 -173 233 -266 336 l-73 80 13 49 c50 200 -156 361 -343
266 l-59 -29 -85 34 c-47 19 -125 44 -173 56 l-88 22 -20 46 c-27 61 -63 98
-124 127 -119 57 -255 7 -312 -115 l-27 -57 -90 -23 c-50 -13 -127 -38 -171
-57 -45 -19 -84 -34 -88 -34 -4 0 -24 11 -45 25 -71 47 -179 45 -253 -4 -85
-57 -123 -153 -102 -256 l11 -50 -57 -63 c-89 -101 -206 -249 -278 -352 l-67
-95 -83 1 -84 2 -66 93 c-84 118 -193 254 -273 342 l-63 68 11 52 c42 208
-157 362 -344 267 l-59 -29 -85 34 c-47 19 -125 44 -173 56 l-88 22 -20 46
c-53 120 -184 179 -302 137z m3057 -120 c45 -19 66 -52 66 -104 0 -37 -6 -50
-34 -78 -29 -29 -41 -34 -79 -34 -51 0 -88 24 -107 69 -23 57 2 114 65 149 27
15 49 15 89 -2z m-3190 -214 c19 -37 83 -94 124 -111 l32 -13 0 -864 0 -864
-40 -16 c-41 -17 -120 -96 -120 -120 0 -8 -8 -14 -18 -14 -30 0 -127 28 -211
60 l-80 31 6 47 c11 97 -42 195 -130 240 l-47 25 0 611 0 612 39 17 c54 24
117 96 131 149 7 23 10 65 7 92 l-4 48 55 25 c53 23 205 71 229 72 7 1 19 -12
27 -27z m515 13 c29 -7 91 -29 137 -47 l84 -32 0 -69 c0 -37 6 -82 14 -101 20
-48 70 -100 116 -121 l40 -18 0 -613 0 -612 -55 -31 c-79 -45 -115 -110 -115
-208 l0 -71 -74 -31 c-103 -43 -218 -70 -224 -53 -11 35 -72 98 -115 120 l-47
25 0 863 0 864 33 13 c45 20 90 59 112 101 22 41 21 41 94 21z m2415 -13 c19
-37 83 -94 124 -111 l32 -13 0 -864 0 -863 -42 -19 c-41 -18 -84 -58 -119
-112 l-16 -24 -64 16 c-36 9 -102 30 -147 48 l-81 31 6 47 c11 97 -42 195
-130 240 l-47 25 0 611 0 612 40 18 c52 23 114 95 130 151 7 25 10 66 7 91
l-5 46 55 24 c54 24 206 72 230 73 7 1 19 -12 27 -27z m515 13 c29 -7 91 -29
137 -47 l84 -32 0 -69 c0 -37 6 -82 14 -101 20 -48 70 -100 116 -121 l40 -18
0 -613 0 -612 -55 -31 c-79 -45 -115 -110 -115 -208 l0 -71 -74 -31 c-103 -43
-218 -70 -224 -53 -11 35 -72 98 -114 119 l-48 24 0 864 0 865 33 13 c45 20
90 59 112 101 22 41 21 41 94 21z m-3928 -58 c99 -66 55 -210 -63 -209 -53 1
-89 27 -107 79 -13 36 -12 43 5 79 20 40 70 74 110 74 12 0 36 -10 55 -23z
m5967 -3 c37 -24 56 -80 43 -126 -15 -50 -57 -78 -114 -78 -124 0 -153 175
-36 217 38 14 72 9 107 -13z m-160 -315 l32 -11 0 -614 0 -614 -32 -13 c-18
-8 -48 -26 -66 -42 l-33 -28 -25 24 c-84 79 -349 407 -377 467 -9 19 -6 27 16
50 61 63 74 169 33 257 -12 28 -30 56 -39 64 -10 7 -17 19 -17 26 0 25 213
297 313 401 l100 105 31 -30 c17 -17 46 -35 64 -42z m-7092 -31 c77 -84 197
-235 278 -352 l67 -95 -22 -43 c-30 -59 -31 -148 -1 -209 l22 -44 -58 -84
c-83 -121 -249 -325 -329 -404 -69 -67 -70 -68 -91 -50 l-22 18 2 639 3 640
40 22 c22 12 43 22 46 23 4 1 33 -27 65 -61z m1129 35 l35 -17 -2 -614 -3
-614 -37 -15 -37 -15 -63 67 c-77 83 -132 151 -233 289 l-78 107 32 61 c49 96
44 177 -19 275 -13 20 -10 27 35 94 91 132 313 399 332 399 1 0 18 -8 38 -17z
m1820 -57 c79 -88 201 -244 269 -343 l48 -71 -20 -29 c-49 -68 -51 -164 -6
-248 l24 -46 -70 -99 c-81 -115 -232 -300 -284 -349 l-36 -35 -35 17 -35 17 0
613 0 613 33 17 c17 8 35 16 39 16 4 1 36 -32 73 -73z m1118 52 l27 -10 0
-614 0 -614 -37 -15 c-20 -9 -40 -14 -44 -13 -27 9 -223 252 -348 430 l-33 46
27 56 c23 47 27 66 23 119 -2 39 -12 79 -26 106 -13 24 -21 50 -18 57 8 20
133 192 204 279 111 137 166 193 182 188 8 -3 27 -10 43 -15z m1802 -40 c75
-82 206 -250 284 -363 l62 -91 -17 -63 c-17 -60 -17 -66 0 -132 l18 -69 -48
-68 c-86 -121 -231 -306 -297 -377 l-64 -70 -37 17 -36 18 0 613 0 613 33 17
c17 8 35 16 39 16 3 1 32 -27 63 -61z m-3049 -1352 c28 -28 34 -41 34 -78 0
-50 -18 -82 -60 -103 -86 -44 -180 22 -167 117 9 65 48 96 121 97 30 1 45 -6
72 -33z m1407 4 c41 -35 52 -79 33 -123 -22 -52 -52 -72 -106 -72 -54 0 -84
20 -106 72 -19 44 -8 88 33 123 25 22 44 30 73 30 29 0 48 -8 73 -30z m3016
15 c28 -14 61 -68 61 -100 0 -32 -30 -81 -61 -99 -22 -13 -43 -17 -71 -13 -46
6 -75 29 -94 74 -42 98 67 189 165 138z m-7404 -71 c35 -16 65 -65 65 -104 0
-52 -63 -110 -120 -110 -29 0 -76 26 -94 52 -18 26 -21 90 -5 119 14 26 68 59
97 59 13 0 39 -7 57 -16z m2195 -179 c41 -21 60 -53 60 -101 0 -104 -122 -150
-196 -73 -86 90 24 232 136 174z"/>
<path d="M2980 3291 c-368 -81 -650 -381 -710 -754 -18 -109 -8 -330 19 -432
66 -249 238 -463 463 -576 254 -128 603 -125 847 8 185 100 337 272 416 468
50 126 68 241 62 405 -7 203 -45 331 -142 481 -121 188 -300 322 -512 385
-121 36 -319 43 -443 15z m270 -382 c181 -29 310 -156 366 -360 29 -102 24
-281 -10 -385 -63 -195 -181 -301 -362 -327 -249 -36 -457 101 -519 342 -88
344 78 685 355 730 77 12 96 12 170 0z"/>
<path d="M8944 3290 c-202 -53 -362 -196 -415 -372 -17 -56 -21 -88 -17 -172
3 -91 7 -109 36 -169 40 -80 115 -164 196 -219 33 -23 125 -73 205 -111 183
-87 263 -139 290 -187 47 -85 8 -183 -89 -223 -54 -23 -151 -30 -217 -17 -69
14 -259 104 -325 154 -26 20 -50 36 -55 35 -4 0 -52 -75 -106 -167 l-99 -167
38 -33 c56 -48 266 -148 362 -172 239 -60 499 -40 682 52 188 96 293 292 277
520 -9 135 -76 244 -216 350 -64 48 -122 79 -353 186 -177 83 -228 128 -228
202 0 86 70 146 182 157 82 7 199 -21 316 -78 46 -22 85 -39 87 -37 16 17 155
313 152 322 -8 19 -119 75 -215 107 -176 60 -355 74 -488 39z"/>
<path d="M490 2376 l0 -906 401 0 c447 0 485 4 617 66 121 58 214 169 248 298
8 28 14 92 14 141 0 149 -39 253 -123 331 -50 48 -146 97 -210 109 -20 4 -37
11 -37 15 0 5 16 18 35 30 54 33 122 116 147 178 20 49 23 74 22 187 0 111 -3
138 -22 187 -33 82 -99 150 -185 193 -134 65 -154 68 -549 72 l-358 5 0 -906z
m626 553 c70 -34 94 -75 94 -158 0 -132 -73 -195 -224 -196 l-81 0 -3 180 c-1
98 0 186 3 193 9 24 151 11 211 -19z m74 -735 c124 -37 185 -172 131 -290 -39
-85 -118 -117 -296 -118 l-120 -1 -3 200 c-1 110 0 205 2 212 8 20 218 17 286
-3z"/>
<path d="M1810 2375 l0 -905 205 0 205 0 0 905 0 905 -205 0 -205 0 0 -905z"/>
<path d="M4120 2376 l0 -906 205 0 205 0 0 334 0 334 193 5 c209 5 261 14 374
68 38 18 92 57 132 95 116 109 164 229 164 414 0 234 -89 392 -274 482 -136
68 -158 71 -601 75 l-398 5 0 -906z m669 555 c121 -37 171 -102 171 -221 0
-108 -38 -168 -135 -212 -41 -18 -72 -23 -172 -26 l-123 -4 0 241 0 241 99 0
c69 0 118 -6 160 -19z"/>
<path d="M5430 2375 l0 -905 205 0 205 0 0 349 c0 192 3 356 6 365 5 14 41 16
295 16 l289 0 0 -365 0 -365 205 0 205 0 2 841 3 841 293 -438 292 -437 0
-404 0 -403 205 0 205 0 0 406 0 406 326 485 c179 266 328 491 331 499 4 12
-31 14 -239 14 l-244 0 -189 -290 c-103 -159 -189 -290 -190 -290 -1 0 -87
130 -191 290 l-189 290 -412 0 -413 0 0 -365 0 -365 -292 2 -293 3 -3 363 -2
362 -205 0 -205 0 0 -905z"/>
<path d="M4010 950 l0 -40 70 0 70 0 0 -175 0 -175 55 0 55 0 2 173 3 172 73
3 72 3 0 39 0 40 -200 0 -200 0 0 -40z"/>
<path d="M4480 829 c0 -127 3 -168 16 -195 23 -48 73 -75 149 -82 122 -9 199
33 216 120 4 24 8 105 9 181 l0 137 -60 0 -60 0 0 -160 c0 -147 -2 -162 -20
-180 -26 -26 -80 -26 -111 -1 -23 19 -24 25 -27 180 l-3 161 -55 0 -54 0 0
-161z"/>
<path d="M4980 775 l0 -215 55 0 55 0 0 80 0 80 44 0 c25 0 48 -6 53 -12 4 -7
15 -42 23 -78 l16 -65 63 -3 c57 -3 61 -2 53 15 -5 10 -15 44 -22 76 -6 33
-22 70 -37 87 l-25 30 27 12 c78 35 69 158 -14 191 -31 13 -73 17 -166 17
l-125 0 0 -215z m225 115 c43 -36 -4 -94 -72 -88 -36 3 -38 5 -41 42 -5 61 2
69 53 64 25 -3 52 -11 60 -18z"/>
<path d="M5450 775 l0 -215 55 0 55 0 0 215 0 215 -55 0 -55 0 0 -215z"/>
<path d="M5680 775 l0 -215 55 0 54 0 3 140 3 140 76 -137 76 -138 76 -3 77
-3 0 216 0 215 -55 0 -54 0 -3 -147 -3 -146 -80 146 -80 147 -72 0 -73 0 0
-215z"/>
</g>
</svg>
