<?xml version="1.0" encoding="UTF-8"?>
<!DOCTYPE svg PUBLIC "-//W3C//DTD SVG 1.1//EN" "http://www.w3.org/Graphics/SVG/1.1/DTD/svg11.dtd">
<svg xmlns="http://www.w3.org/2000/svg" version="1.1" width="1072px" height="647px" style="shape-rendering:geometricPrecision; text-rendering:geometricPrecision; image-rendering:optimizeQuality; fill-rule:evenodd; clip-rule:evenodd" xmlns:xlink="http://www.w3.org/1999/xlink">
<g><path style="opacity:1" fill="#898787" d="M 364.5,45.5 C 357.059,43.9368 349.725,44.2702 342.5,46.5C 342.611,45.8826 342.944,45.3826 343.5,45C 350.734,41.5695 357.734,41.7361 364.5,45.5 Z"/></g>
<g><path style="opacity:1" fill="#292425" d="M 364.5,45.5 C 365.492,45.3284 366.158,45.6618 366.5,46.5C 366.973,47.9063 367.973,48.573 369.5,48.5C 373.936,51.6975 376.602,56.0308 377.5,61.5C 377.414,62.4959 377.748,63.3292 378.5,64C 388.739,66.1372 398.739,68.9705 408.5,72.5C 410.17,72.7512 411.67,73.4178 413,74.5C 414.972,72.7682 417.139,71.4348 419.5,70.5C 427.782,68.6146 435.782,69.2812 443.5,72.5C 450.758,77.0024 454.425,83.6691 454.5,92.5C 454.466,95.9667 453.8,99.3001 452.5,102.5C 453.193,103.518 453.859,104.518 454.5,105.5C 455.757,108.427 457.757,110.761 460.5,112.5C 472.356,124.685 482.689,138.018 491.5,152.5C 491.791,153.649 492.624,154.316 494,154.5C 499.338,153.666 504.505,153.332 509.5,153.5C 514.732,144.603 520.732,136.27 527.5,128.5C 528.906,128.027 529.573,127.027 529.5,125.5C 529.833,124.5 530.5,123.833 531.5,123.5C 533.587,122.415 534.92,120.749 535.5,118.5C 539.088,113.407 543.255,108.74 548,104.5C 547.576,98.1954 547.576,91.8621 548,85.5C 550.225,78.3369 554.725,73.3369 561.5,70.5C 567.464,69.6932 573.464,69.3599 579.5,69.5C 582.854,70.261 585.687,71.9277 588,74.5C 591.548,72.142 595.381,70.4753 599.5,69.5C 604.165,68.9431 608.498,67.6098 612.5,65.5C 616.524,64.9619 620.524,64.2952 624.5,63.5C 624.5,62.1667 624.5,60.8333 624.5,59.5C 625.079,56.6689 626.412,54.3356 628.5,52.5C 630.5,51.1667 632.167,49.5 633.5,47.5C 635.03,45.6535 637.03,44.6535 639.5,44.5C 647.643,43.5461 655.309,44.8794 662.5,48.5C 666.936,51.6975 669.602,56.0308 670.5,61.5C 670.414,62.4959 670.748,63.3292 671.5,64C 681.739,66.1372 691.739,68.9705 701.5,72.5C 703.17,72.7512 704.67,73.4178 706,74.5C 707.972,72.7682 710.139,71.4348 712.5,70.5C 720.782,68.6146 728.782,69.2812 736.5,72.5C 743.901,77.1241 747.568,83.9574 747.5,93C 747.386,96.289 746.719,99.4557 745.5,102.5C 746.857,104.186 748.19,105.852 749.5,107.5C 750.08,109.749 751.413,111.415 753.5,112.5C 766.193,125.563 777.193,139.897 786.5,155.5C 786.56,156.043 786.893,156.376 787.5,156.5C 793.051,154.708 798.385,153.041 803.5,151.5C 816.838,131.234 832.338,112.568 850,95.5C 849.266,83.7749 854.1,75.4415 864.5,70.5C 870.464,69.6932 876.464,69.3599 882.5,69.5C 884.153,69.6596 885.486,70.3263 886.5,71.5C 886.56,72.0431 886.893,72.3764 887.5,72.5C 893.599,70.1389 899.599,67.8056 905.5,65.5C 917.364,63.0397 929.364,62.0397 941.5,62.5C 943.062,62.7329 944.395,63.3995 945.5,64.5C 947.583,68.9327 946.249,71.9327 941.5,73.5C 926.286,72.4767 911.619,74.81 897.5,80.5C 896.224,81.6136 896.224,82.6136 897.5,83.5C 901.103,95.1999 898.103,105.033 888.5,113C 887.255,113.791 885.922,114.291 884.5,114.5C 883.178,114.33 882.011,114.663 881,115.5C 880.5,156.832 880.333,198.165 880.5,239.5C 881.5,239.5 882.5,239.5 883.5,239.5C 885.153,239.66 886.486,240.326 887.5,241.5C 887.973,242.906 888.973,243.573 890.5,243.5C 898.85,251.95 900.85,261.617 896.5,272.5C 899.403,274.648 902.736,276.148 906.5,277C 918.597,280.387 930.93,281.887 943.5,281.5C 945.876,282.512 946.876,284.345 946.5,287C 946.876,289.655 945.876,291.488 943.5,292.5C 931.372,292.81 919.372,291.81 907.5,289.5C 901.767,286.922 895.767,284.922 889.5,283.5C 887.435,283.517 885.435,283.85 883.5,284.5C 880.517,284.898 877.517,285.232 874.5,285.5C 870.76,285.124 867.094,284.457 863.5,283.5C 861.973,283.573 860.973,282.906 860.5,281.5C 859.738,279.738 858.404,278.738 856.5,278.5C 851.494,272.811 849.494,266.144 850.5,258.5C 848.761,255.757 846.427,253.757 843.5,252.5C 841.167,250.833 839.167,248.833 837.5,246.5C 837.167,244.167 835.833,242.833 833.5,242.5C 822.014,229.684 811.681,216.017 802.5,201.5C 797.868,200.891 793.201,199.891 788.5,198.5C 787.584,198.543 786.917,198.876 786.5,199.5C 774.736,217.777 761.236,234.777 746,250.5C 748.735,259.555 747.735,268.221 743,276.5C 740.894,279.118 738.394,281.118 735.5,282.5C 728.407,285.542 721.073,286.209 713.5,284.5C 713.027,283.094 712.027,282.427 710.5,282.5C 708.973,282.573 707.973,281.906 707.5,280.5C 703.804,279.649 700.471,280.649 697.5,283.5C 692.466,284.398 687.799,286.065 683.5,288.5C 679.78,288.564 676.114,289.064 672.5,290C 671.944,290.383 671.611,290.883 671.5,291.5C 669.734,299.25 665.4,304.917 658.5,308.5C 651.585,310.625 644.585,310.958 637.5,309.5C 637.027,308.094 636.027,307.427 634.5,307.5C 628.377,303.94 624.71,298.607 623.5,291.5C 621.708,291.634 620.042,291.301 618.5,290.5C 616.485,289.076 614.152,288.41 611.5,288.5C 606.03,286.12 600.363,284.12 594.5,282.5C 592.634,281.986 590.8,281.32 589,280.5C 586.263,282.079 583.429,283.412 580.5,284.5C 577.517,284.898 574.517,285.232 571.5,285.5C 567.76,285.124 564.094,284.457 560.5,283.5C 558.973,283.573 557.973,282.906 557.5,281.5C 556.415,279.413 554.749,278.08 552.5,277.5C 547.155,269.35 546.155,260.683 549.5,251.5C 548.833,248.833 547.167,247.167 544.5,246.5C 531.718,232.383 520.051,217.383 509.5,201.5C 509.38,200.414 508.713,199.747 507.5,199.5C 502.295,200.443 497.295,200.777 492.5,200.5C 481.071,218.441 467.905,235.108 453,250.5C 455.735,259.555 454.735,268.221 450,276.5C 447.894,279.118 445.394,281.118 442.5,282.5C 435.407,285.542 428.073,286.209 420.5,284.5C 420.027,283.094 419.027,282.427 417.5,282.5C 415.973,282.573 414.973,281.906 414.5,280.5C 413.399,279.402 412.066,279.235 410.5,280C 403.774,282.956 397.107,285.789 390.5,288.5C 386.78,288.564 383.114,289.064 379.5,290C 378.944,290.383 378.611,290.883 378.5,291.5C 377.131,298.516 373.464,303.849 367.5,307.5C 364.759,307.707 362.426,308.707 360.5,310.5C 355.13,310.608 349.797,310.275 344.5,309.5C 344.027,308.094 343.027,307.427 341.5,307.5C 335.377,303.94 331.71,298.607 330.5,291.5C 328.708,291.634 327.042,291.301 325.5,290.5C 323.485,289.076 321.152,288.41 318.5,288.5C 313.03,286.12 307.363,284.12 301.5,282.5C 299.634,281.986 297.8,281.32 296,280.5C 293.263,282.079 290.429,283.412 287.5,284.5C 284.517,284.898 281.517,285.232 278.5,285.5C 274.76,285.124 271.094,284.457 267.5,283.5C 267.027,282.094 266.027,281.427 264.5,281.5C 263.738,279.738 262.404,278.738 260.5,278.5C 254.199,270.299 252.865,261.299 256.5,251.5C 255.833,248.833 254.167,247.167 251.5,246.5C 238.625,232.405 226.958,217.405 216.5,201.5C 211.83,200.7 206.996,200.034 202,199.5C 200.93,199.528 200.097,199.861 199.5,200.5C 187.513,220.341 173.013,238.341 156,254.5C 158.143,260.229 159.143,266.229 159,272.5C 157.658,279.983 153.825,285.649 147.5,289.5C 145.973,289.427 144.973,290.094 144.5,291.5C 143.791,292.404 142.791,292.737 141.5,292.5C 135.346,292.822 129.346,292.155 123.5,290.5C 121.973,290.573 120.973,289.906 120.5,288.5C 119.415,286.413 117.749,285.08 115.5,284.5C 115.5,284.167 115.5,283.833 115.5,283.5C 114.399,282.402 113.066,282.235 111.5,283C 106.633,284.611 101.966,286.444 97.5,288.5C 84.6344,291.066 71.6344,292.4 58.5,292.5C 55.2517,290.671 54.2517,288.004 55.5,284.5C 56.6266,283.878 57.6266,283.045 58.5,282C 65.3905,281.797 72.0571,280.964 78.5,279.5C 83.8477,279.631 88.8477,278.631 93.5,276.5C 98.703,275.991 103.37,274.324 107.5,271.5C 108.822,271.67 109.989,271.337 111,270.5C 111.497,268.19 111.663,265.857 111.5,263.5C 111.502,259.835 112.835,256.835 115.5,254.5C 117.5,253.167 119.167,251.5 120.5,249.5C 120.973,248.094 121.973,247.427 123.5,247.5C 125.722,247.822 127.556,247.155 129,245.5C 129.667,202.167 129.667,158.833 129,115.5C 127.103,113.984 124.936,113.317 122.5,113.5C 121.415,111.413 119.749,110.08 117.5,109.5C 110.821,102.774 108.821,94.7744 111.5,85.5C 109.855,84.3037 108.189,83.3037 106.5,82.5C 104.383,80.3455 101.716,79.3455 98.5,79.5C 96.8984,77.9261 94.8984,77.2594 92.5,77.5C 92.0825,76.7784 91.4158,76.2784 90.5,76C 85.5364,75.0878 80.5364,74.5878 75.5,74.5C 69.4067,74.8608 63.4067,74.3608 57.5,73C 54.3842,69.9233 54.0509,66.7566 56.5,63.5C 64.1179,62.3999 71.7845,62.2332 79.5,63C 91.8592,64.9227 103.859,68.0894 115.5,72.5C 116.833,72.8333 118.167,73.1667 119.5,73.5C 121.027,73.573 122.027,72.9063 122.5,71.5C 131.329,68.5126 139.996,68.846 148.5,72.5C 148.973,73.9063 149.973,74.573 151.5,74.5C 158.855,82.2727 160.855,91.2727 157.5,101.5C 159.094,104.764 161.427,107.431 164.5,109.5C 166.833,111.167 168.833,113.167 170.5,115.5C 170.427,117.027 171.094,118.027 172.5,118.5C 182.666,130.204 192.332,142.204 201.5,154.5C 206.812,153.891 212.146,153.391 217.5,153C 218.252,152.329 218.586,151.496 218.5,150.5C 220.749,146.402 223.249,142.402 226,138.5C 229.709,133.06 233.875,128.06 238.5,123.5C 240.587,122.415 241.92,120.749 242.5,118.5C 246.59,112.905 251.256,107.739 256.5,103C 252.326,91.863 254.326,82.0297 262.5,73.5C 264.243,71.9617 266.243,70.9617 268.5,70.5C 274.464,69.6932 280.464,69.3599 286.5,69.5C 289.854,70.261 292.687,71.9277 295,74.5C 298.548,72.142 302.381,70.4753 306.5,69.5C 311.165,68.9431 315.498,67.6098 319.5,65.5C 323.524,64.9619 327.524,64.2952 331.5,63.5C 331.5,62.1667 331.5,60.8333 331.5,59.5C 332.079,56.6689 333.412,54.3356 335.5,52.5C 337.5,51.1667 339.167,49.5 340.5,47.5C 340.842,46.6618 341.508,46.3284 342.5,46.5C 349.725,44.2702 357.059,43.9368 364.5,45.5 Z M 327.5,76.5 C 328.873,76.3433 330.207,76.51 331.5,77C 333.28,80.9438 335.946,84.1105 339.5,86.5C 339.973,87.9063 340.973,88.573 342.5,88.5C 343.78,89.9313 345.447,90.5979 347.5,90.5C 347.5,148.167 347.5,205.833 347.5,263.5C 345.447,263.402 343.78,264.069 342.5,265.5C 339.911,266.419 337.911,268.086 336.5,270.5C 334.674,272.147 333.34,274.147 332.5,276.5C 330.598,277.511 328.598,277.678 326.5,277C 320.049,275.46 313.716,273.626 307.5,271.5C 306.152,270.399 304.652,269.399 303,268.5C 302.517,267.552 302.351,266.552 302.5,265.5C 303.567,256.691 300.9,249.357 294.5,243.5C 294.027,242.094 293.027,241.427 291.5,241.5C 290.486,240.326 289.153,239.66 287.5,239.5C 286.178,219.05 285.511,198.383 285.5,177.5C 285.667,157.167 285.833,136.833 286,116.5C 286.995,115.934 287.828,115.267 288.5,114.5C 299.714,109.078 304.38,100.078 302.5,87.5C 302.369,86.6236 302.702,85.9569 303.5,85.5C 308.256,83.4485 312.923,81.4485 317.5,79.5C 318.791,79.7373 319.791,79.404 320.5,78.5C 323.067,78.2785 325.401,77.6118 327.5,76.5 Z M 376.5,76.5 C 379.167,76.8333 381.833,77.1667 384.5,77.5C 388.341,79.0026 392.341,80.3359 396.5,81.5C 397.93,82.5375 399.597,83.2041 401.5,83.5C 403.305,84.2371 404.971,85.2371 406.5,86.5C 404.957,93.1054 405.79,99.4387 409,105.5C 410.736,108.739 413.236,111.073 416.5,112.5C 416.973,113.906 417.973,114.573 419.5,114.5C 420.531,115.249 421.698,115.915 423,116.5C 423.5,157.165 423.667,197.832 423.5,238.5C 420.911,238.461 418.911,239.461 417.5,241.5C 407.81,247.554 404.143,256.221 406.5,267.5C 404.636,269.014 402.636,270.347 400.5,271.5C 392.75,274.528 384.75,276.528 376.5,277.5C 376.155,274.802 374.822,272.802 372.5,271.5C 372.262,269.596 371.262,268.262 369.5,267.5C 366.878,265.356 363.878,264.023 360.5,263.5C 360.5,206.167 360.5,148.833 360.5,91.5C 363.317,90.9049 365.65,89.5716 367.5,87.5C 372.141,85.2401 375.141,81.5734 376.5,76.5 Z M 620.5,76.5 C 621.873,76.3433 623.207,76.51 624.5,77C 627.9,83.9083 633.233,88.4083 640.5,90.5C 640.5,148.167 640.5,205.833 640.5,263.5C 638.447,263.402 636.78,264.069 635.5,265.5C 632.911,266.419 630.911,268.086 629.5,270.5C 627.674,272.147 626.34,274.147 625.5,276.5C 624.423,277.018 623.256,277.352 622,277.5C 616.463,276.241 610.963,274.907 605.5,273.5C 604.22,272.069 602.553,271.402 600.5,271.5C 599.152,270.399 597.652,269.399 596,268.5C 595.517,267.552 595.351,266.552 595.5,265.5C 596.639,253.092 591.639,244.425 580.5,239.5C 579.178,219.05 578.511,198.383 578.5,177.5C 578.667,157.167 578.833,136.833 579,116.5C 579.995,115.934 580.828,115.267 581.5,114.5C 592.042,109.589 596.709,101.256 595.5,89.5C 595.238,88.0222 595.571,86.6888 596.5,85.5C 601.256,83.4485 605.923,81.4485 610.5,79.5C 611.791,79.7373 612.791,79.404 613.5,78.5C 616.067,78.2785 618.401,77.6118 620.5,76.5 Z M 669.5,76.5 C 672.167,76.8333 674.833,77.1667 677.5,77.5C 681.341,79.0026 685.341,80.3359 689.5,81.5C 692.94,82.7698 696.273,84.4365 699.5,86.5C 697.822,94.4598 699.322,101.793 704,108.5C 705.451,110.464 707.284,111.797 709.5,112.5C 709.973,113.906 710.973,114.573 712.5,114.5C 713.531,115.249 714.698,115.915 716,116.5C 716.5,157.165 716.667,197.832 716.5,238.5C 713.911,238.461 711.911,239.461 710.5,241.5C 702.972,245.865 698.972,252.531 698.5,261.5C 698.573,263.59 698.906,265.59 699.5,267.5C 697.636,269.014 695.636,270.347 693.5,271.5C 685.75,274.528 677.75,276.528 669.5,277.5C 669.155,274.802 667.822,272.802 665.5,271.5C 665.262,269.596 664.262,268.262 662.5,267.5C 659.878,265.356 656.878,264.023 653.5,263.5C 653.5,206.167 653.5,148.833 653.5,91.5C 656.317,90.9049 658.65,89.5716 660.5,87.5C 665.141,85.2401 668.141,81.5734 669.5,76.5 Z M 860.5,242.5 C 858.5,243.5 856.5,244.5 854.5,245.5C 851.5,241.833 848.167,238.5 844.5,235.5C 843.581,232.911 841.914,230.911 839.5,229.5C 830.614,218.775 822.28,207.609 814.5,196C 826.398,183.367 826.398,170.701 814.5,158C 826.331,139.847 840.165,123.347 856,108.5C 859.048,112.276 862.881,114.942 867.5,116.5C 868.667,156.829 868.833,197.163 868,237.5C 865.176,238.818 862.676,240.485 860.5,242.5 Z M 188.5,160.5 C 189.11,161.391 189.443,162.391 189.5,163.5C 186.86,167.589 185.527,172.089 185.5,177C 185.985,182.758 187.152,188.258 189,193.5C 181.481,203.892 173.981,214.225 166.5,224.5C 164.086,225.911 162.419,227.911 161.5,230.5C 159.833,231.5 158.5,232.833 157.5,234.5C 153.202,238.296 149.036,242.296 145,246.5C 143.989,245.663 142.822,245.33 141.5,245.5C 141.333,202.499 141.5,159.499 142,116.5C 143.878,115.947 145.378,114.947 146.5,113.5C 147.847,112.972 149.181,112.805 150.5,113C 164.737,127.677 177.404,143.511 188.5,160.5 Z M 258.5,235.5 C 257.581,232.911 255.914,230.911 253.5,229.5C 244.111,218.398 235.445,206.731 227.5,194.5C 236.791,182.996 236.791,171.496 227.5,160C 238.153,143.387 250.486,128.054 264.5,114C 267.062,114.349 269.562,115.183 272,116.5C 272.667,156.833 272.667,197.167 272,237.5C 269.667,238.833 267.333,240.167 265,241.5C 262.963,239.294 260.797,237.294 258.5,235.5 Z M 444.5,113.5 C 458.16,128.324 470.494,144.157 481.5,161C 478.432,165.872 476.765,171.205 476.5,177C 476.864,183.293 478.364,189.126 481,194.5C 473.98,205.217 466.48,215.55 458.5,225.5C 456.413,226.585 455.08,228.251 454.5,230.5C 452.833,231.5 451.5,232.833 450.5,234.5C 448.152,236.68 445.652,238.68 443,240.5C 440.861,239.764 438.861,238.764 437,237.5C 436.333,197.167 436.333,156.833 437,116.5C 439.45,115.358 441.95,114.358 444.5,113.5 Z M 540.5,222.5 C 539.92,220.251 538.587,218.585 536.5,217.5C 530.73,209.478 525.063,201.312 519.5,193C 527.393,182.347 527.393,171.681 519.5,161C 530.869,144.607 543.202,128.94 556.5,114C 559.361,113.915 562.028,114.749 564.5,116.5C 565.667,156.829 565.833,197.163 565,237.5C 562.667,238.833 560.333,240.167 558,241.5C 552.301,234.97 546.467,228.637 540.5,222.5 Z M 737.5,113.5 C 752.529,129.361 765.863,146.528 777.5,165C 773.527,173.147 773.527,181.314 777.5,189.5C 768.862,202.132 759.862,214.465 750.5,226.5C 748.413,227.585 747.08,229.251 746.5,231.5C 744.167,233.167 742.167,235.167 740.5,237.5C 737.169,241.26 733.669,241.26 730,237.5C 729.333,197.167 729.333,156.833 730,116.5C 732.45,115.358 734.95,114.358 737.5,113.5 Z"/></g>
<g><path style="opacity:1" fill="#8c8a8b" d="M 662.5,48.5 C 655.309,44.8794 647.643,43.5461 639.5,44.5C 644.616,42.0587 649.95,41.8921 655.5,44C 658.239,45.0259 660.572,46.5259 662.5,48.5 Z"/></g>
<g><path style="opacity:1" fill="#aaa9aa" d="M 366.5,46.5 C 368.027,46.427 369.027,47.0937 369.5,48.5C 367.973,48.573 366.973,47.9063 366.5,46.5 Z"/></g>
<g><path style="opacity:1" fill="#8a8788" d="M 340.5,47.5 C 339.167,49.5 337.5,51.1667 335.5,52.5C 336.167,49.8333 337.833,48.1667 340.5,47.5 Z"/></g>
<g><path style="opacity:1" fill="#888686" d="M 633.5,47.5 C 632.167,49.5 630.5,51.1667 628.5,52.5C 629.167,49.8333 630.833,48.1667 633.5,47.5 Z"/></g>
<g><path style="opacity:1" fill="#d84f40" d="M 349.5,55.5 C 360.09,54.2613 365.59,58.9279 366,69.5C 362.994,78.0289 357.161,80.8623 348.5,78C 340.206,69.9853 340.54,62.4853 349.5,55.5 Z"/></g>
<g><path style="opacity:1" fill="#e9b749" d="M 642.5,55.5 C 653.09,54.2613 658.59,58.9279 659,69.5C 656.045,78.0347 650.211,80.868 641.5,78C 633.288,70.021 633.622,62.521 642.5,55.5 Z"/></g>
<g><path style="opacity:1" fill="#b4b2b3" d="M 927.5,61.5 C 932.316,60.3503 937.316,60.1837 942.5,61C 944.426,61.4224 945.426,62.5891 945.5,64.5C 944.395,63.3995 943.062,62.7329 941.5,62.5C 937.03,61.5139 932.363,61.1805 927.5,61.5 Z"/></g>
<g><path style="opacity:1" fill="#747172" d="M 927.5,61.5 C 932.363,61.1805 937.03,61.5139 941.5,62.5C 929.364,62.0397 917.364,63.0397 905.5,65.5C 912.474,62.8912 919.808,61.5579 927.5,61.5 Z"/></g>
<g><path style="opacity:1" fill="#8d8b8c" d="M 115.5,72.5 C 103.859,68.0894 91.8592,64.9227 79.5,63C 71.7845,62.2332 64.1179,62.3999 56.5,63.5C 57.0577,62.2101 58.0577,61.3768 59.5,61C 79.3055,59.7971 97.9722,63.6305 115.5,72.5 Z"/></g>
<g><path style="opacity:1" fill="#908e8e" d="M 377.5,61.5 C 384.799,63.6595 392.132,65.8262 399.5,68C 402.823,69.0399 405.823,70.5399 408.5,72.5C 398.739,68.9705 388.739,66.1372 378.5,64C 377.748,63.3292 377.414,62.4959 377.5,61.5 Z"/></g>
<g><path style="opacity:1" fill="#918f8f" d="M 670.5,61.5 C 677.799,63.6595 685.132,65.8262 692.5,68C 695.823,69.0399 698.823,70.5399 701.5,72.5C 691.739,68.9705 681.739,66.1372 671.5,64C 670.748,63.3292 670.414,62.4959 670.5,61.5 Z"/></g>
<g><path style="opacity:1" fill="#8c8a8b" d="M 331.5,59.5 C 331.5,60.8333 331.5,62.1667 331.5,63.5C 327.524,64.2952 323.524,64.9619 319.5,65.5C 322.888,63.8816 326.554,62.8816 330.5,62.5C 330.263,61.209 330.596,60.209 331.5,59.5 Z"/></g>
<g><path style="opacity:1" fill="#8b898a" d="M 624.5,59.5 C 624.5,60.8333 624.5,62.1667 624.5,63.5C 620.524,64.2952 616.524,64.9619 612.5,65.5C 615.888,63.8816 619.554,62.8816 623.5,62.5C 623.263,61.209 623.596,60.209 624.5,59.5 Z"/></g>
<g><path style="opacity:1" fill="#7a7778" d="M 286.5,69.5 C 280.464,69.3599 274.464,69.6932 268.5,70.5C 271.598,68.5131 275.098,67.5131 279,67.5C 281.821,67.4078 284.321,68.0744 286.5,69.5 Z"/></g>
<g><path style="opacity:1" fill="#838182" d="M 319.5,65.5 C 315.498,67.6098 311.165,68.9431 306.5,69.5C 310.502,67.3902 314.835,66.0569 319.5,65.5 Z"/></g>
<g><path style="opacity:1" fill="#7b797a" d="M 579.5,69.5 C 573.464,69.3599 567.464,69.6932 561.5,70.5C 564.373,68.3229 567.706,67.3229 571.5,67.5C 574.486,67.3817 577.152,68.0483 579.5,69.5 Z"/></g>
<g><path style="opacity:1" fill="#838181" d="M 612.5,65.5 C 608.498,67.6098 604.165,68.9431 599.5,69.5C 603.502,67.3902 607.835,66.0569 612.5,65.5 Z"/></g>
<g><path style="opacity:1" fill="#7c797a" d="M 882.5,69.5 C 876.464,69.3599 870.464,69.6932 864.5,70.5C 867.373,68.3229 870.706,67.3229 874.5,67.5C 877.486,67.3817 880.152,68.0483 882.5,69.5 Z"/></g>
<g><path style="opacity:1" fill="#878586" d="M 905.5,65.5 C 899.599,67.8056 893.599,70.1389 887.5,72.5C 886.893,72.3764 886.56,72.0431 886.5,71.5C 892.569,68.6996 898.902,66.6996 905.5,65.5 Z"/></g>
<g><path style="opacity:1" fill="#7f7c7d" d="M 148.5,72.5 C 139.996,68.846 131.329,68.5126 122.5,71.5C 128.982,67.3528 135.982,66.5195 143.5,69C 145.584,69.6972 147.251,70.8639 148.5,72.5 Z"/></g>
<g><path style="opacity:1" fill="#848282" d="M 443.5,72.5 C 435.782,69.2812 427.782,68.6146 419.5,70.5C 425.476,67.1915 431.81,66.6915 438.5,69C 440.584,69.6972 442.251,70.8639 443.5,72.5 Z"/></g>
<g><path style="opacity:1" fill="#848282" d="M 736.5,72.5 C 728.782,69.2812 720.782,68.6146 712.5,70.5C 718.476,67.1915 724.81,66.6915 731.5,69C 733.584,69.6972 735.251,70.8639 736.5,72.5 Z"/></g>
<g><path style="opacity:1" fill="#959293" d="M 122.5,71.5 C 122.027,72.9063 121.027,73.573 119.5,73.5C 119.973,72.0937 120.973,71.427 122.5,71.5 Z"/></g>
<g><path style="opacity:1" fill="#b4b3b4" d="M 148.5,72.5 C 150.027,72.427 151.027,73.0937 151.5,74.5C 149.973,74.573 148.973,73.9063 148.5,72.5 Z"/></g>
<g><path style="opacity:1" fill="#8b898a" d="M 75.5,74.5 C 80.5364,74.5878 85.5364,75.0878 90.5,76C 91.4158,76.2784 92.0825,76.7784 92.5,77.5C 86.6505,76.8041 80.9839,75.8041 75.5,74.5 Z"/></g>
<g><path style="opacity:1" fill="#a3a1a2" d="M 941.5,73.5 C 927.318,74.1432 913.318,76.6432 899.5,81C 898.244,81.4169 897.577,82.2502 897.5,83.5C 896.224,82.6136 896.224,81.6136 897.5,80.5C 911.619,74.81 926.286,72.4767 941.5,73.5 Z"/></g>
<g><path style="opacity:1" fill="#959394" d="M 327.5,76.5 C 325.401,77.6118 323.067,78.2785 320.5,78.5C 320.611,77.8826 320.944,77.3826 321.5,77C 323.473,76.5045 325.473,76.3379 327.5,76.5 Z"/></g>
<g><path style="opacity:1" fill="#9a9798" d="M 376.5,76.5 C 379.293,75.254 381.96,75.5873 384.5,77.5C 381.833,77.1667 379.167,76.8333 376.5,76.5 Z"/></g>
<g><path style="opacity:1" fill="#969494" d="M 620.5,76.5 C 618.401,77.6118 616.067,78.2785 613.5,78.5C 613.611,77.8826 613.944,77.3826 614.5,77C 616.473,76.5045 618.473,76.3379 620.5,76.5 Z"/></g>
<g><path style="opacity:1" fill="#999798" d="M 669.5,76.5 C 672.293,75.254 674.96,75.5873 677.5,77.5C 674.833,77.1667 672.167,76.8333 669.5,76.5 Z"/></g>
<g><path style="opacity:1" fill="#949192" d="M 92.5,77.5 C 94.8984,77.2594 96.8984,77.9261 98.5,79.5C 96.2143,79.405 94.2143,78.7384 92.5,77.5 Z"/></g>
<g><path style="opacity:1" fill="#8e8c8c" d="M 384.5,77.5 C 389.079,77.4703 393.079,78.8037 396.5,81.5C 392.341,80.3359 388.341,79.0026 384.5,77.5 Z"/></g>
<g><path style="opacity:1" fill="#8d8b8c" d="M 677.5,77.5 C 682.079,77.4703 686.079,78.8037 689.5,81.5C 685.341,80.3359 681.341,79.0026 677.5,77.5 Z"/></g>
<g><path style="opacity:1" fill="#8e8c8c" d="M 98.5,79.5 C 101.716,79.3455 104.383,80.3455 106.5,82.5C 103.603,81.871 100.936,80.871 98.5,79.5 Z"/></g>
<g><path style="opacity:1" fill="#d84f40" d="M 129.5,80.5 C 142.839,79.71 148.006,85.71 145,98.5C 141.072,103.691 135.905,105.524 129.5,104C 121.524,96.0943 121.524,88.2609 129.5,80.5 Z"/></g>
<g><path style="opacity:1" fill="#e7b648" d="M 273.5,80.5 C 284.701,79.5424 290.201,84.5424 290,95.5C 287.011,103.147 281.511,105.98 273.5,104C 264.175,95.9948 264.175,88.1615 273.5,80.5 Z"/></g>
<g><path style="opacity:1" fill="#918e8f" d="M 396.5,81.5 C 398.698,81.1201 400.365,81.7868 401.5,83.5C 399.597,83.2041 397.93,82.5375 396.5,81.5 Z"/></g>
<g><path style="opacity:1" fill="#29604e" d="M 425.5,80.5 C 440.432,80.4169 444.766,87.0836 438.5,100.5C 430.402,106.843 423.902,105.51 419,96.5C 417.219,89.4803 419.386,84.147 425.5,80.5 Z"/></g>
<g><path style="opacity:1" fill="#295f4d" d="M 566.5,80.5 C 577.665,79.5042 583.165,84.5042 583,95.5C 580.011,103.147 574.511,105.98 566.5,104C 557.175,95.9948 557.175,88.1615 566.5,80.5 Z"/></g>
<g><path style="opacity:1" fill="#d74e40" d="M 718.5,80.5 C 730.341,79.5059 735.507,84.8392 734,96.5C 729.321,104.686 722.988,106.353 715,101.5C 709.449,93.2476 710.615,86.2476 718.5,80.5 Z"/></g>
<g><path style="opacity:1" fill="#86b1bc" d="M 869.5,80.5 C 872.85,80.335 876.183,80.5017 879.5,81C 888.784,88.5087 888.784,96.0087 879.5,103.5C 871.306,106.486 865.806,103.819 863,95.5C 862.348,92.406 862.682,89.406 864,86.5C 866.04,84.6298 867.873,82.6298 869.5,80.5 Z"/></g>
<g><path style="opacity:1" fill="#a09e9f" d="M 317.5,79.5 C 312.923,81.4485 308.256,83.4485 303.5,85.5C 302.702,85.9569 302.369,86.6236 302.5,87.5C 301.224,86.6136 301.224,85.6136 302.5,84.5C 307.234,81.9628 312.234,80.2962 317.5,79.5 Z"/></g>
<g><path style="opacity:1" fill="#9c9b9b" d="M 610.5,79.5 C 605.923,81.4485 601.256,83.4485 596.5,85.5C 595.571,86.6888 595.238,88.0222 595.5,89.5C 594.212,87.9652 594.212,86.2985 595.5,84.5C 600.234,81.9628 605.234,80.2962 610.5,79.5 Z"/></g>
<g><path style="opacity:1" fill="#949293" d="M 339.5,86.5 C 341.027,86.427 342.027,87.0937 342.5,88.5C 340.973,88.573 339.973,87.9063 339.5,86.5 Z"/></g>
<g><path style="opacity:1" fill="#acaaab" d="M 367.5,87.5 C 365.65,89.5716 363.317,90.9049 360.5,91.5C 362.26,89.4413 364.594,88.108 367.5,87.5 Z"/></g>
<g><path style="opacity:1" fill="#adacac" d="M 660.5,87.5 C 658.65,89.5716 656.317,90.9049 653.5,91.5C 655.26,89.4413 657.594,88.108 660.5,87.5 Z"/></g>
<g><path style="opacity:1" fill="#949292" d="M 157.5,101.5 C 160.573,103.569 162.906,106.236 164.5,109.5C 161.427,107.431 159.094,104.764 157.5,101.5 Z"/></g>
<g><path style="opacity:1" fill="#8c898a" d="M 454.5,105.5 C 457.243,107.239 459.243,109.573 460.5,112.5C 457.757,110.761 455.757,108.427 454.5,105.5 Z"/></g>
<g><path style="opacity:1" fill="#939191" d="M 749.5,107.5 C 751.587,108.585 752.92,110.251 753.5,112.5C 751.413,111.415 750.08,109.749 749.5,107.5 Z"/></g>
<g><path style="opacity:1" fill="#7a7778" d="M 117.5,109.5 C 119.749,110.08 121.415,111.413 122.5,113.5C 120.251,112.92 118.585,111.587 117.5,109.5 Z"/></g>
<g><path style="opacity:1" fill="#959393" d="M 416.5,112.5 C 418.027,112.427 419.027,113.094 419.5,114.5C 417.973,114.573 416.973,113.906 416.5,112.5 Z"/></g>
<g><path style="opacity:1" fill="#939192" d="M 709.5,112.5 C 711.027,112.427 712.027,113.094 712.5,114.5C 710.973,114.573 709.973,113.906 709.5,112.5 Z"/></g>
<g><path style="opacity:1" fill="#4d4a4b" d="M 122.5,113.5 C 124.936,113.317 127.103,113.984 129,115.5C 129.667,158.833 129.667,202.167 129,245.5C 127.556,247.155 125.722,247.822 123.5,247.5C 124.848,246.399 126.348,245.399 128,244.5C 128.833,201.829 128.667,159.163 127.5,116.5C 125.604,115.725 123.937,114.725 122.5,113.5 Z"/></g>
<g><path style="opacity:1" fill="#949292" d="M 146.5,113.5 C 145.378,114.947 143.878,115.947 142,116.5C 141.5,159.499 141.333,202.499 141.5,245.5C 140.335,202.335 140.169,159.002 141,115.5C 142.725,114.536 144.559,113.869 146.5,113.5 Z"/></g>
<g><path style="opacity:1" fill="#908e8e" d="M 170.5,115.5 C 171.906,115.973 172.573,116.973 172.5,118.5C 171.094,118.027 170.427,117.027 170.5,115.5 Z"/></g>
<g><path style="opacity:1" fill="#d1d0d1" d="M 288.5,114.5 C 287.828,115.267 286.995,115.934 286,116.5C 285.833,136.833 285.667,157.167 285.5,177.5C 285.511,198.383 286.178,219.05 287.5,239.5C 286.5,239.5 285.5,239.5 284.5,239.5C 284.333,198.165 284.5,156.832 285,115.5C 286.011,114.663 287.178,114.33 288.5,114.5 Z"/></g>
<g><path style="opacity:1" fill="#807d7e" d="M 419.5,114.5 C 421.144,114.286 422.644,114.62 424,115.5C 424.831,156.669 424.665,197.669 423.5,238.5C 423.667,197.832 423.5,157.165 423,116.5C 421.698,115.915 420.531,115.249 419.5,114.5 Z"/></g>
<g><path style="opacity:1" fill="#676465" d="M 444.5,113.5 C 441.95,114.358 439.45,115.358 437,116.5C 436.333,156.833 436.333,197.167 437,237.5C 438.861,238.764 440.861,239.764 443,240.5C 445.652,238.68 448.152,236.68 450.5,234.5C 448.929,237.744 446.595,240.411 443.5,242.5C 440.921,241.294 438.421,239.961 436,238.5C 435.333,197.5 435.333,156.5 436,115.5C 438.316,114.504 440.65,113.504 443,112.5C 443.765,112.57 444.265,112.903 444.5,113.5 Z"/></g>
<g><path style="opacity:1" fill="#7a7778" d="M 712.5,114.5 C 714.144,114.286 715.644,114.62 717,115.5C 717.831,156.669 717.665,197.669 716.5,238.5C 716.667,197.832 716.5,157.165 716,116.5C 714.698,115.915 713.531,115.249 712.5,114.5 Z"/></g>
<g><path style="opacity:1" fill="#6a6768" d="M 737.5,113.5 C 734.95,114.358 732.45,115.358 730,116.5C 729.333,156.833 729.333,197.167 730,237.5C 733.669,241.26 737.169,241.26 740.5,237.5C 739.945,239.729 738.611,241.395 736.5,242.5C 733.921,241.294 731.421,239.961 729,238.5C 728.333,197.5 728.333,156.5 729,115.5C 731.316,114.504 733.65,113.504 736,112.5C 736.765,112.57 737.265,112.903 737.5,113.5 Z"/></g>
<g><path style="opacity:1" fill="#c6c5c5" d="M 884.5,114.5 C 883.828,115.267 882.995,115.934 882,116.5C 881.833,136.833 881.667,157.167 881.5,177.5C 881.511,198.383 882.178,219.05 883.5,239.5C 882.5,239.5 881.5,239.5 880.5,239.5C 880.333,198.165 880.5,156.832 881,115.5C 882.011,114.663 883.178,114.33 884.5,114.5 Z"/></g>
<g><path style="opacity:1" fill="#838181" d="M 242.5,118.5 C 241.92,120.749 240.587,122.415 238.5,123.5C 239.08,121.251 240.413,119.585 242.5,118.5 Z"/></g>
<g><path style="opacity:1" fill="#858383" d="M 535.5,118.5 C 534.92,120.749 533.587,122.415 531.5,123.5C 532.08,121.251 533.413,119.585 535.5,118.5 Z"/></g>
<g><path style="opacity:1" fill="#908e8e" d="M 529.5,125.5 C 529.573,127.027 528.906,128.027 527.5,128.5C 527.427,126.973 528.094,125.973 529.5,125.5 Z"/></g>
<g><path style="opacity:1" fill="#999798" d="M 218.5,150.5 C 218.586,151.496 218.252,152.329 217.5,153C 212.146,153.391 206.812,153.891 201.5,154.5C 201.918,153.778 202.584,153.278 203.5,153C 207.833,152.667 212.167,152.333 216.5,152C 217.044,151.283 217.711,150.783 218.5,150.5 Z"/></g>
<g><path style="opacity:1" fill="#989697" d="M 491.5,152.5 C 497.397,152.194 503.397,152.528 509.5,153.5C 504.505,153.332 499.338,153.666 494,154.5C 492.624,154.316 491.791,153.649 491.5,152.5 Z"/></g>
<g><path style="opacity:1" fill="#888686" d="M 803.5,151.5 C 798.385,153.041 793.051,154.708 787.5,156.5C 786.893,156.376 786.56,156.043 786.5,155.5C 791.928,153.189 797.594,151.856 803.5,151.5 Z"/></g>
<g><path style="opacity:1" fill="#a7a5a5" d="M 188.5,160.5 C 190.552,161.053 190.885,162.053 189.5,163.5C 189.443,162.391 189.11,161.391 188.5,160.5 Z"/></g>
<g><path style="opacity:1" fill="#29604e" d="M 204.5,165.5 C 218.129,164.293 223.296,170.293 220,183.5C 215.945,188.316 210.778,189.816 204.5,188C 196.528,180.548 196.528,173.048 204.5,165.5 Z"/></g>
<g><path style="opacity:1" fill="#da4f40" d="M 495.5,165.5 C 507.276,163.781 512.776,168.781 512,180.5C 508.997,188.14 503.497,190.64 495.5,188C 489.954,184.268 488.121,179.101 490,172.5C 491.697,169.98 493.53,167.647 495.5,165.5 Z"/></g>
<g><path style="opacity:1" fill="#29614e" d="M 793.5,165.5 C 805.275,163.783 810.775,168.783 810,180.5C 806.88,187.974 801.38,190.474 793.5,188C 787.954,184.268 786.121,179.101 788,172.5C 789.721,169.961 791.554,167.628 793.5,165.5 Z"/></g>
<g><path style="opacity:1" fill="#d7d7d7" d="M 581.5,114.5 C 580.828,115.267 579.995,115.934 579,116.5C 578.833,136.833 578.667,157.167 578.5,177.5C 578.511,198.383 579.178,219.05 580.5,239.5C 579.5,239.5 578.5,239.5 577.5,239.5C 577.333,198.165 577.5,156.832 578,115.5C 579.011,114.663 580.178,114.33 581.5,114.5 Z"/></g>
<g><path style="opacity:1" fill="#838181" d="M 786.5,199.5 C 786.917,198.876 787.584,198.543 788.5,198.5C 793.201,199.891 797.868,200.891 802.5,201.5C 797.009,201.85 791.676,201.184 786.5,199.5 Z"/></g>
<g><path style="opacity:1" fill="#838081" d="M 199.5,200.5 C 200.097,199.861 200.93,199.528 202,199.5C 206.996,200.034 211.83,200.7 216.5,201.5C 210.788,201.687 205.121,201.354 199.5,200.5 Z"/></g>
<g><path style="opacity:1" fill="#8a8888" d="M 492.5,200.5 C 497.295,200.777 502.295,200.443 507.5,199.5C 508.713,199.747 509.38,200.414 509.5,201.5C 503.954,201.757 498.287,201.424 492.5,200.5 Z"/></g>
<g><path style="opacity:1" fill="#726f70" d="M 536.5,217.5 C 538.587,218.585 539.92,220.251 540.5,222.5C 538.413,221.415 537.08,219.749 536.5,217.5 Z"/></g>
<g><path style="opacity:1" fill="#7d7a7b" d="M 166.5,224.5 C 165.581,227.089 163.914,229.089 161.5,230.5C 162.419,227.911 164.086,225.911 166.5,224.5 Z"/></g>
<g><path style="opacity:1" fill="#858383" d="M 458.5,225.5 C 457.92,227.749 456.587,229.415 454.5,230.5C 455.08,228.251 456.413,226.585 458.5,225.5 Z"/></g>
<g><path style="opacity:1" fill="#8e8c8c" d="M 750.5,226.5 C 749.92,228.749 748.587,230.415 746.5,231.5C 747.08,229.251 748.413,227.585 750.5,226.5 Z"/></g>
<g><path style="opacity:1" fill="#8b898a" d="M 253.5,229.5 C 255.914,230.911 257.581,232.911 258.5,235.5C 256.086,234.089 254.419,232.089 253.5,229.5 Z"/></g>
<g><path style="opacity:1" fill="#918f90" d="M 839.5,229.5 C 841.914,230.911 843.581,232.911 844.5,235.5C 842.086,234.089 840.419,232.089 839.5,229.5 Z"/></g>
<g><path style="opacity:1" fill="#797777" d="M 423.5,238.5 C 421.967,240.245 419.967,241.245 417.5,241.5C 418.911,239.461 420.911,238.461 423.5,238.5 Z"/></g>
<g><path style="opacity:1" fill="#777575" d="M 716.5,238.5 C 714.967,240.245 712.967,241.245 710.5,241.5C 711.911,239.461 713.911,238.461 716.5,238.5 Z"/></g>
<g><path style="opacity:1" fill="#afadae" d="M 291.5,241.5 C 293.027,241.427 294.027,242.094 294.5,243.5C 292.973,243.573 291.973,242.906 291.5,241.5 Z"/></g>
<g><path style="opacity:1" fill="#9d9c9c" d="M 833.5,242.5 C 835.833,242.833 837.167,244.167 837.5,246.5C 835.833,245.5 834.5,244.167 833.5,242.5 Z"/></g>
<g><path style="opacity:1" fill="#acaaab" d="M 887.5,241.5 C 889.027,241.427 890.027,242.094 890.5,243.5C 888.973,243.573 887.973,242.906 887.5,241.5 Z"/></g>
<g><path style="opacity:1" fill="#8e8c8c" d="M 157.5,234.5 C 154.437,239.072 150.77,243.239 146.5,247C 144.465,247.599 142.799,247.099 141.5,245.5C 142.822,245.33 143.989,245.663 145,246.5C 149.036,242.296 153.202,238.296 157.5,234.5 Z"/></g>
<g><path style="opacity:1" fill="#7a7879" d="M 860.5,242.5 C 859.196,245.569 857.196,246.569 854.5,245.5C 856.5,244.5 858.5,243.5 860.5,242.5 Z"/></g>
<g><path style="opacity:1" fill="#9b999a" d="M 251.5,246.5 C 254.167,247.167 255.833,248.833 256.5,251.5C 254.5,250.167 252.833,248.5 251.5,246.5 Z"/></g>
<g><path style="opacity:1" fill="#918f8f" d="M 544.5,246.5 C 547.167,247.167 548.833,248.833 549.5,251.5C 547.5,250.167 545.833,248.5 544.5,246.5 Z"/></g>
<g><path style="opacity:1" fill="#d84f40" d="M 272.5,250.5 C 286.185,248.68 291.685,254.346 289,267.5C 285.318,273.173 280.151,275.007 273.5,273C 264.635,265.947 264.302,258.447 272.5,250.5 Z"/></g>
<g><path style="opacity:1" fill="#eab849" d="M 435.5,272.5 C 432.518,272.963 429.518,273.296 426.5,273.5C 419.709,270.335 417.209,265.002 419,257.5C 426.282,246.844 433.616,246.844 441,257.5C 442.913,264.03 441.08,269.03 435.5,272.5 Z"/></g>
<g><path style="opacity:1" fill="#29614e" d="M 717.5,250.5 C 723.526,249.676 728.693,251.342 733,255.5C 736.455,268.72 731.288,274.554 717.5,273C 709.526,265.422 709.526,257.922 717.5,250.5 Z"/></g>
<g><path style="opacity:1" fill="#88b3bd" d="M 565.5,250.5 C 579.129,248.625 584.629,254.292 582,267.5C 578.318,273.173 573.151,275.007 566.5,273C 557.635,265.947 557.302,258.447 565.5,250.5 Z"/></g>
<g><path style="opacity:1" fill="#e9b749" d="M 868.5,250.5 C 882.152,248.647 887.652,254.314 885,267.5C 881.364,273.177 876.197,275.01 869.5,273C 860.635,265.947 860.302,258.447 868.5,250.5 Z"/></g>
<g><path style="opacity:1" fill="#8b8989" d="M 120.5,249.5 C 119.167,251.5 117.5,253.167 115.5,254.5C 116.167,251.833 117.833,250.167 120.5,249.5 Z"/></g>
<g><path style="opacity:1" fill="#929191" d="M 843.5,252.5 C 846.427,253.757 848.761,255.757 850.5,258.5C 847.573,257.243 845.239,255.243 843.5,252.5 Z"/></g>
<g><path style="opacity:1" fill="#88b4be" d="M 129.5,257.5 C 141.326,255.833 146.826,260.833 146,272.5C 142.763,279.616 137.263,282.116 129.5,280C 121.552,272.419 121.552,264.919 129.5,257.5 Z"/></g>
<g><path style="opacity:1" fill="#928f90" d="M 302.5,265.5 C 302.351,266.552 302.517,267.552 303,268.5C 304.652,269.399 306.152,270.399 307.5,271.5C 302.615,271.647 300.948,269.647 302.5,265.5 Z"/></g>
<g><path style="opacity:1" fill="#716f6f" d="M 342.5,265.5 C 341.089,267.914 339.089,269.581 336.5,270.5C 337.911,268.086 339.911,266.419 342.5,265.5 Z"/></g>
<g><path style="opacity:1" fill="#949293" d="M 369.5,267.5 C 371.262,268.262 372.262,269.596 372.5,271.5C 370.738,270.738 369.738,269.404 369.5,267.5 Z"/></g>
<g><path style="opacity:1" fill="#949293" d="M 595.5,265.5 C 595.351,266.552 595.517,267.552 596,268.5C 597.652,269.399 599.152,270.399 600.5,271.5C 595.615,271.647 593.948,269.647 595.5,265.5 Z"/></g>
<g><path style="opacity:1" fill="#706d6e" d="M 635.5,265.5 C 634.089,267.914 632.089,269.581 629.5,270.5C 630.911,268.086 632.911,266.419 635.5,265.5 Z"/></g>
<g><path style="opacity:1" fill="#979596" d="M 662.5,267.5 C 664.262,268.262 665.262,269.596 665.5,271.5C 663.738,270.738 662.738,269.404 662.5,267.5 Z"/></g>
<g><path style="opacity:1" fill="#868485" d="M 111.5,263.5 C 111.663,265.857 111.497,268.19 111,270.5C 109.989,271.337 108.822,271.67 107.5,271.5C 108.172,270.733 109.005,270.066 110,269.5C 110.191,267.292 110.691,265.292 111.5,263.5 Z"/></g>
<g><path style="opacity:1" fill="#716f6f" d="M 406.5,267.5 C 407.774,268.189 407.774,269.023 406.5,270C 404.655,271.128 402.655,271.628 400.5,271.5C 402.636,270.347 404.636,269.014 406.5,267.5 Z"/></g>
<g><path style="opacity:1" fill="#706d6e" d="M 699.5,267.5 C 700.774,268.189 700.774,269.023 699.5,270C 697.655,271.128 695.655,271.628 693.5,271.5C 695.636,270.347 697.636,269.014 699.5,267.5 Z"/></g>
<g><path style="opacity:1" fill="#949293" d="M 600.5,271.5 C 602.553,271.402 604.22,272.069 605.5,273.5C 603.447,273.598 601.78,272.931 600.5,271.5 Z"/></g>
<g><path style="opacity:1" fill="#999898" d="M 307.5,271.5 C 313.716,273.626 320.049,275.46 326.5,277C 328.598,277.678 330.598,277.511 332.5,276.5C 331.666,277.748 330.333,278.415 328.5,278.5C 320.939,277.535 313.939,275.202 307.5,271.5 Z"/></g>
<g><path style="opacity:1" fill="#6a552f" d="M 435.5,272.5 C 434.054,273.94 432.221,274.607 430,274.5C 428.615,274.486 427.449,274.152 426.5,273.5C 429.518,273.296 432.518,272.963 435.5,272.5 Z"/></g>
<g><path style="opacity:1" fill="#959394" d="M 896.5,272.5 C 911.915,277.566 927.582,280.566 943.5,281.5C 930.93,281.887 918.597,280.387 906.5,277C 902.736,276.148 899.403,274.648 896.5,272.5 Z"/></g>
<g><path style="opacity:1" fill="#949192" d="M 605.5,273.5 C 610.963,274.907 616.463,276.241 622,277.5C 623.256,277.352 624.423,277.018 625.5,276.5C 624.666,277.748 623.333,278.415 621.5,278.5C 615.691,278.006 610.357,276.339 605.5,273.5 Z"/></g>
<g><path style="opacity:1" fill="#908e8e" d="M 107.5,271.5 C 103.37,274.324 98.703,275.991 93.5,276.5C 97.9399,274.462 102.607,272.796 107.5,271.5 Z"/></g>
<g><path style="opacity:1" fill="#88b3be" d="M 349.5,275.5 C 361.333,274.499 366.5,279.832 365,291.5C 361.23,297.706 355.73,299.872 348.5,298C 340.288,290.021 340.622,282.521 349.5,275.5 Z"/></g>
<g><path style="opacity:1" fill="#8e8c8c" d="M 400.5,271.5 C 394.24,275.088 387.406,277.421 380,278.5C 378.615,278.486 377.449,278.152 376.5,277.5C 384.75,276.528 392.75,274.528 400.5,271.5 Z"/></g>
<g><path style="opacity:1" fill="#d94f40" d="M 642.5,275.5 C 654.333,274.499 659.5,279.832 658,291.5C 654.441,298.188 648.941,300.355 641.5,298C 633.206,289.985 633.54,282.485 642.5,275.5 Z"/></g>
<g><path style="opacity:1" fill="#8d8b8b" d="M 693.5,271.5 C 687.24,275.088 680.406,277.421 673,278.5C 671.615,278.486 670.449,278.152 669.5,277.5C 677.75,276.528 685.75,274.528 693.5,271.5 Z"/></g>
<g><path style="opacity:1" fill="#9e9c9d" d="M 93.5,276.5 C 88.8477,278.631 83.8477,279.631 78.5,279.5C 83.3039,278.139 88.3039,277.139 93.5,276.5 Z"/></g>
<g><path style="opacity:1" fill="#949292" d="M 552.5,277.5 C 554.749,278.08 556.415,279.413 557.5,281.5C 555.251,280.92 553.585,279.587 552.5,277.5 Z"/></g>
<g><path style="opacity:1" fill="#989697" d="M 260.5,278.5 C 262.404,278.738 263.738,279.738 264.5,281.5C 262.596,281.262 261.262,280.262 260.5,278.5 Z"/></g>
<g><path style="opacity:1" fill="#979596" d="M 856.5,278.5 C 858.404,278.738 859.738,279.738 860.5,281.5C 858.596,281.262 857.262,280.262 856.5,278.5 Z"/></g>
<g><path style="opacity:1" fill="#848282" d="M 78.5,279.5 C 72.0571,280.964 65.3905,281.797 58.5,282C 57.6266,283.045 56.6266,283.878 55.5,284.5C 56.1603,281.351 58.1603,279.851 61.5,280C 67.1569,279.501 72.8236,279.334 78.5,279.5 Z"/></g>
<g><path style="opacity:1" fill="#989697" d="M 707.5,280.5 C 704.167,281.5 700.833,282.5 697.5,283.5C 700.471,280.649 703.804,279.649 707.5,280.5 Z"/></g>
<g><path style="opacity:1" fill="#979596" d="M 264.5,281.5 C 266.027,281.427 267.027,282.094 267.5,283.5C 265.973,283.573 264.973,282.906 264.5,281.5 Z"/></g>
<g><path style="opacity:1" fill="#9a9999" d="M 417.5,282.5 C 419.027,282.427 420.027,283.094 420.5,284.5C 418.973,284.573 417.973,283.906 417.5,282.5 Z"/></g>
<g><path style="opacity:1" fill="#999898" d="M 710.5,282.5 C 712.027,282.427 713.027,283.094 713.5,284.5C 711.973,284.573 710.973,283.906 710.5,282.5 Z"/></g>
<g><path style="opacity:1" fill="#a09e9f" d="M 115.5,283.5 C 109.485,285.178 103.485,286.845 97.5,288.5C 101.966,286.444 106.633,284.611 111.5,283C 113.066,282.235 114.399,282.402 115.5,283.5 Z"/></g>
<g><path style="opacity:1" fill="#a09f9f" d="M 115.5,284.5 C 117.749,285.08 119.415,286.413 120.5,288.5C 118.251,287.92 116.585,286.587 115.5,284.5 Z"/></g>
<g><path style="opacity:1" fill="#898787" d="M 301.5,282.5 C 307.363,284.12 313.03,286.12 318.5,288.5C 312.334,287.668 306.667,285.668 301.5,282.5 Z"/></g>
<g><path style="opacity:1" fill="#9c9a9a" d="M 414.5,280.5 C 406.721,283.76 398.721,286.426 390.5,288.5C 397.107,285.789 403.774,282.956 410.5,280C 412.066,279.235 413.399,279.402 414.5,280.5 Z"/></g>
<g><path style="opacity:1" fill="#888687" d="M 594.5,282.5 C 600.363,284.12 606.03,286.12 611.5,288.5C 605.334,287.668 599.667,285.668 594.5,282.5 Z"/></g>
<g><path style="opacity:1" fill="#868384" d="M 889.5,283.5 C 895.767,284.922 901.767,286.922 907.5,289.5C 901.085,288.473 895.085,286.473 889.5,283.5 Z"/></g>
<g><path style="opacity:1" fill="#9a9898" d="M 267.5,283.5 C 271.094,284.457 274.76,285.124 278.5,285.5C 281.517,285.232 284.517,284.898 287.5,284.5C 284.814,285.991 281.814,286.657 278.5,286.5C 274.347,286.867 270.68,285.867 267.5,283.5 Z"/></g>
<g><path style="opacity:1" fill="#a09e9e" d="M 442.5,282.5 C 441.025,284.41 439.025,285.576 436.5,286C 432.167,286.667 427.833,286.667 423.5,286C 422.263,285.768 421.263,285.268 420.5,284.5C 428.073,286.209 435.407,285.542 442.5,282.5 Z"/></g>
<g><path style="opacity:1" fill="#939192" d="M 560.5,283.5 C 564.094,284.457 567.76,285.124 571.5,285.5C 574.517,285.232 577.517,284.898 580.5,284.5C 577.814,285.991 574.814,286.657 571.5,286.5C 567.347,286.867 563.68,285.867 560.5,283.5 Z"/></g>
<g><path style="opacity:1" fill="#9b9999" d="M 697.5,283.5 C 693.201,285.935 688.534,287.602 683.5,288.5C 687.799,286.065 692.466,284.398 697.5,283.5 Z"/></g>
<g><path style="opacity:1" fill="#a09e9f" d="M 735.5,282.5 C 734.025,284.41 732.025,285.576 729.5,286C 725.167,286.667 720.833,286.667 716.5,286C 715.263,285.768 714.263,285.268 713.5,284.5C 721.073,286.209 728.407,285.542 735.5,282.5 Z"/></g>
<g><path style="opacity:1" fill="#939192" d="M 863.5,283.5 C 867.094,284.457 870.76,285.124 874.5,285.5C 877.517,285.232 880.517,284.898 883.5,284.5C 880.814,285.991 877.814,286.657 874.5,286.5C 870.347,286.867 866.68,285.867 863.5,283.5 Z"/></g>
<g><path style="opacity:1" fill="#979595" d="M 390.5,288.5 C 386.761,290.102 382.761,291.102 378.5,291.5C 378.611,290.883 378.944,290.383 379.5,290C 383.114,289.064 386.78,288.564 390.5,288.5 Z"/></g>
<g><path style="opacity:1" fill="#989696" d="M 683.5,288.5 C 679.761,290.102 675.761,291.102 671.5,291.5C 671.611,290.883 671.944,290.383 672.5,290C 676.114,289.064 679.78,288.564 683.5,288.5 Z"/></g>
<g><path style="opacity:1" fill="#9c9a9b" d="M 318.5,288.5 C 321.152,288.41 323.485,289.076 325.5,290.5C 322.848,290.59 320.515,289.924 318.5,288.5 Z"/></g>
<g><path style="opacity:1" fill="#9c9a9b" d="M 611.5,288.5 C 614.152,288.41 616.485,289.076 618.5,290.5C 615.848,290.59 613.515,289.924 611.5,288.5 Z"/></g>
<g><path style="opacity:1" fill="#b3b2b2" d="M 147.5,289.5 C 147.027,290.906 146.027,291.573 144.5,291.5C 144.973,290.094 145.973,289.427 147.5,289.5 Z"/></g>
<g><path style="opacity:1" fill="#989696" d="M 97.5,288.5 C 84.7736,292.883 71.7736,294.217 58.5,292.5C 71.6344,292.4 84.6344,291.066 97.5,288.5 Z"/></g>
<g><path style="opacity:1" fill="#8a8888" d="M 123.5,290.5 C 129.346,292.155 135.346,292.822 141.5,292.5C 137.354,293.647 133.02,293.814 128.5,293C 126.509,292.626 124.842,291.793 123.5,290.5 Z"/></g>
<g><path style="opacity:1" fill="#8e8b8c" d="M 907.5,289.5 C 919.372,291.81 931.372,292.81 943.5,292.5C 931.303,294.226 919.303,293.226 907.5,289.5 Z"/></g>
<g><path style="opacity:1" fill="#959494" d="M 367.5,307.5 C 365.574,309.293 363.241,310.293 360.5,310.5C 362.426,308.707 364.759,307.707 367.5,307.5 Z"/></g>
<g><path style="opacity:1" fill="#a3a2a2" d="M 341.5,307.5 C 343.027,307.427 344.027,308.094 344.5,309.5C 342.973,309.573 341.973,308.906 341.5,307.5 Z"/></g>
<g><path style="opacity:1" fill="#a2a0a0" d="M 634.5,307.5 C 636.027,307.427 637.027,308.094 637.5,309.5C 635.973,309.573 634.973,308.906 634.5,307.5 Z"/></g>
<g><path style="opacity:1" fill="#9f9e9e" d="M 344.5,309.5 C 349.797,310.275 355.13,310.608 360.5,310.5C 358.527,311.163 356.361,311.496 354,311.5C 350.523,311.672 347.356,311.006 344.5,309.5 Z"/></g>
<g><path style="opacity:1" fill="#9b9a9a" d="M 658.5,308.5 C 655.149,310.893 651.316,311.893 647,311.5C 643.523,311.672 640.356,311.006 637.5,309.5C 644.585,310.958 651.585,310.625 658.5,308.5 Z"/></g>
<g><path style="opacity:1" fill="#939393" d="M 326.5,315.5 C 315.764,315.293 305.098,315.96 294.5,317.5C 305.045,314.573 315.711,313.906 326.5,315.5 Z"/></g>
<g><path style="opacity:1" fill="#2d2d2d" d="M 326.5,315.5 C 336.971,317.704 347.304,320.704 357.5,324.5C 358.492,324.328 359.158,324.662 359.5,325.5C 359.973,326.906 360.973,327.573 362.5,327.5C 363.492,327.328 364.158,327.662 364.5,328.5C 364.973,329.906 365.973,330.573 367.5,330.5C 394.569,349.632 408.236,375.965 408.5,409.5C 408.008,438.841 397.008,463.341 375.5,483C 370.866,486.812 365.866,489.979 360.5,492.5C 357.515,493.326 354.849,494.659 352.5,496.5C 345.357,498.366 338.357,500.366 331.5,502.5C 318.089,502.879 304.755,502.212 291.5,500.5C 287.915,498.194 283.915,496.861 279.5,496.5C 275.849,495.341 272.515,493.674 269.5,491.5C 269.027,490.094 268.027,489.427 266.5,489.5C 262.428,487.792 259.095,485.126 256.5,481.5C 254.431,478.427 251.764,476.094 248.5,474.5C 224.342,444.189 218.508,410.522 231,373.5C 234.764,363.617 240.264,354.951 247.5,347.5C 251.5,344.167 255.167,340.5 258.5,336.5C 263.281,331.273 268.948,327.273 275.5,324.5C 282.11,322.743 288.443,320.41 294.5,317.5C 305.098,315.96 315.764,315.293 326.5,315.5 Z M 322.5,355.5 C 327.444,356.654 332.444,357.988 337.5,359.5C 337.973,360.906 338.973,361.573 340.5,361.5C 340.842,362.338 341.508,362.672 342.5,362.5C 343.585,364.587 345.251,365.92 347.5,366.5C 360.347,382.228 365.18,400.228 362,420.5C 360.042,435.431 353.209,447.431 341.5,456.5C 329.432,462.299 316.765,463.966 303.5,461.5C 299.111,459.808 294.778,457.808 290.5,455.5C 290.027,454.094 289.027,453.427 287.5,453.5C 275.175,441.541 269.508,426.874 270.5,409.5C 269.824,391.177 276.157,375.843 289.5,363.5C 291.027,363.573 292.027,362.906 292.5,361.5C 301.958,357.004 311.958,355.004 322.5,355.5 Z"/></g>
<g><path style="opacity:1" fill="#2d2d2d" d="M 920.5,315.5 C 931.915,318.191 943.249,321.525 954.5,325.5C 957.94,327.055 961.273,328.888 964.5,331C 965.747,332.458 965.747,333.958 964.5,335.5C 959.167,345.5 953.833,355.5 948.5,365.5C 944.611,363.726 940.945,361.726 937.5,359.5C 927.128,353.194 915.795,351.027 903.5,353C 900.975,353.424 898.975,354.59 897.5,356.5C 887.896,364.878 888.229,372.878 898.5,380.5C 898.973,381.906 899.973,382.573 901.5,382.5C 902.492,382.328 903.158,382.662 903.5,383.5C 907.581,386.874 912.247,389.207 917.5,390.5C 920.088,392.625 923.088,393.958 926.5,394.5C 930.849,397.341 935.516,399.674 940.5,401.5C 944.815,403.66 948.815,406.327 952.5,409.5C 952.5,411.5 953.5,412.5 955.5,412.5C 956.5,412.833 957.167,413.5 957.5,414.5C 958.08,416.749 959.413,418.415 961.5,419.5C 967.652,426.771 970.985,435.271 971.5,445C 971.27,458.355 967.436,470.522 960,481.5C 956.902,485.107 953.402,488.107 949.5,490.5C 947.973,490.427 946.973,491.094 946.5,492.5C 944.819,494.008 942.819,495.008 940.5,495.5C 932.4,498.442 924.066,500.609 915.5,502C 902.434,502.831 889.434,502.331 876.5,500.5C 874.901,500.768 873.568,500.434 872.5,499.5C 868.183,497.06 863.517,495.393 858.5,494.5C 855.515,493.674 852.849,492.341 850.5,490.5C 850.027,489.094 849.027,488.427 847.5,488.5C 845.847,488.34 844.514,487.674 843.5,486.5C 843.027,485.094 842.027,484.427 840.5,484.5C 836.424,483.273 834.59,480.607 835,476.5C 841.03,466.328 847.197,456.328 853.5,446.5C 854.702,445.595 856.036,445.595 857.5,446.5C 861.537,449.18 865.537,451.846 869.5,454.5C 873.581,457.874 878.247,460.207 883.5,461.5C 888.522,464.276 894.022,465.61 900,465.5C 904.21,465.356 908.376,464.856 912.5,464C 915.152,463.647 917.152,462.48 918.5,460.5C 921.167,459.833 922.833,458.167 923.5,455.5C 926.352,446.962 924.352,439.962 917.5,434.5C 917.027,433.094 916.027,432.427 914.5,432.5C 914.027,431.094 913.027,430.427 911.5,430.5C 907.182,429.008 903.182,427.008 899.5,424.5C 897.824,422.166 895.491,421.166 892.5,421.5C 888.182,420.008 884.182,418.008 880.5,415.5C 880.027,414.094 879.027,413.427 877.5,413.5C 874.63,412.567 872.296,410.9 870.5,408.5C 869.415,406.413 867.749,405.08 865.5,404.5C 849.83,389.34 845.663,371.34 853,350.5C 854.863,345.417 857.696,341.084 861.5,337.5C 864.5,335.167 867.167,332.5 869.5,329.5C 871.296,327.1 873.63,325.433 876.5,324.5C 878.848,324.408 880.514,323.408 881.5,321.5C 886.422,320.364 891.089,318.697 895.5,316.5C 903.674,314.362 912.007,314.029 920.5,315.5 Z"/></g>
<g><path style="opacity:1" fill="#9d9d9d" d="M 920.5,315.5 C 932.573,316.639 943.906,319.972 954.5,325.5C 943.249,321.525 931.915,318.191 920.5,315.5 Z"/></g>
<g><path style="opacity:1" fill="#939393" d="M 326.5,315.5 C 337.688,315.9 348.021,318.9 357.5,324.5C 347.304,320.704 336.971,317.704 326.5,315.5 Z"/></g>
<g><path style="opacity:1" fill="#c9c9c9" d="M 800.5,318.5 C 816.992,317.503 833.658,317.17 850.5,317.5C 850.737,318.791 850.404,319.791 849.5,320.5C 833.534,318.515 817.201,317.848 800.5,318.5 Z"/></g>
<g><path style="opacity:1" fill="#808080" d="M 221.5,319.5 C 207.833,319.5 194.167,319.5 180.5,319.5C 180.5,319.167 180.5,318.833 180.5,318.5C 187.158,317.834 193.992,317.5 201,317.5C 208.201,317.503 215.034,318.17 221.5,319.5 Z"/></g>
<g><path style="opacity:1" fill="#818181" d="M 484.5,318.5 C 484.5,318.833 484.5,319.167 484.5,319.5C 460.167,319.5 435.833,319.5 411.5,319.5C 411.5,319.167 411.5,318.833 411.5,318.5C 435.736,317.173 460.069,317.173 484.5,318.5 Z"/></g>
<g><path style="opacity:1" fill="#7e7e7e" d="M 725.5,319.5 C 697.833,319.5 670.167,319.5 642.5,319.5C 655.983,318.167 669.817,317.501 684,317.5C 698.183,317.501 712.017,318.167 725.5,319.5 Z"/></g>
<g><path style="opacity:1" fill="#626262" d="M 800.5,318.5 C 817.201,317.848 833.534,318.515 849.5,320.5C 849.5,321.167 849.167,321.5 848.5,321.5C 840.862,320.169 832.862,319.502 824.5,319.5C 816.091,319.514 807.758,319.848 799.5,320.5C 799.328,319.508 799.662,318.842 800.5,318.5 Z"/></g>
<g><path style="opacity:1" fill="#696969" d="M 111.5,318.5 C 111.5,318.833 111.5,319.167 111.5,319.5C 90.8333,319.5 70.1667,319.5 49.5,319.5C 49.5,379.5 49.5,439.5 49.5,499.5C 49.1667,499.5 48.8333,499.5 48.5,499.5C 48.5,438.833 48.5,378.167 48.5,317.5C 69.6733,317.169 90.6733,317.503 111.5,318.5 Z"/></g>
<g><path style="opacity:1" fill="#2c2c2c" d="M 111.5,319.5 C 121.156,320.098 130.49,322.098 139.5,325.5C 140.492,325.328 141.158,325.662 141.5,326.5C 141.973,327.906 142.973,328.573 144.5,328.5C 152.942,333.807 158.109,341.473 160,351.5C 164.369,370.543 159.536,386.71 145.5,400C 143.922,401.094 142.255,401.928 140.5,402.5C 137.917,403.092 137.917,403.758 140.5,404.5C 147.082,406.249 153.416,408.582 159.5,411.5C 159.973,412.906 160.973,413.573 162.5,413.5C 171.804,421.197 176.637,431.197 177,443.5C 178.736,459.959 173.903,474.126 162.5,486C 159.861,488.483 156.861,490.316 153.5,491.5C 145.524,495.079 137.191,497.579 128.5,499C 102.169,499.5 75.8354,499.667 49.5,499.5C 49.5,439.5 49.5,379.5 49.5,319.5C 70.1667,319.5 90.8333,319.5 111.5,319.5 Z M 107.5,352.5 C 119.301,357.043 123.134,365.376 119,377.5C 117.695,380.961 115.529,383.628 112.5,385.5C 105.403,388.022 98.0693,389.022 90.5,388.5C 90.5,376.167 90.5,363.833 90.5,351.5C 96.2031,351.375 101.87,351.708 107.5,352.5 Z M 90.5,425.5 C 100.23,425.379 109.896,426.046 119.5,427.5C 132.855,434.416 136.355,444.749 130,458.5C 127.21,461.465 124.043,463.798 120.5,465.5C 110.581,467.163 100.581,467.83 90.5,467.5C 90.5,453.5 90.5,439.5 90.5,425.5 Z"/></g>
<g><path style="opacity:1" fill="#2a2b2a" d="M 180.5,319.5 C 194.167,319.5 207.833,319.5 221.5,319.5C 221.5,379.5 221.5,439.5 221.5,499.5C 207.833,499.5 194.167,499.5 180.5,499.5C 180.5,439.5 180.5,379.5 180.5,319.5 Z"/></g>
<g><path style="opacity:1" fill="#8c8c8c" d="M 411.5,318.5 C 411.5,318.833 411.5,319.167 411.5,319.5C 411.5,379.5 411.5,439.5 411.5,499.5C 425.167,499.5 438.833,499.5 452.5,499.5C 438.677,500.496 424.677,500.829 410.5,500.5C 410.168,439.664 410.501,378.998 411.5,318.5 Z"/></g>
<g><path style="opacity:1" fill="#2c2c2c" d="M 411.5,319.5 C 435.833,319.5 460.167,319.5 484.5,319.5C 492.77,319.925 500.77,321.591 508.5,324.5C 510.181,326.008 512.181,327.008 514.5,327.5C 517.475,328.655 520.142,330.322 522.5,332.5C 523.419,335.089 525.086,337.089 527.5,338.5C 534.316,346.083 538.15,355.083 539,365.5C 541.997,387.182 535.497,405.348 519.5,420C 518.473,420.513 517.473,421.013 516.5,421.5C 514.973,421.427 513.973,422.094 513.5,423.5C 512.486,424.674 511.153,425.34 509.5,425.5C 506.088,426.075 503.088,427.408 500.5,429.5C 484.447,431.828 468.447,433.161 452.5,433.5C 452.5,455.5 452.5,477.5 452.5,499.5C 438.833,499.5 425.167,499.5 411.5,499.5C 411.5,439.5 411.5,379.5 411.5,319.5 Z M 473.5,352.5 C 474.568,353.434 475.901,353.768 477.5,353.5C 479.936,354.871 482.603,355.871 485.5,356.5C 485.973,357.906 486.973,358.573 488.5,358.5C 498.087,370.297 497.754,381.797 487.5,393C 484.408,394.546 481.408,396.046 478.5,397.5C 469.867,398.377 461.2,398.711 452.5,398.5C 452.5,383.167 452.5,367.833 452.5,352.5C 459.5,352.5 466.5,352.5 473.5,352.5 Z"/></g>
<g><path style="opacity:1" fill="#989898" d="M 484.5,319.5 C 484.5,319.167 484.5,318.833 484.5,318.5C 493.143,318.357 501.143,320.357 508.5,324.5C 500.77,321.591 492.77,319.925 484.5,319.5 Z"/></g>
<g><path style="opacity:1" fill="#6b6b6b" d="M 584.5,390.5 C 583.502,367.006 583.169,343.339 583.5,319.5C 570.167,319.5 556.833,319.5 543.5,319.5C 543.5,379.5 543.5,439.5 543.5,499.5C 543.167,499.5 542.833,499.5 542.5,499.5C 542.5,438.833 542.5,378.167 542.5,317.5C 556.412,317.177 570.246,317.51 584,318.5C 584.5,342.498 584.667,366.498 584.5,390.5 Z"/></g>
<g><path style="opacity:1" fill="#2c2c2c" d="M 584.5,390.5 C 603.833,390.5 623.167,390.5 642.5,390.5C 642.5,366.833 642.5,343.167 642.5,319.5C 670.167,319.5 697.833,319.5 725.5,319.5C 738.225,337.929 750.725,356.596 763,375.5C 775.19,357.101 787.357,338.768 799.5,320.5C 807.758,319.848 816.091,319.514 824.5,319.5C 832.862,319.502 840.862,320.169 848.5,321.5C 826.856,353.996 805.356,386.663 784,419.5C 783.5,446.498 783.333,473.498 783.5,500.5C 769.588,500.823 755.754,500.49 742,499.5C 741.667,472.167 741.333,444.833 741,417.5C 722.231,389.614 703.731,361.614 685.5,333.5C 685.217,332.711 684.717,332.044 684,331.5C 683.5,387.499 683.333,443.499 683.5,499.5C 669.833,499.5 656.167,499.5 642.5,499.5C 642.5,475.5 642.5,451.5 642.5,427.5C 623.167,427.5 603.833,427.5 584.5,427.5C 583.502,451.328 583.169,475.328 583.5,499.5C 570.167,499.5 556.833,499.5 543.5,499.5C 543.5,439.5 543.5,379.5 543.5,319.5C 556.833,319.5 570.167,319.5 583.5,319.5C 583.169,343.339 583.502,367.006 584.5,390.5 Z"/></g>
<g><path style="opacity:1" fill="#939393" d="M 111.5,319.5 C 111.5,319.167 111.5,318.833 111.5,318.5C 121.567,318.35 130.9,320.683 139.5,325.5C 130.49,322.098 121.156,320.098 111.5,319.5 Z"/></g>
<g><path style="opacity:1" fill="#707070" d="M 895.5,316.5 C 891.089,318.697 886.422,320.364 881.5,321.5C 885.664,318.666 890.331,316.999 895.5,316.5 Z"/></g>
<g><path style="opacity:1" fill="#828282" d="M 294.5,317.5 C 288.443,320.41 282.11,322.743 275.5,324.5C 281.248,320.804 287.581,318.47 294.5,317.5 Z"/></g>
<g><path style="opacity:1" fill="#777777" d="M 881.5,321.5 C 880.514,323.408 878.848,324.408 876.5,324.5C 877.659,322.75 879.326,321.75 881.5,321.5 Z"/></g>
<g><path style="opacity:1" fill="#a0a0a0" d="M 508.5,324.5 C 511.089,324.461 513.089,325.461 514.5,327.5C 512.181,327.008 510.181,326.008 508.5,324.5 Z"/></g>
<g><path style="opacity:1" fill="#a0a0a0" d="M 359.5,325.5 C 361.027,325.427 362.027,326.094 362.5,327.5C 360.973,327.573 359.973,326.906 359.5,325.5 Z"/></g>
<g><path style="opacity:1" fill="#a7a7a7" d="M 141.5,326.5 C 143.027,326.427 144.027,327.094 144.5,328.5C 142.973,328.573 141.973,327.906 141.5,326.5 Z"/></g>
<g><path style="opacity:1" fill="#adadad" d="M 364.5,328.5 C 366.027,328.427 367.027,329.094 367.5,330.5C 365.973,330.573 364.973,329.906 364.5,328.5 Z"/></g>
<g><path style="opacity:1" fill="#9f9f9f" d="M 685.5,333.5 C 684.501,388.998 684.168,444.664 684.5,500.5C 670.323,500.829 656.323,500.496 642.5,499.5C 656.167,499.5 669.833,499.5 683.5,499.5C 683.333,443.499 683.5,387.499 684,331.5C 684.717,332.044 685.217,332.711 685.5,333.5 Z"/></g>
<g><path style="opacity:1" fill="#858585" d="M 869.5,329.5 C 867.167,332.5 864.5,335.167 861.5,337.5C 863.167,333.833 865.833,331.167 869.5,329.5 Z"/></g>
<g><path style="opacity:1" fill="#959595" d="M 522.5,332.5 C 524.914,333.911 526.581,335.911 527.5,338.5C 525.086,337.089 523.419,335.089 522.5,332.5 Z"/></g>
<g><path style="opacity:1" fill="#868686" d="M 258.5,336.5 C 255.167,340.5 251.5,344.167 247.5,347.5C 250.167,342.833 253.833,339.167 258.5,336.5 Z"/></g>
<g><path style="opacity:1" fill="#929292" d="M 107.5,352.5 C 101.87,351.708 96.2031,351.375 90.5,351.5C 90.5,363.833 90.5,376.167 90.5,388.5C 98.0693,389.022 105.403,388.022 112.5,385.5C 110.615,387.311 108.281,388.478 105.5,389C 100.177,389.499 94.8437,389.666 89.5,389.5C 89.5,376.5 89.5,363.5 89.5,350.5C 94.8437,350.334 100.177,350.501 105.5,351C 106.416,351.278 107.082,351.778 107.5,352.5 Z"/></g>
<g><path style="opacity:1" fill="#696969" d="M 473.5,352.5 C 466.5,352.5 459.5,352.5 452.5,352.5C 452.5,367.833 452.5,383.167 452.5,398.5C 452.5,398.833 452.5,399.167 452.5,399.5C 451.504,383.675 451.17,367.675 451.5,351.5C 459.019,351.175 466.352,351.508 473.5,352.5 Z"/></g>
<g><path style="opacity:1" fill="#939393" d="M 937.5,359.5 C 929.175,356.059 920.509,354.059 911.5,353.5C 906.604,353.558 901.937,354.558 897.5,356.5C 898.975,354.59 900.975,353.424 903.5,353C 915.795,351.027 927.128,353.194 937.5,359.5 Z"/></g>
<g><path style="opacity:1" fill="#919191" d="M 477.5,353.5 C 480.716,353.345 483.383,354.345 485.5,356.5C 482.603,355.871 479.936,354.871 477.5,353.5 Z"/></g>
<g><path style="opacity:1" fill="#9e9e9e" d="M 485.5,356.5 C 487.027,356.427 488.027,357.094 488.5,358.5C 486.973,358.573 485.973,357.906 485.5,356.5 Z"/></g>
<g><path style="opacity:1" fill="#9a9a9a" d="M 322.5,355.5 C 311.958,355.004 301.958,357.004 292.5,361.5C 301.636,355.048 311.636,353.048 322.5,355.5 Z"/></g>
<g><path style="opacity:1" fill="#a5a5a5" d="M 337.5,359.5 C 339.027,359.427 340.027,360.094 340.5,361.5C 338.973,361.573 337.973,360.906 337.5,359.5 Z"/></g>
<g><path style="opacity:1" fill="#b6b6b6" d="M 292.5,361.5 C 292.027,362.906 291.027,363.573 289.5,363.5C 289.973,362.094 290.973,361.427 292.5,361.5 Z"/></g>
<g><path style="opacity:1" fill="#8e8e8e" d="M 342.5,362.5 C 344.749,363.08 346.415,364.413 347.5,366.5C 345.251,365.92 343.585,364.587 342.5,362.5 Z"/></g>
<g><path style="opacity:1" fill="#a5a5a5" d="M 898.5,380.5 C 900.027,380.427 901.027,381.094 901.5,382.5C 899.973,382.573 898.973,381.906 898.5,380.5 Z"/></g>
<g><path style="opacity:1" fill="#9c9c9c" d="M 903.5,383.5 C 908.484,385.326 913.151,387.659 917.5,390.5C 912.247,389.207 907.581,386.874 903.5,383.5 Z"/></g>
<g><path style="opacity:1" fill="#949494" d="M 917.5,390.5 C 920.912,391.042 923.912,392.375 926.5,394.5C 923.088,393.958 920.088,392.625 917.5,390.5 Z"/></g>
<g><path style="opacity:1" fill="#989898" d="M 926.5,394.5 C 931.753,395.793 936.419,398.126 940.5,401.5C 935.516,399.674 930.849,397.341 926.5,394.5 Z"/></g>
<g><path style="opacity:1" fill="#929292" d="M 478.5,397.5 C 476.524,399.011 474.191,399.844 471.5,400C 464.986,400.82 458.653,400.653 452.5,399.5C 452.5,399.167 452.5,398.833 452.5,398.5C 461.2,398.711 469.867,398.377 478.5,397.5 Z"/></g>
<g><path style="opacity:1" fill="#9a9a9a" d="M 140.5,402.5 C 144.285,404.266 148.285,405.766 152.5,407C 155.239,408.026 157.572,409.526 159.5,411.5C 153.416,408.582 147.082,406.249 140.5,404.5C 137.917,403.758 137.917,403.092 140.5,402.5 Z"/></g>
<g><path style="opacity:1" fill="#838383" d="M 865.5,404.5 C 867.749,405.08 869.415,406.413 870.5,408.5C 868.251,407.92 866.585,406.587 865.5,404.5 Z"/></g>
<g><path style="opacity:1" fill="#9e9e9e" d="M 952.5,409.5 C 953.833,410.167 954.833,411.167 955.5,412.5C 953.5,412.5 952.5,411.5 952.5,409.5 Z"/></g>
<g><path style="opacity:1" fill="#b0b0b0" d="M 159.5,411.5 C 161.027,411.427 162.027,412.094 162.5,413.5C 160.973,413.573 159.973,412.906 159.5,411.5 Z"/></g>
<g><path style="opacity:1" fill="#a1a1a1" d="M 877.5,413.5 C 879.027,413.427 880.027,414.094 880.5,415.5C 878.973,415.573 877.973,414.906 877.5,413.5 Z"/></g>
<g><path style="opacity:1" fill="#909090" d="M 957.5,414.5 C 959.587,415.585 960.92,417.251 961.5,419.5C 959.413,418.415 958.08,416.749 957.5,414.5 Z"/></g>
<g><path style="opacity:1" fill="#7b7b7b" d="M 892.5,421.5 C 895.491,421.166 897.824,422.166 899.5,424.5C 896.843,424.065 894.509,423.065 892.5,421.5 Z"/></g>
<g><path style="opacity:1" fill="#b7b7b7" d="M 516.5,421.5 C 516.027,422.906 515.027,423.573 513.5,423.5C 513.973,422.094 514.973,421.427 516.5,421.5 Z"/></g>
<g><path style="opacity:1" fill="#888888" d="M 90.5,425.5 C 96.987,424.346 103.654,424.179 110.5,425C 113.797,425.204 116.797,426.037 119.5,427.5C 109.896,426.046 100.23,425.379 90.5,425.5 Z"/></g>
<g><path style="opacity:1" fill="#9c9c9c" d="M 509.5,425.5 C 506.943,427.607 503.943,428.941 500.5,429.5C 503.088,427.408 506.088,426.075 509.5,425.5 Z"/></g>
<g><path style="opacity:1" fill="#8b8b8b" d="M 584.5,427.5 C 584.5,451.833 584.5,476.167 584.5,500.5C 570.323,500.829 556.323,500.496 542.5,499.5C 542.833,499.5 543.167,499.5 543.5,499.5C 556.833,499.5 570.167,499.5 583.5,499.5C 583.169,475.328 583.502,451.328 584.5,427.5 Z"/></g>
<g><path style="opacity:1" fill="#9a9a9a" d="M 911.5,430.5 C 913.027,430.427 914.027,431.094 914.5,432.5C 912.973,432.573 911.973,431.906 911.5,430.5 Z"/></g>
<g><path style="opacity:1" fill="#b2b2b2" d="M 500.5,429.5 C 495.818,431.474 490.818,432.641 485.5,433C 474.505,433.5 463.505,433.667 452.5,433.5C 468.447,433.161 484.447,431.828 500.5,429.5 Z"/></g>
<g><path style="opacity:1" fill="#a2a2a2" d="M 914.5,432.5 C 916.027,432.427 917.027,433.094 917.5,434.5C 915.973,434.573 914.973,433.906 914.5,432.5 Z"/></g>
<g><path style="opacity:1" fill="#9e9e9e" d="M 857.5,446.5 C 856.036,445.595 854.702,445.595 853.5,446.5C 854.665,443.978 855.998,443.978 857.5,446.5 Z"/></g>
<g><path style="opacity:1" fill="#b3b3b3" d="M 287.5,453.5 C 289.027,453.427 290.027,454.094 290.5,455.5C 288.973,455.573 287.973,454.906 287.5,453.5 Z"/></g>
<g><path style="opacity:1" fill="#9e9e9e" d="M 869.5,454.5 C 874.484,456.326 879.151,458.659 883.5,461.5C 878.247,460.207 873.581,457.874 869.5,454.5 Z"/></g>
<g><path style="opacity:1" fill="#898989" d="M 290.5,455.5 C 294.778,457.808 299.111,459.808 303.5,461.5C 298.159,461.325 293.826,459.325 290.5,455.5 Z"/></g>
<g><path style="opacity:1" fill="#919191" d="M 923.5,455.5 C 922.833,458.167 921.167,459.833 918.5,460.5C 919.833,458.5 921.5,456.833 923.5,455.5 Z"/></g>
<g><path style="opacity:1" fill="#838383" d="M 341.5,456.5 C 340.878,458.335 339.544,459.502 337.5,460C 327.09,463.354 316.423,464.354 305.5,463C 304.584,462.722 303.918,462.222 303.5,461.5C 316.765,463.966 329.432,462.299 341.5,456.5 Z"/></g>
<g><path style="opacity:1" fill="#8e8e8e" d="M 918.5,460.5 C 917.152,462.48 915.152,463.647 912.5,464C 908.376,464.856 904.21,465.356 900,465.5C 894.022,465.61 888.522,464.276 883.5,461.5C 895.315,465.698 906.981,465.364 918.5,460.5 Z"/></g>
<g><path style="opacity:1" fill="#909090" d="M 90.5,425.5 C 90.5,439.5 90.5,453.5 90.5,467.5C 100.581,467.83 110.581,467.163 120.5,465.5C 118.438,466.776 116.104,467.61 113.5,468C 105.507,468.5 97.5069,468.666 89.5,468.5C 89.1707,453.99 89.5041,439.657 90.5,425.5 Z"/></g>
<g><path style="opacity:1" fill="#9a9a9a" d="M 248.5,474.5 C 251.764,476.094 254.431,478.427 256.5,481.5C 253.236,479.906 250.569,477.573 248.5,474.5 Z"/></g>
<g><path style="opacity:1" fill="#a2a2a2" d="M 840.5,484.5 C 842.027,484.427 843.027,485.094 843.5,486.5C 841.973,486.573 840.973,485.906 840.5,484.5 Z"/></g>
<g><path style="opacity:1" fill="#9e9e9e" d="M 847.5,488.5 C 849.027,488.427 850.027,489.094 850.5,490.5C 848.973,490.573 847.973,489.906 847.5,488.5 Z"/></g>
<g><path style="opacity:1" fill="#a6a6a6" d="M 266.5,489.5 C 268.027,489.427 269.027,490.094 269.5,491.5C 267.973,491.573 266.973,490.906 266.5,489.5 Z"/></g>
<g><path style="opacity:1" fill="#b5b5b5" d="M 949.5,490.5 C 949.027,491.906 948.027,492.573 946.5,492.5C 946.973,491.094 947.973,490.427 949.5,490.5 Z"/></g>
<g><path style="opacity:1" fill="#a5a5a5" d="M 360.5,492.5 C 358.421,494.873 355.754,496.206 352.5,496.5C 354.849,494.659 357.515,493.326 360.5,492.5 Z"/></g>
<g><path style="opacity:1" fill="#909090" d="M 858.5,494.5 C 863.517,495.393 868.183,497.06 872.5,499.5C 867.362,498.921 862.695,497.254 858.5,494.5 Z"/></g>
<g><path style="opacity:1" fill="#939393" d="M 279.5,496.5 C 283.915,496.861 287.915,498.194 291.5,500.5C 287.085,500.139 283.085,498.806 279.5,496.5 Z"/></g>
<g><path style="opacity:1" fill="#989898" d="M 153.5,491.5 C 152.251,493.136 150.584,494.303 148.5,495C 142.37,497.449 136.037,499.116 129.5,500C 102.33,500.83 75.3302,500.664 48.5,499.5C 48.8333,499.5 49.1667,499.5 49.5,499.5C 75.8354,499.667 102.169,499.5 128.5,499C 137.191,497.579 145.524,495.079 153.5,491.5 Z"/></g>
<g><path style="opacity:1" fill="#a7a7a7" d="M 180.5,318.5 C 180.5,318.833 180.5,319.167 180.5,319.5C 180.5,379.5 180.5,439.5 180.5,499.5C 194.167,499.5 207.833,499.5 221.5,499.5C 207.677,500.496 193.677,500.829 179.5,500.5C 179.168,439.664 179.501,378.998 180.5,318.5 Z"/></g>
<g><path style="opacity:1" fill="#a3a3a3" d="M 352.5,496.5 C 346.055,500.089 339.055,502.089 331.5,502.5C 338.357,500.366 345.357,498.366 352.5,496.5 Z"/></g>
<g><path style="opacity:1" fill="#8f8f8f" d="M 291.5,500.5 C 304.755,502.212 318.089,502.879 331.5,502.5C 326.632,503.213 321.632,503.879 316.5,504.5C 307.905,504.063 299.572,502.73 291.5,500.5 Z"/></g>
<g><path style="opacity:1" fill="#8f8f8f" d="M 940.5,495.5 C 936.554,497.99 932.22,499.824 927.5,501C 910.36,505.605 893.36,505.438 876.5,500.5C 889.434,502.331 902.434,502.831 915.5,502C 924.066,500.609 932.4,498.442 940.5,495.5 Z"/></g>
<g><path style="opacity:1" fill="#a4a4a4" d="M 497.5,547.5 C 505.99,546.343 514.657,546.176 523.5,547C 525.491,547.374 527.158,548.207 528.5,549.5C 518.273,547.698 507.94,547.031 497.5,547.5 Z"/></g>
<g><path style="opacity:1" fill="#313232" d="M 440.5,555.5 C 435.5,555.5 430.5,555.5 425.5,555.5C 425.5,567.167 425.5,578.833 425.5,590.5C 421.833,590.5 418.167,590.5 414.5,590.5C 414.5,579.167 414.5,567.833 414.5,556.5C 409.833,556.5 405.167,556.5 400.5,556.5C 400.5,553.167 400.5,549.833 400.5,546.5C 413.833,546.5 427.167,546.5 440.5,546.5C 440.5,549.5 440.5,552.5 440.5,555.5 Z"/></g>
<g><path style="opacity:1" fill="#353636" d="M 474.5,576.5 C 475.494,567.014 475.827,557.348 475.5,547.5C 478.833,547.5 482.167,547.5 485.5,547.5C 485.5,558.5 485.5,569.5 485.5,580.5C 485.021,584.975 482.688,587.975 478.5,589.5C 472.616,591.066 466.616,591.732 460.5,591.5C 458.901,591.768 457.568,591.434 456.5,590.5C 456.027,589.094 455.027,588.427 453.5,588.5C 451.012,587.26 449.179,585.26 448,582.5C 446.349,570.627 446.182,558.794 447.5,547C 451.423,546.207 455.256,546.374 459,547.5C 459.333,558.167 459.667,568.833 460,579.5C 464.002,583.122 468.335,583.456 473,580.5C 473.41,579.099 473.91,577.766 474.5,576.5 Z"/></g>
<g><path style="opacity:1" fill="#737373" d="M 485.5,580.5 C 485.5,569.5 485.5,558.5 485.5,547.5C 482.167,547.5 478.833,547.5 475.5,547.5C 475.827,557.348 475.494,567.014 474.5,576.5C 474.5,566.5 474.5,556.5 474.5,546.5C 478.5,546.5 482.5,546.5 486.5,546.5C 486.828,558.012 486.495,569.346 485.5,580.5 Z"/></g>
<g><path style="opacity:1" fill="#333434" d="M 497.5,547.5 C 507.94,547.031 518.273,547.698 528.5,549.5C 532.123,551.577 533.79,554.744 533.5,559C 533.685,564.302 531.352,567.968 526.5,570C 527.667,571.167 528.833,572.333 530,573.5C 531.36,578.47 532.527,583.47 533.5,588.5C 530.316,590.414 526.649,591.08 522.5,590.5C 520.965,585.54 519.298,580.54 517.5,575.5C 514.713,574.523 511.713,574.19 508.5,574.5C 508.5,579.833 508.5,585.167 508.5,590.5C 504.767,591.821 500.934,591.821 497,590.5C 496.173,575.994 496.339,561.661 497.5,547.5 Z M 519.5,557.5 C 521.19,559.423 521.523,561.423 520.5,563.5C 517.08,565.222 513.414,565.889 509.5,565.5C 509.5,562.5 509.5,559.5 509.5,556.5C 512.902,556.342 516.236,556.676 519.5,557.5 Z"/></g>
<g><path style="opacity:1" fill="#a2a3a3" d="M 555.5,547.5 C 551.833,547.5 548.167,547.5 544.5,547.5C 544.5,561.833 544.5,576.167 544.5,590.5C 548.167,590.5 551.833,590.5 555.5,590.5C 551.702,591.483 547.702,591.817 543.5,591.5C 543.5,576.5 543.5,561.5 543.5,546.5C 547.702,546.183 551.702,546.517 555.5,547.5 Z"/></g>
<g><path style="opacity:1" fill="#282929" d="M 555.5,547.5 C 555.5,561.833 555.5,576.167 555.5,590.5C 551.833,590.5 548.167,590.5 544.5,590.5C 544.5,576.167 544.5,561.833 544.5,547.5C 548.167,547.5 551.833,547.5 555.5,547.5 Z"/></g>
<g><path style="opacity:1" fill="#2e2f2f" d="M 596.5,573.5 C 596.987,574.473 597.487,575.473 598,576.5C 598.5,566.839 598.666,557.172 598.5,547.5C 602.167,547.5 605.833,547.5 609.5,547.5C 609.5,562.167 609.5,576.833 609.5,591.5C 604.489,591.666 599.489,591.499 594.5,591C 589.175,582.846 584.508,574.346 580.5,565.5C 580.013,564.527 579.513,563.527 579,562.5C 578.5,571.827 578.334,581.161 578.5,590.5C 574.833,590.5 571.167,590.5 567.5,590.5C 567.5,575.833 567.5,561.167 567.5,546.5C 572.544,546.173 577.544,546.506 582.5,547.5C 587.179,556.194 591.846,564.86 596.5,573.5 Z"/></g>
<g><path style="opacity:1" fill="#adadad" d="M 609.5,547.5 C 605.833,547.5 602.167,547.5 598.5,547.5C 598.666,557.172 598.5,566.839 598,576.5C 597.487,575.473 596.987,574.473 596.5,573.5C 597.493,564.682 597.827,555.682 597.5,546.5C 601.702,546.183 605.702,546.517 609.5,547.5 Z"/></g>
<g><path style="opacity:1" fill="#a8a9a9" d="M 519.5,557.5 C 516.236,556.676 512.902,556.342 509.5,556.5C 509.5,559.5 509.5,562.5 509.5,565.5C 513.414,565.889 517.08,565.222 520.5,563.5C 520.423,564.75 519.756,565.583 518.5,566C 515.183,566.498 511.85,566.665 508.5,566.5C 508.5,562.833 508.5,559.167 508.5,555.5C 511.85,555.335 515.183,555.502 518.5,556C 519.056,556.383 519.389,556.883 519.5,557.5 Z"/></g>
<g><path style="opacity:1" fill="#898a8a" d="M 440.5,555.5 C 436.03,556.486 431.363,556.819 426.5,556.5C 426.5,568.167 426.5,579.833 426.5,591.5C 422.298,591.817 418.298,591.483 414.5,590.5C 418.167,590.5 421.833,590.5 425.5,590.5C 425.5,578.833 425.5,567.167 425.5,555.5C 430.5,555.5 435.5,555.5 440.5,555.5 Z"/></g>
<g><path style="opacity:1" fill="#969797" d="M 580.5,565.5 C 579.507,573.984 579.174,582.651 579.5,591.5C 575.298,591.817 571.298,591.483 567.5,590.5C 571.167,590.5 574.833,590.5 578.5,590.5C 578.334,581.161 578.5,571.827 579,562.5C 579.513,563.527 580.013,564.527 580.5,565.5 Z"/></g>
<g><path style="opacity:1" fill="#c5c5c5" d="M 517.5,575.5 C 514.833,575.5 512.167,575.5 509.5,575.5C 509.821,580.695 509.487,585.695 508.5,590.5C 508.5,585.167 508.5,579.833 508.5,574.5C 511.713,574.19 514.713,574.523 517.5,575.5 Z"/></g>
<g><path style="opacity:1" fill="#9b9b9b" d="M 453.5,588.5 C 455.027,588.427 456.027,589.094 456.5,590.5C 454.973,590.573 453.973,589.906 453.5,588.5 Z"/></g>
<g><path style="opacity:1" fill="#919292" d="M 533.5,588.5 C 534.404,589.209 534.737,590.209 534.5,591.5C 530.298,591.817 526.298,591.483 522.5,590.5C 526.649,591.08 530.316,590.414 533.5,588.5 Z"/></g>
<g><path style="opacity:1" fill="#a7a7a7" d="M 478.5,589.5 C 476.852,590.927 474.852,591.76 472.5,592C 468.311,592.812 464.311,592.645 460.5,591.5C 466.616,591.732 472.616,591.066 478.5,589.5 Z"/></g>
</svg>
