<?xml version="1.0" standalone="no"?>
<!DOCTYPE svg PUBLIC "-//W3C//DTD SVG 20010904//EN"
 "http://www.w3.org/TR/2001/REC-SVG-20010904/DTD/svg10.dtd">
<svg version="1.0" xmlns="http://www.w3.org/2000/svg"
 width="1439.000000pt" height="513.000000pt" viewBox="0 0 1439.000000 513.000000"
 preserveAspectRatio="xMidYMid meet">

<g transform="translate(0.000000,513.000000) scale(0.100000,-0.100000)"
fill="#000000" stroke="none">
<path d="M2138 4130 c-166 -30 -305 -128 -382 -271 -35 -64 -66 -188 -65 -263
0 -63 23 -163 53 -229 l16 -37 -372 -279 c-205 -153 -382 -284 -393 -291 -18
-11 -28 -7 -80 29 -166 117 -423 121 -595 11 -151 -97 -250 -282 -250 -464 1
-169 105 -356 250 -448 169 -107 420 -104 589 7 l55 36 340 -163 c187 -90 471
-226 630 -303 l291 -141 6 -114 c5 -98 10 -126 36 -187 67 -158 192 -270 352
-317 72 -21 221 -21 292 0 236 69 389 273 389 518 0 243 -138 434 -369 513
-88 30 -231 32 -322 3 -123 -38 -226 -114 -290 -215 -19 -30 -39 -54 -46 -55
-6 0 -145 64 -310 143 -845 406 -894 431 -889 447 2 8 16 43 31 77 63 151 56
316 -19 461 l-16 32 317 237 c175 131 350 262 390 291 l72 53 72 -51 c214
-150 501 -126 688 59 253 249 196 675 -113 850 -97 55 -249 81 -358 61z m264
-178 c79 -38 149 -110 186 -190 24 -50 27 -69 27 -162 0 -99 -2 -110 -33 -172
-38 -78 -106 -144 -190 -185 -51 -25 -67 -28 -162 -28 -93 0 -111 3 -163 27
-73 35 -155 116 -193 193 -26 55 -29 69 -29 165 0 93 3 112 26 161 33 69 84
127 150 169 74 48 122 60 225 57 79 -2 100 -7 156 -35z m-1646 -1243 c77 -29
165 -113 206 -197 31 -62 33 -74 33 -167 0 -93 -2 -105 -33 -167 -59 -120
-158 -195 -290 -220 -163 -30 -340 62 -417 218 -27 54 -30 69 -30 164 0 95 3
111 29 167 50 109 162 199 279 223 59 12 158 3 223 -21z m2167 -1127 c168 -78
259 -245 230 -418 -15 -87 -47 -149 -108 -210 -228 -229 -604 -113 -666 205
-15 77 -1 168 37 243 95 188 320 268 507 180z"/>
<path d="M13307 4009 c-130 -17 -241 -66 -325 -143 -92 -84 -127 -177 -120
-315 11 -219 126 -312 518 -421 186 -51 250 -98 250 -181 0 -42 -27 -81 -73
-107 -24 -12 -55 -16 -127 -16 -80 0 -110 6 -192 34 -100 33 -225 98 -290 150
l-37 30 -70 -137 c-39 -76 -71 -141 -71 -145 0 -14 147 -103 231 -139 144 -63
225 -80 394 -86 181 -6 263 8 380 66 176 87 258 229 241 416 -8 95 -50 178
-121 244 -67 60 -123 88 -280 136 -267 81 -332 113 -361 174 -14 28 -14 40 -4
73 9 33 19 43 58 60 90 40 280 6 476 -86 l94 -44 68 141 c78 162 83 144 -51
208 -170 80 -389 113 -588 88z"/>
<path d="M6350 3995 c-157 -32 -267 -92 -386 -210 -101 -100 -148 -175 -186
-295 -20 -65 -23 -95 -23 -225 1 -138 3 -157 28 -230 105 -303 368 -493 707
-512 333 -18 630 144 764 419 216 442 -39 951 -527 1052 -92 19 -285 20 -377
1z m335 -316 c160 -60 265 -222 265 -409 0 -135 -47 -247 -139 -334 -165 -154
-420 -139 -573 33 -154 174 -147 456 16 616 120 116 278 151 431 94z"/>
<path d="M3260 3271 l0 -731 410 0 c460 0 510 5 638 65 150 71 224 182 224
340 0 163 -77 283 -219 340 -29 12 -56 25 -59 28 -3 3 14 14 38 25 81 36 150
111 177 194 7 21 12 70 12 110 0 160 -105 275 -307 334 -51 15 -116 18 -486
21 l-428 4 0 -730z m764 429 c60 -30 81 -64 81 -132 0 -67 -22 -103 -81 -133
-35 -18 -59 -20 -219 -20 l-180 0 -3 140 c-1 76 0 145 2 152 4 10 47 13 183
13 157 0 181 -2 217 -20z m45 -580 c113 -63 112 -206 -1 -270 -42 -24 -49 -25
-243 -25 l-200 0 -3 150 c-1 82 0 155 3 163 4 11 42 13 202 10 190 -3 200 -4
242 -28z"/>
<path d="M4970 3270 l0 -730 185 0 185 0 0 730 0 730 -185 0 -185 0 0 -730z"/>
<path d="M7747 3994 c-4 -4 -7 -333 -7 -731 l0 -723 185 0 185 0 2 203 3 202
205 6 c139 5 224 12 265 23 249 67 385 250 385 516 0 201 -89 359 -247 438
-124 63 -140 65 -573 69 -217 3 -399 1 -403 -3z m734 -299 c97 -35 144 -115
137 -239 -3 -63 -8 -81 -33 -117 -18 -26 -50 -53 -80 -68 -47 -25 -57 -26
-220 -26 l-170 0 -3 233 -2 232 164 0 c122 0 175 -4 207 -15z"/>
<path d="M9380 3270 l0 -730 185 0 185 0 2 283 3 282 303 3 302 2 0 -285 0
-285 185 0 185 0 0 730 0 730 -182 -2 -183 -3 -3 -297 -2 -298 -305 0 -305 0
0 300 0 300 -185 0 -185 0 0 -730z"/>
<path d="M11090 3995 c0 -3 122 -230 270 -504 l270 -500 0 -225 0 -226 180 0
180 0 0 233 0 234 241 449 c132 247 252 470 265 497 l24 47 -183 0 -183 0
-169 -315 c-94 -173 -174 -314 -178 -312 -5 1 -86 142 -180 312 l-173 310
-182 3 c-100 1 -182 0 -182 -3z"/>
<path d="M5484 1865 c-15 -39 1 -45 116 -45 l110 0 0 -285 0 -285 30 0 30 0 0
285 0 285 110 0 110 0 0 30 0 30 -250 0 c-214 0 -251 -2 -256 -15z"/>
<path d="M6190 1667 c0 -232 8 -281 54 -341 14 -18 45 -43 69 -54 134 -63 300
-21 359 90 22 41 23 56 26 281 l3 238 -28 -3 -28 -3 -5 -230 c-5 -218 -6 -232
-28 -267 -30 -49 -92 -78 -165 -78 -64 0 -102 12 -135 43 -53 49 -57 67 -62
307 l-5 225 -27 3 -28 3 0 -214z"/>
<path d="M7008 1874 c-5 -4 -8 -146 -8 -316 l0 -308 35 0 35 0 0 100 0 101
112 -3 112 -3 70 -97 c65 -91 72 -98 104 -98 l34 0 -24 33 c-60 80 -118 165
-118 173 0 5 20 21 45 36 58 35 85 88 85 168 0 71 -16 114 -56 152 -54 50 -96
61 -264 66 -85 2 -158 1 -162 -4z m343 -74 c60 -31 81 -71 76 -149 -3 -58 -6
-66 -39 -97 -47 -43 -91 -54 -215 -54 l-103 0 0 160 0 160 120 0 c102 0 127
-3 161 -20z"/>
<path d="M7750 1565 l0 -315 30 0 30 0 0 315 0 315 -30 0 -30 0 0 -315z"/>
<path d="M8117 1874 c-4 -4 -7 -146 -7 -316 l0 -308 35 0 35 0 2 252 3 253
200 -253 c175 -222 203 -252 227 -252 l28 0 -2 313 -3 312 -27 3 -28 3 0 -249
c0 -137 -3 -252 -6 -255 -4 -3 -97 107 -208 246 -189 237 -226 274 -249 251z"/>
</g>
</svg>
