<?xml version="1.0" encoding="utf-8"?>
<!-- Generator: Adobe Illustrator 27.0.1, SVG Export Plug-In . SVG Version: 6.00 Build 0)  -->
<svg version="1.1" id="LOGO_UNITO_VERTICALE" xmlns="http://www.w3.org/2000/svg" xmlns:xlink="http://www.w3.org/1999/xlink"
	 width="278px" height="417px" viewBox="0 0 698.3 874.6" style="enable-background:new 0 0 698.3 874.6;" xml:space="preserve">
<style type="text/css">
	.st0{fill:#54565A;}
	.st1{fill:#EA0029;}
</style>
<g id="UNIVERSITA_x27__DI_TORINO">
</g>
<g>
	<g>
		<g>
			<path class="st0" d="M0,769.9h40.1c9.5,0,18.3,2.3,26.2,6.9c7.9,4.6,14.2,10.8,18.8,18.7c4.6,7.9,6.9,16.6,6.9,26.1
				s-2.3,18.2-6.9,26.1s-10.9,14.1-18.8,18.7s-16.7,6.9-26.2,6.9H0V769.9z M58.1,853.3c5.5-3.2,9.8-7.6,12.9-13.2
				c3.2-5.6,4.7-11.7,4.7-18.5c0-6.7-1.6-12.9-4.7-18.5c-3.2-5.6-7.4-10-12.9-13.3c-5.4-3.2-11.4-4.8-18-4.8H16.3v73.1h23.8
				C46.6,858.2,52.6,856.6,58.1,853.3z"/>
			<path class="st0" d="M105.8,873.3V770h16.3v103.3H105.8z"/>
			<path class="st1" d="M169.4,769.9h79v16h-31.3v87.4h-16.3v-87.4h-31.4L169.4,769.9L169.4,769.9z"/>
			<path class="st1" d="M252.2,794.8c4.7-8.1,11.1-14.5,19.2-19.1c8.1-4.7,17.1-7,26.9-7c9.9,0,18.9,2.3,27,7s14.6,11,19.3,19.1
				s7.1,17,7.1,26.9c0,9.8-2.4,18.7-7.1,26.8c-4.7,8.1-11.1,14.5-19.3,19.1c-8.1,4.7-17.1,7-27,7c-9.8,0-18.8-2.3-26.9-7
				c-8.1-4.7-14.6-11-19.2-19.1c-4.7-8.1-7-17-7-26.8C245.2,811.8,247.5,802.9,252.2,794.8z M266.4,840.3
				c3.3,5.7,7.7,10.1,13.4,13.4c5.6,3.2,11.9,4.9,18.7,4.9s13.1-1.6,18.7-4.9c5.6-3.2,10.1-7.7,13.4-13.4c3.3-5.7,4.9-11.9,4.9-18.7
				c0-6.8-1.6-13.1-4.9-18.7c-3.3-5.6-7.7-10.1-13.4-13.4c-5.6-3.3-11.9-4.9-18.7-4.9s-13.1,1.6-18.7,4.9
				c-5.6,3.3-10.1,7.7-13.4,13.4c-3.3,5.6-4.9,11.9-4.9,18.7C261.5,828.4,263.1,834.6,266.4,840.3z"/>
			<path class="st0" d="M365.6,873.3V770h37.5c5.9,0,11.3,1.4,16.2,4.1s8.7,6.5,11.6,11.2c2.8,4.8,4.2,10.1,4.2,16
				c0,5.2-1.3,9.9-3.8,14.2c-2.5,4.3-5.7,7.6-9.5,10s-7.5,3.7-11.1,3.7l-2.1,0.1v0.1c2.1,0.2,3.9,0.7,5.2,1.4
				c1.3,0.7,2.5,1.8,3.5,3.1l29.2,39.4h-12.7c-2.2,0-4.1-0.4-5.8-1.1s-3.3-2.1-4.7-4l-26.4-35.5H382v40.6L365.6,873.3L365.6,873.3z
				 M381.9,816.7h20.5c3,0,5.8-0.7,8.3-2s4.5-3.2,5.9-5.6s2.2-5,2.2-7.9c0-3-0.7-5.6-2.2-7.9s-3.4-4.1-5.9-5.4s-5.3-1.9-8.4-1.9
				h-20.4L381.9,816.7L381.9,816.7z"/>
			<path class="st0" d="M454.7,873.3V770H471v103.3H454.7z"/>
			<path class="st0" d="M577.9,769.9v103.3h-12.4c-1,0-1.9-0.3-2.9-1c-1-0.6-1.9-1.6-2.7-2.7l-53.2-78.3h-0.4
				c1.4,3.4,2.1,7,2.1,10.8l-0.1,71.1h-16.2V769.8h12.7c2.1,0,3.9,0.4,5.4,1.1s2.9,2.1,4.2,3.9l49.7,72.9h0.3
				c-1.7-3.8-2.6-7.6-2.6-11.4v-66.6h16.1V769.9z"/>
			<path class="st0" d="M598.8,794.8c4.7-8.1,11.1-14.5,19.2-19.1c8.1-4.7,17.1-7,26.9-7c9.9,0,18.9,2.3,27,7s14.6,11,19.3,19.1
				c4.7,8.1,7.1,17,7.1,26.9c0,9.8-2.4,18.7-7.1,26.8c-4.7,8.1-11.1,14.5-19.3,19.1c-8.1,4.7-17.1,7-27,7c-9.8,0-18.8-2.3-26.9-7
				s-14.6-11-19.2-19.1c-4.7-8.1-7-17-7-26.8C591.7,811.8,594.1,802.9,598.8,794.8z M612.9,840.3c3.3,5.7,7.7,10.1,13.4,13.4
				c5.6,3.2,11.9,4.9,18.7,4.9c6.8,0,13.1-1.6,18.7-4.9c5.6-3.2,10.1-7.7,13.4-13.4c3.3-5.7,4.9-11.9,4.9-18.7
				c0-6.8-1.6-13.1-4.9-18.7s-7.7-10.1-13.4-13.4c-5.6-3.3-11.9-4.9-18.7-4.9c-6.8,0-13.1,1.6-18.7,4.9s-10.1,7.7-13.4,13.4
				c-3.3,5.6-4.9,11.9-4.9,18.7S609.7,834.6,612.9,840.3z"/>
		</g>
		<g>
			<path class="st1" d="M17.6,705.2c1.9,3.5,4.6,6.1,8.1,8.1c3.5,1.9,7.5,2.9,12.1,2.9s8.7-1,12.2-2.9s6.2-4.6,8.1-8.1
				s2.9-7.4,2.9-12v-56.9h14.6v56.9c0,7.4-1.6,13.9-4.7,19.6c-3.2,5.7-7.6,10.1-13.3,13.3c-5.7,3.2-12.3,4.7-19.8,4.7
				c-7.4,0-14-1.6-19.7-4.7c-5.7-3.2-10.2-7.6-13.3-13.3c-3.2-5.7-4.7-12.2-4.7-19.6v-56.9h14.7v56.9
				C14.7,697.8,15.7,701.8,17.6,705.2z"/>
			<path class="st1" d="M169,636.4v93.3h-11.2c-0.9,0-1.8-0.3-2.6-0.9c-0.9-0.6-1.7-1.4-2.4-2.4l-48.1-70.7h-0.3
				c1.3,3.1,1.9,6.3,1.9,9.8l-0.1,64.2H91.5v-93.3H103c1.9,0,3.5,0.3,4.9,1c1.3,0.7,2.6,1.9,3.8,3.6l44.9,65.9h0.3
				c-1.6-3.4-2.3-6.9-2.3-10.3v-60.1H169V636.4z"/>
			<path class="st1" d="M188.1,729.7v-93.3h14.7v93.3H188.1z"/>
			<path class="st0" d="M302.6,636.4l-40.5,93.3h-13l-40.5-93.3h9.8c2,0,3.7,0.5,5.2,1.4s2.6,2.3,3.4,4.1l25.6,59.4
				c1.5,3.3,2.4,7.2,2.7,11.7h0.5c0.3-4.4,1.3-8.3,2.7-11.7l25.6-59.4c0.8-1.7,1.9-3.1,3.4-4c1.5-1,3.2-1.4,5.2-1.4L302.6,636.4
				L302.6,636.4z"/>
			<path class="st0" d="M308.5,729.7v-93.3h58.8v14.5h-44.1V675H359v14.2h-35.8v26.2h44.1v14.5h-58.8V729.7z"/>
			<path class="st0" d="M380.5,729.7v-93.3h33.9c5.3,0,10.2,1.2,14.6,3.7c4.4,2.5,7.9,5.8,10.4,10.1s3.8,9.1,3.8,14.4
				c0,4.7-1.1,9-3.4,12.8c-2.3,3.8-5.1,6.9-8.5,9.1c-3.4,2.2-6.8,3.3-10,3.4l-1.9,0.1v0.1c1.9,0.2,3.5,0.7,4.7,1.3
				c1.2,0.7,2.3,1.6,3.1,2.8l26.3,35.6H442c-2,0-3.7-0.3-5.3-1s-3-1.9-4.2-3.6l-23.9-32h-13.5v36.7h-14.6V729.7z M395.3,678.6h18.5
				c2.7,0,5.2-0.6,7.5-1.8s4-2.9,5.3-5s2-4.5,2-7.1c0-2.7-0.7-5.1-2-7.2c-1.3-2.1-3.1-3.7-5.3-4.9c-2.3-1.2-4.8-1.7-7.6-1.7h-18.5
				L395.3,678.6L395.3,678.6z"/>
			<path class="st0" d="M466.6,727c-5.3-2.6-9.8-6-13.7-10.2l3.2-5.5c0.6-1,1.4-1.7,2.4-2.2s2.1-0.8,3.4-0.8c1.7,0,3.2,0.5,4.6,1.4
				c2.6,1.8,5.5,3.4,8.7,4.7s6,2,8.2,2c5.1,0,9.3-1.2,12.4-3.6c3.1-2.4,4.7-5.9,4.7-10.3c0-3.1-1.3-5.8-4-8.3
				c-2.7-2.4-7-4.8-12.9-7.1c-9-3.3-15.6-7.1-19.9-11.4c-4.3-4.3-6.4-9.4-6.4-15.3c0-4.9,1.2-9.3,3.6-13.1c2.4-3.8,5.7-6.8,10-9
				c4.3-2.1,9.2-3.2,14.7-3.2c4.4,0,8.9,0.9,13.5,2.6c4.6,1.7,8.3,4.2,11.3,7.4l-2.6,4.6c-0.8,1.4-1.8,2.5-3,3.2
				c-1.2,0.8-2.5,1.1-3.8,1.1c-1.1,0-2.2-0.3-3.3-0.8c-1.9-1.3-4-2.2-6.2-2.8s-4.2-0.9-5.9-0.9c-4,0-7.3,1-9.8,2.9
				c-2.5,2-3.8,4.6-3.8,7.9c0,2.6,1.2,4.9,3.7,6.9s6.4,4,11.9,5.9c9.3,3,16.2,6.9,20.8,11.7c4.6,4.8,6.8,10.7,6.8,17.5
				c0,5.5-1.4,10.4-4.1,14.8c-2.7,4.3-6.5,7.7-11.4,10.1c-4.9,2.4-10.4,3.6-16.7,3.6C477.3,730.9,471.8,729.6,466.6,727z"/>
			<path class="st0" d="M527.5,729.7v-93.3h14.7v93.3H527.5z"/>
			<path class="st0" d="M550.8,636.4h71.4v14.4H594v78.9h-14.7v-78.9h-28.4L550.8,636.4L550.8,636.4z"/>
			<path class="st0" d="M698.3,729.7h-10c-1.9,0-3.6-0.5-5.2-1.5c-1.5-1-2.7-2.3-3.4-4.1l-6.4-14.7h-44.7l-6.4,14.7
				c-0.7,1.7-1.9,3.1-3.4,4.1s-3.2,1.5-5.1,1.5h-10l40.8-93.3h13L698.3,729.7z M667.5,695.9l-13.7-31.4c-1-2.3-1.7-4.1-2-5.4
				c-0.3-1.3-0.5-2.7-0.5-4.3h-0.7c0,1.5-0.2,2.9-0.5,4.3c-0.3,1.3-0.9,3.1-1.9,5.4l-13.6,31.4H667.5z"/>
			<path id="accento_00000042007423160514827840000011027068181216656529_" class="st0" d="M629.3,603.2c1.5,3.9,4.8,10.9,6.7,15.1
				c1.2,2.7,4,6.5,8,6.5c5.3,0,7,0,8.5,0c-1.1-2.4-4.9-11.8-7.3-16.2c-2.3-4.4-6-5.4-8.8-5.5C633.6,603.1,629.3,603.2,629.3,603.2z"
				/>
		</g>
	</g>
	<g>
		<g>
			<path class="st1" d="M371.1,492.8c-0.9-2.2-2.1-3.9-3.6-5.1c-1.5-1.1-3.2-1.6-5.2-1.5s-3.6,0.8-5,2.1c-1.3,1.3-2.3,3.1-2.9,5.5
				c-0.6,2.3-0.8,5.1-0.6,8.2c0.2,3.1,0.7,5.8,1.6,8.1c0.9,2.2,2.1,3.9,3.6,5.1c1.5,1.1,3.2,1.6,5.2,1.5s3.6-0.8,5-2.1
				c1.3-1.3,2.3-3.1,2.9-5.5c0.6-2.3,0.8-5.1,0.6-8.2C372.6,497.7,372,495,371.1,492.8z"/>
			<path class="st1" d="M114.3,249.4c-0.9-0.7-2-1-3.2-1.1s-2.3,0.1-3.3,0.7c-1,0.5-1.8,1.3-2.4,2.3s-0.9,2.1-1,3.4l-0.5,8.3
				l12.5,0.8l0.5-8.4c0.1-1.2-0.1-2.4-0.6-3.4C116,250.9,115.3,250.1,114.3,249.4z"/>
			<path class="st1" d="M402.7,483.9c-0.1,0.5-0.2,0.8-0.3,1.2l-6.3,16.5c-0.2,0.4-0.4,0.8-0.7,1.2s-0.6,0.7-0.9,0.9l12.7-3.2
				l-4.5-17.9C402.8,483,402.8,483.4,402.7,483.9z"/>
			<path class="st1" d="M391.8,58.6c2.4-0.9,4.5-2.4,6.1-4.4c1.7-2,2.7-4.4,3.2-7.1s0.3-5.3-0.6-7.8c-0.9-2.5-2.3-4.5-4.3-6.2
				s-4.3-2.7-6.9-3.2l-9.6-1.6l-5.1,29.4l9.6,1.6C386.8,59.8,389.3,59.6,391.8,58.6z"/>
			<path class="st1" d="M540.7,130c0.5-1,1-1.7,1.4-2.2s0.9-0.9,1.4-1.3l-0.2-0.2c-0.6,0.4-1.1,0.7-1.7,1c-0.6,0.3-1.4,0.5-2.5,0.8
				l-15.1,3.5l8.9,11.9L540.7,130z"/>
			<path class="st1" d="M155.3,132c-1.1-0.2-1.9-0.5-2.5-0.7s-1.1-0.5-1.7-0.9l-0.2,0.2c0.5,0.4,1,0.9,1.4,1.3
				c0.4,0.5,0.9,1.2,1.5,2.1l8,13.3l8.7-12.1L155.3,132z"/>
			<path class="st1" d="M574.6,214.5c0.8,0.8,1.7,1.4,2.8,1.7c1.1,0.3,2.2,0.3,3.3,0c1.2-0.3,2.1-0.9,2.9-1.7
				c0.8-0.8,1.3-1.8,1.5-2.9c0.2-1.1,0.2-2.3-0.1-3.5l-2.2-8.1l-12.1,3.3l2.2,8.1C573.2,212.6,573.8,213.6,574.6,214.5z"/>
			<path class="st1" d="M348.6,87.2c-101.6,0-184.3,82.7-184.3,184.4S247,455.9,348.6,455.9s184.3-82.7,184.3-184.4
				S450.2,87.2,348.6,87.2z M381.3,167.7c13.5-1.1,16.1-14.7,8.5-20.8c-5.5-4.4-6.4-11-1.4-13.1c12.8-5.3,17.2-16.8,17.6-28.1
				c2.8,1.3,5.2,2.2,4.6,6.2c-0.5,3.3-3.5,14-9.7,19.7c0.7,0.9,1.3,0.8,2.2,2c9.9-6.4,13.3-13.9,15.2-19.9c1.8,1.7,4.2,3.9,2.9,6.7
				c-1.3,2.8-6.9,12.6-14.7,17c0.7,1,1.1,1.5,1.7,2.5c7.5-2.6,17.5-11.8,19.2-16.1c0.9,1.6,3.4,4.1,1.2,7
				c-3.4,4.5-10.3,10.3-18.2,13.6c0.2,0.7,0.8,2.4,1,3.2c11.2-2.9,18.5-7.7,22.6-11.3c1.3,3.1,1.6,4.9-0.5,6.7
				c-2.1,1.7-13.5,8.5-21.2,9.6c0.2,1.1,0.1,2.3,0.2,3.2c9.7,0.2,20.6-4.6,24.5-7.1c0.5,1.1,0.9,5.5-1.2,6.5c-2.1,1-12.6,6-23.8,5.7
				c-0.1,0.3-0.6,2.8-0.7,3.3c8.8,2.2,22.2-0.6,25.9-2c-0.2,2.8-0.1,5.2-3.7,6.2c-3.9,1.1-15.8,2.7-24,0.5c-0.3,0.7-1.1,2-1.6,2.8
				c4.1,1.9,14.3,5.3,25.7,3.4c-0.8,2-1.7,5.2-4.9,5.5c-7.4,0.6-18.8-1.8-23.8-4.8c-0.7,0.7-1.5,1.7-2.1,2.2
				c3.2,2.6,12.1,8.7,24.6,9.3c-0.9,1.8-3.1,5.1-6.7,4.4c-7.6-1.6-15.8-5.1-22-10.5c-1.5,0.8-2,1.2-2.8,1.6
				c1.2,1.6,9.2,11.3,22,15.4c-3.3,2.3-5.9,3.1-9.2,1.5c-5.1-2.5-12.5-8-17.7-14.9c-1.7,0.5-2.2,0.6-3,0.8
				c1.4,3.1,6.6,11.9,14.2,17.9c-5,1.2-7.2,0.2-9-1.6c-4.6-4.8-9.7-13-10.5-15.8c-1.6,0-2.4,0-3.7-0.1c1.2,7.3,5.2,14.9,8.4,19.2
				c-3,0.6-5.7,0.6-6.2-0.1c-3-4.1-6.5-12.3-7.4-19.3c-1.8,0.1-3,0.5-3.4,0.6c-0.2,9.3,2.7,19.1,5.2,23.7c-1.7,1.3-2.5,2.5-3.6,4
				c-2.7-4.2-6.5-14.9-6.6-25.4c-11.7,11.1,5.2,43.7,17,54.2c-2.9,1-4.5,1.9-6.4,2.4c-2-1-8.9-11.6-9.5-12.4
				c-1.7,0.4-2.1,0.4-3.3,0.8c0.7,1.6,5.6,12,7.1,13.2c-1,0.5-4.8,1.3-6.4,1.5c-11.7-35.3-38.1-61.3-17.4-86
				c0.2-0.2,0.4-0.4,0.6-0.7c-0.1,0-0.2-0.1-0.3-0.1c-2.3-0.6-7.5-2.1-8.9-2.5c1.4-0.6,7.3-12.3,6.6-16.6c-0.2-1.3-4.5-8.2-8.2-5.8
				c-0.2,0.1,1-5.8,4.5-6.1c2.1-0.2,4,1.7,5.3,1.9c1.2,0.1,0.8-0.5,0.9-1.2c0.3-0.2,0.5,0,0.7,0c17.6,4.9,14.9,19.7,16.5,24.8
				c-5.6-0.1-8,2.2-9.1,4c0.1,0.6,0.1,1.1,0.1,1.1C367.5,158.3,370.1,168.5,381.3,167.7z M386.6,265.1c-1.2,0-4.5,0-5.4,0
				c0-0.5-3.1-7.7-3.4-8.2c1.5-0.2,5.8,0.4,6.4,1.5C384.9,259.6,386.4,264,386.6,265.1z M376.7,265.2c-0.7,0-4.1,0.1-5.2,0
				c-0.2-0.7-2.5-6.9-4.1-9.7c0.8-0.1,5.6-0.5,6.4,1.6C374.5,258.8,376.5,263.6,376.7,265.2z M357.4,249.6c2.4-0.3,5.4-0.8,6.2-0.9
				c0.7,1.4,1.8,7.4,1.9,8.2c-1.9,1.6-5.3,8.2-5.6,8.2C360.4,260.9,358.1,251.1,357.4,249.6z M345.4,235.3c-0.3,1.3-1,13.6-1.5,14.5
				c-1.1-0.1-4.1-0.3-5.6-0.5c1.6-6.9,7.6-26.1,7.6-26.1s8.9,17.1,11.4,26.3c-1.2,0.1-5.3,0.4-5.9,0.4c-0.1-0.7-2.4-13.8-2.2-14.6
				C347.8,235.4,346.2,235.3,345.4,235.3z M323.3,253.8c0.8-0.7,5.3-0.2,6,0.3c-1.5,2-5.2,7.7-5.4,9.2c-1.6-1-3.6-2.6-4.3-3.2
				C320,259.3,322.5,254.6,323.3,253.8z M316.1,257.9c-0.8-0.5-3.8-2.2-4.2-2.6c0.5-0.6,1.1-1.7,1.9-2.6c0.5-0.5,4.3-0.4,6.3,0.4
				C318.9,254,316.9,256.8,316.1,257.9z M327,247.1c0.7-0.4,5.2-12,5.9-13.5c-1.4-0.3-2.2-0.7-3-0.9c-0.6,0.9-7,11-9,12.5
				c-1.7-0.6-3.9-1.3-6-2.3c1.4-0.4,20.6-25.3,19.7-45.2c0.9,2.7,7.5,18.1,7.5,18.1s-9.5,29.6-9.9,32.4
				C330.2,247.9,328.2,247.4,327,247.1z M331.9,248.4c0.1,0,0.2,0,0.3,0.1c0,0,0,0,0-0.1c0.6,0.1,4,0.5,6.1,0.9
				c-0.7,2.6-2.6,10.1-3.2,16c0-0.1-0.1-0.4-0.3-0.8c0,0.2-0.1,0.5-0.1,0.8c-0.2-0.9-3.9-9.2-4.6-9.9
				C330.3,254.6,331.6,248.9,331.9,248.4z M340.3,117.9c-1.8,1.1-3.8,1.9-5.8,2.5c-0.7-4.2-4-7-4.8-9.7c0.4-0.1,0.8-0.2,1.2-0.3
				C333.2,113.8,338.4,114.2,340.3,117.9z M335.9,108.2c0.2-0.2,0.8-0.6,1.1-0.8c3.7,2.2,8.8,1.3,11.5,2.9c-1.2,1.7-2.6,3.2-4.1,4.6
				C341.7,110.9,338.3,110.2,335.9,108.2z M357.6,116.5l-2.5,0.9c0,0,1.3,3.8,1.7,6.3c-3.5,2.3,2.3,5.2,2,0.8
				c0.6-0.3,4.7-1.7,4.7-1.7l0.1-2l2-0.5v2l-2.1,0.5c0,0,0.1,3.7,0.1,5.3c-3.9,1.6,1,5.5,1.7,1.3c0.6,0,6.1-0.3,6.1-0.3l-0.2-2.8
				c0,0,2.6-0.1,2.7-0.1c0.1,0-7.7,9.1-9.6,11.2c-4.3-7.3-13.1-10.1-13.5-10.3c0.5-1,5.8-13.2,5.8-13.2L357.6,116.5z M342.7,95.5
				c1.8-0.1,3.5-0.1,5.3-0.1s3.5,0,5.2,0.1c0,0.1,0,0.1,0,0.2c-4,0.2-8.8,1.8-10.7,1.8C342.6,96.8,342.7,96.1,342.7,95.5z
				 M340.9,102.7c3.7,0,7.6-1.9,11.8-1.9c-0.4,1.9-1,3.7-1.8,5.4c-4.5-2.6-8.4-1.6-10.7-2.4C340.5,103.4,340.7,103,340.9,102.7z
				 M337.7,95.7c-0.2,5.7-4.8,10.2-10.5,10.2c-4.9,0-8.9-3.3-10.1-7.8C323.8,96.9,330.7,96.1,337.7,95.7z M323,110.2
				c0.6,0.2,1,0.3,1.6,0.5c1.1,5.2,4.7,7.4,5,10.6c-0.8,0.1-1.6,0.1-2.4,0.1c-1.5,0-2.9-0.1-4.3-0.4
				C324.3,117,323.1,113.5,323,110.2z M317.9,107.8c-0.8,4.4,1.5,8.8,0.3,12c-2.1-0.8-4-1.8-5.8-3c3-2.9,3.1-7.3,4.6-9.8
				C317.2,107.3,317.5,107.5,317.9,107.8z M313.7,103c-3.5,4.5-2.6,8.4-5.1,10.4c0,0-0.1,0-0.1,0.1c-1.5-1.5-2.8-3.3-3.9-5.1
				c4-1.5,5.7-4.9,8.6-6.3C313.4,102.3,313.5,102.7,313.7,103z M307.4,100.2c-1,1-2.9,3.1-4.8,3.6c-0.3-0.7-0.5-1.5-0.7-2.3
				C303.7,101.1,305.5,100.6,307.4,100.2z M259,148.8c3.9,2.5,14.8,7.3,24.5,7.1c0-0.9,0-2.1,0.2-3.2c-7.7-1.1-19.2-7.9-21.2-9.6
				c-2.1-1.7-1.8-3.5-0.5-6.7c4.1,3.5,11.4,8.3,22.6,11.3c0.2-0.8,0.8-2.5,1-3.2c-7.9-3.3-14.9-9.1-18.2-13.6
				c-2.2-2.9,0.3-5.5,1.2-7c1.7,4.3,11.7,13.5,19.2,16.1c0.6-1,1-1.5,1.7-2.5c-7.8-4.4-13.4-14.2-14.7-17s1.1-5.1,2.9-6.7
				c1.8,6,5.3,13.5,15.2,19.9c1-1.2,1.6-1.1,2.2-2c-6.3-5.7-9.2-16.4-9.7-19.7c-0.6-3.9,1.8-4.9,4.6-6.2
				c0.4,11.3,4.8,22.7,17.6,28.1c5,2.1,4.2,8.7-1.4,13.1c-7.7,6.1-5,19.7,8.5,20.8c7,0.6,11.9-5.7,22.7-8.3c-1.3,1.3-2,2.8-4.2,5
				c0.8,0.3,2.2,0.9,3.5,0.9c-6.5,11.2-4.1,23.2-3.5,26.1c-0.9-2-1.8-2.5-2.5-2.6c-0.1,10.5-3.9,21.2-6.6,25.4
				c-1.1-1.5-1.9-2.7-3.6-4c2.5-4.6,5.4-14.4,5.2-23.7c-0.4-0.1-1.6-0.5-3.4-0.6c-0.9,7-4.4,15.2-7.4,19.3c-0.5,0.7-3.2,0.7-6.2,0.1
				c3.1-4.4,7.2-12,8.4-19.2c-1.3,0.1-2.1,0.1-3.7,0.1c-0.8,2.7-5.9,10.9-10.5,15.8c-1.8,1.9-4.1,2.8-9,1.6
				c7.6-6,12.8-14.8,14.2-17.9c-0.8-0.2-1.4-0.3-3-0.8c-5.2,6.9-12.6,12.4-17.7,14.9c-3.3,1.6-5.9,0.8-9.2-1.5
				c12.8-4.1,20.8-13.8,22-15.4c-0.9-0.4-1.4-0.8-2.8-1.6c-6.2,5.4-14.4,8.8-22,10.5c-3.6,0.8-5.9-2.5-6.7-4.4
				c12.5-0.6,21.4-6.8,24.6-9.3c-0.6-0.5-1.5-1.4-2.1-2.2c-5,3-16.4,5.3-23.8,4.8c-3.3-0.2-4.1-3.5-4.9-5.5
				c11.4,1.8,21.6-1.5,25.7-3.4c-0.5-0.9-1.2-2.1-1.6-2.8c-8.3,2.2-20.2,0.6-24-0.5c-3.7-1-3.6-3.4-3.7-6.2c3.7,1.4,17.2,4.1,25.9,2
				c-0.1-0.5-0.7-3-0.7-3.3c-11.2,0.2-21.7-4.7-23.8-5.7S258.5,149.9,259,148.8z M251.3,202.9c5.8-0.6,23.7,0.3,22.1,16.5
				c-7.1,2.9-9.5,4.1-9.5,4.1c4.3-14.1-6.5-18.3-13.3-19C248.1,204.3,248.4,203.2,251.3,202.9z M260.4,232.3
				c4.8-3.4,21.4-9.8,27.7-11.5c3.3-0.9,7.9-3.4,11.2-4.3c2.1-0.6,4.2,0.1,5.3,1.3c0.3,0.4,0,1.6,0.5,2s6.8,4.8,6.5,6.5
				c-0.7,3.9-1.7,4.2-2.5,5.7c-1.9,3.7-3.5,7.9-7.1,14.3c-9,26.5-24.7,11.8-28.5,7c-2.3,3.7-7.2,19.6-10.2,25
				c10.2-3.2,11.5-10.6,11.6-14.9c1.3,1.3,8.5,5.6,15.6,4.3c-4.4,6-26.9,22.9-13.8,48.4c0.3-7.5-0.5-13.6,3.2-24.8
				c4-12.1,20.4-19.7,23.9-33.3c0,0,0.9,0.3,2.8,0.9c6.3,2.2,15.2,11.5,17.9,11.8c3.5,0.4,78.4,0.2,84.1,0.3
				c6.8,0.1,18.6-6.7,31.5-1.4c37.9,15.5,32.5,67,1.5,76.9c1.9-3.4,3.5-6.6,4.4-9c-6.2,4-7.8,3.3-12.9,5.3c-1.3,0.5-3,2.6-2.4,6.1
				c0.7,4.2,1.9,8.6-0.5,11.8c-1.9,2.4-37.9-0.9-41.1,1.1c-4.4,2.7-5.7,5-12.6,5c0.5-1.2,0.8-4.2-2.3-3.9c-5.6,0.5-2.1,8.6-6.7,10.3
				c-1.1,0.4-1.9,0-2.5,0.2c-2.3,0.9-2.5,3.7-2.7,5.5c-1.4,0.1-20.6,0.2-22.7,0c2.2-6.5,6.6-10.3,7.8-10.8c-0.9-0.3-1.5,0-1.7-1.6
				c6.3-0.8,6.3-4.3,10-6.8c2.2-1.5,5.1-3,8.3-5c2.9-1.8,7.9-4.6,10.6-6.2c-31.2-3.9-28.7-26.3-22.8-39.3
				c11.5-1.8,12.2-14.9,11.4-17.9c-0.8-3.1-1.2-8.2-1.2-14.3c-4.9,13.6-9.5,13.3-16.7,30.5c-8.3,19.8-0.9,34.9,9,40.9l-17,0.1
				c0.8-14.2-3.1-17.3-5-20.4c-2.2-3.4,0.2-24.8-3.2-29.7c-1.3-1.9-8-5.1-10.5-5.1c10.1,8.6,4.1,27.5,7.9,36.8
				c1.6,4,5.5,5.1,4.8,18.1c-4.2,0.4-47.6,0.4-49.9,0.5c3.8-3.2-2.3-8.9-6.7,0c-0.9,1.8-1.4,2.4-3.9,4.2c-2.3-0.2-19.4,0.2-21.4,0
				c0.4-2.6,6.3-8.1,9.1-9.8c-0.6-0.6-2.3,0.2-1.9-1.8c0.9,0,2.5-0.3,4.9-1.6s2.3-4.4,9.6-5.4c-8.3-3.3-13.8-16.1-15.2-24.4
				c-3.7-5.7-12.8-20.4-12.1-33.8c17.2,0.2,21.7-18.7,23.7-23.9c2-4.9-5.5-11-8.8-2.2c-2.4,6.4-6.5,17.3-14,18.3
				C245.1,264.9,258.6,239.4,260.4,232.3z M474.3,371.2c-2.9-0.7-5.2-0.8-7.6-0.5c-1.8-2.7-12.2-19.9-13.9-22.6
				c1.6-0.9,4.9-3.6,4.9-3.6C459.6,347.2,472.6,368.7,474.3,371.2z M337,349c0,0-2.2,27.1-2.2,29c-1.8-1.7-3.8-2.6-5.9-3.1
				c0.2-2.3,2-25.9,2-25.9H337z M285.9,372.4c-4.2,1.7-10.8,1.1-12.2-0.1c1.6-1.5,5-4.6,4.7-5.8c-2.3-0.3-7.7,1.7-9,2.2
				c-1.3-2.8,0.1-6.3,3-8.5c2.5,1.2,5.9,2.5,7.5,2.2c0.8-2.1-0.2-4.9-0.4-5.9c1.2-0.6,9-1.4,11.4,0.2c-1.1,1-4.5,3.9-4.6,5.8
				c1.9,0,6.4-1.1,8.8-2.2c1.6,2.6,0.1,6.3-2.8,8.6c-2-1.2-5.8-2.2-7.8-2.1C284.3,368.8,285,370.7,285.9,372.4z M224.2,264.3
				c0.3-0.3,0.8-0.5,1.2-0.4c3.5,1.5,12,4.6,19.1,4.8c-0.8,2.5-1.2,6.1-1.1,7.8C234.6,275.2,221.9,266.3,224.2,264.3z M201.6,341.7
				c1.7-6.4,9.2-9.9,8.3-10.2c-0.8,0-1.8,0.2-1.9-1.1c2.3-0.1,5.1-3.3,7.2-4.7c2.5-1.6,8.3-2.5,11.8-3.5s15.6-8.4,22.9-9.2
				c-0.2,3.4,5.3,16,8.3,19c-5.3,2.1-22.5,2.1-24.1,2.3c2.3-2.7-2.7-7-6.2,0.1c-1,2-1.1,4.2-4.1,7.3
				C220.9,341.8,206.3,341.6,201.6,341.7z M400,428.6c-7.9,0-101.2,0-101.2,0v-18h-6.3l2.6-11.8c-29.9,0-70.6,0-70.6,0v-18h-7.2
				l24.6-40.3c2.9-0.2,3.7-0.2,7.5-0.4c-2.9,4.7-25.1,40.9-24.8,40.7c0,0,91.5,0,100.5,0c11.8,0,11.4,18,0.7,18
				c-2.3,0-11.9,0-24.3,0l-2.6,11.8c0,0,91.5,0,100.5,0C411.1,410.5,410.7,428.6,400,428.6z M473,394.5c-4.9,0-42.6,0-70.6,0
				c0.3,1.3,2.2,9.1,2.6,11.1c-2.2-0.9-5.1-1.2-6.6-1.3c-0.5-2.2-2.1-8.8-2.3-9.8c-14.1,0-24.4,0-24.4,0v-18c0,0,91.5,0,100.5,0
				C484.1,376.5,483.7,394.5,473,394.5z"/>
			<path class="st1" d="M326.4,490.6l-11.7,13.3c-0.3,0.3-0.6,0.6-1,0.9c-0.4,0.3-0.8,0.4-1.1,0.5l13.1,1.4l2-18.3
				c-0.1,0.4-0.3,0.7-0.5,1.1C326.9,490,326.6,490.4,326.4,490.6z"/>
			<path class="st1" d="M348.6,0C198.7,0,77.2,121.6,77.2,271.6s121.5,271.6,271.4,271.6S620,421.6,620,271.6S498.6,0,348.6,0z
				 M598.1,241.3l-41.8,5.6l-0.9-6.6l41.8-5.6L598.1,241.3z M591.4,206.7c0.6,2.3,0.7,4.6,0.1,6.8c-0.5,2.2-1.6,4.1-3.2,5.8
				c-1.6,1.6-3.5,2.8-5.8,3.4c-2,0.6-4,0.6-6,0c-1.9-0.5-3.6-1.4-5-2.6s-2.3-2.6-2.7-4l-0.3-0.8l0,0c0.1,0.9,0.1,1.6,0,2.2
				s-0.4,1.2-0.9,1.7L555.2,235l-1.4-5c-0.2-0.9-0.3-1.7-0.2-2.4c0.1-0.8,0.5-1.5,1.1-2.3l11.1-14.2l-1.6-5.9l-16,4.4l-1.8-6.4
				l40.7-11.1L591.4,206.7z M569.6,151.5l-23.1,11.3c-1.8,0.9-3.3,2.1-4.3,3.6s-1.6,3.1-1.7,4.9c-0.1,1.8,0.3,3.6,1.2,5.5
				s2.1,3.3,3.6,4.4c1.5,1,3.1,1.6,4.9,1.7c1.8,0.1,3.6-0.3,5.4-1.2l23.1-11.3l2.9,6l-23.1,11.3c-3,1.5-6,2.1-8.9,2
				s-5.6-1.1-8.1-2.8c-2.4-1.7-4.4-4.1-5.9-7.1s-2.2-6-2-9c0.1-3,1.1-5.6,2.7-8c1.7-2.4,4-4.4,7-5.8l23.1-11.3L569.6,151.5z
				 M548.3,119l3.5,4.7l-22.8,40l-2.7-3.6c-0.5-0.7-0.8-1.4-0.9-2.3c-0.1-0.8,0.1-1.6,0.6-2.3l3.6-6.3L517.5,133l-7.1,1.7
				c-0.8,0.2-1.6,0.2-2.4-0.1c-0.8-0.3-1.4-0.8-1.9-1.5l-2.7-3.6L548.3,119z M509.7,86.6l4.6-4.6l22.9,22.8l-4.6,4.6l-9.1-9
				l-25.1,25.3l-4.7-4.7l25.2-25.3L509.7,86.6z M450.4,41.8l-16.6,38.8l-6.1-2.6l16.6-38.8L450.4,41.8z M424.2,32l6.3,2.1
				l-13.2,40.1l-6.3-2.1L424.2,32z M374.1,21.1l16.2,2.8c3.8,0.7,7.2,2.2,10.1,4.6c2.9,2.4,5,5.3,6.3,8.8s1.6,7.2,1,11
				c-0.7,3.8-2.2,7.2-4.6,10c-2.4,2.9-5.4,4.9-8.9,6.2c-3.5,1.3-7.2,1.6-11,1L367,62.7L374.1,21.1z M329.6,20.9l0.9,25.7
				c0.1,2,0.6,3.8,1.5,5.4c0.9,1.5,2.2,2.7,3.8,3.5s3.4,1.2,5.5,1.1s3.9-0.6,5.5-1.5s2.7-2.2,3.5-3.8c0.8-1.6,1.2-3.4,1.1-5.5
				l-0.9-25.7l6.7-0.2l0.9,25.7c0.1,3.3-0.5,6.3-1.8,8.9s-3.3,4.7-5.8,6.2s-5.5,2.3-8.9,2.4s-6.4-0.5-9-1.8s-4.7-3.3-6.2-5.8
				s-2.3-5.5-2.4-8.8L323.1,21L329.6,20.9z M311.5,22.6l1.4,6.4l-12.5,2.7l7.5,34.9l-6.5,1.4l-7.5-34.9l-12.5,2.7l-1.4-6.4
				L311.5,22.6z M250,45.7c0.4-2,1.3-3.8,2.8-5.4s3.4-2.8,5.7-3.7c1.9-0.7,3.9-1.1,6.1-1.1c2.2,0,4.2,0.4,5.9,1.3l-0.4,2.4
				c-0.1,0.7-0.4,1.3-0.7,1.9c-0.4,0.5-0.9,0.9-1.4,1.1s-1,0.3-1.5,0.2c-1-0.2-2-0.3-3.1-0.2c-1,0.1-1.9,0.3-2.6,0.6
				c-1.7,0.7-2.9,1.6-3.7,2.8c-0.7,1.2-0.9,2.6-0.3,3.9c0.4,1.1,1.3,1.9,2.7,2.3s3.4,0.6,6,0.5c4.4-0.3,8,0.3,10.7,1.6
				c2.7,1.3,4.6,3.4,5.7,6.3c0.9,2.3,1.1,4.6,0.7,6.9c-0.4,2.3-1.5,4.3-3.2,6.1c-1.7,1.8-3.8,3.2-6.5,4.2c-2.4,0.9-5,1.3-7.6,1
				c-2.6-0.2-5.1-0.9-7.4-2.1l0.5-2.8c0.1-0.5,0.3-0.9,0.7-1.3c0.3-0.4,0.8-0.7,1.3-0.9c0.7-0.3,1.4-0.3,2.2-0.1
				c1.4,0.3,2.9,0.5,4.5,0.6c1.6,0,2.8-0.1,3.8-0.5c2.2-0.8,3.7-2,4.6-3.5c0.9-1.5,1-3.2,0.3-5.1c-0.5-1.3-1.5-2.2-3-2.8
				c-1.5-0.6-3.7-0.9-6.6-0.9c-4.3,0.1-7.7-0.4-10.2-1.6c-2.5-1.1-4.2-2.9-5.2-5.4C249.8,49.7,249.6,47.7,250,45.7z M168.6,97.6
				c0.7-2,2-3.9,3.7-5.7c1.4-1.4,3.2-2.6,5.2-3.4c2-0.9,4-1.3,6-1.2l0.6,2.3c0.2,0.7,0.2,1.4,0.1,2c-0.2,0.6-0.4,1.2-0.9,1.6
				c-0.4,0.4-0.8,0.6-1.3,0.8c-1,0.2-2,0.5-2.9,1s-1.6,1-2.2,1.6c-1.3,1.3-2,2.6-2.2,4s0.2,2.7,1.3,3.7c0.8,0.8,2,1.2,3.4,1.1
				s3.3-0.8,5.7-1.9c3.9-2,7.4-2.9,10.4-2.8s5.6,1.3,7.8,3.5c1.8,1.8,2.9,3.8,3.4,6.1c0.5,2.3,0.3,4.5-0.5,6.9
				c-0.8,2.3-2.2,4.5-4.3,6.5c-1.9,1.8-4,3.1-6.6,4c-2.5,0.8-5.1,1.2-7.6,1.1L187,126c-0.1-0.5-0.1-1,0.1-1.5
				c0.2-0.5,0.4-0.9,0.8-1.3c0.5-0.5,1.2-0.9,1.9-1c1.4-0.2,2.9-0.7,4.3-1.2c1.5-0.6,2.6-1.2,3.3-2c1.7-1.6,2.6-3.3,2.8-5.1
				c0.2-1.8-0.4-3.4-1.8-4.8c-1-1-2.3-1.5-3.9-1.4c-1.6,0.1-3.8,0.7-6.4,1.8c-3.9,1.8-7.3,2.7-10,2.6c-2.7,0-5.1-1-6.9-2.9
				c-1.6-1.6-2.6-3.4-3-5.4C167.8,101.7,167.9,99.6,168.6,97.6z M145.9,123.2l45.1,9.5l-2.6,3.7c-0.5,0.7-1.1,1.2-1.9,1.5
				c-0.8,0.3-1.6,0.4-2.4,0.2l-7.1-1.5l-11.8,16.5l3.7,6.2c0.4,0.7,0.7,1.5,0.6,2.3c0,0.8-0.3,1.6-0.8,2.3l-2.6,3.7l-23.6-39.5
				L145.9,123.2z M132.2,143l5.8,3l-5.8,11.4l31.8,16.2l-3,5.9l-31.8-16.2l-5.8,11.4l-5.8-3L132.2,143z M113.8,182.3l39.6,14.5
				l-2.3,6.3l-39.6-14.5L113.8,182.3z M103.7,213.5c0.5-2,1.3-3.8,2.6-5.7c1.2-1.8,2.7-3.2,4.4-4.2l1.7,1.6c0.5,0.5,0.9,1,1.1,1.7
				c0.2,0.6,0.2,1.2,0.1,1.8c-0.1,0.5-0.3,0.9-0.7,1.4c-0.8,0.7-1.4,1.5-1.9,2.4s-0.8,1.7-1,2.5c-0.4,1.8-0.3,3.3,0.3,4.6
				c0.6,1.3,1.6,2.1,3.1,2.5c1.1,0.3,2.3,0,3.4-0.9s2.4-2.4,3.8-4.6c2.3-3.8,4.7-6.4,7.3-7.9c2.6-1.5,5.4-1.9,8.4-1.2
				c2.4,0.6,4.5,1.7,6.1,3.3c1.6,1.6,2.7,3.7,3.3,6.1c0.5,2.4,0.5,5-0.2,7.7c-0.6,2.5-1.7,4.8-3.4,6.9c-1.7,2-3.7,3.7-5.9,5l-2.1-2
				c-0.4-0.4-0.6-0.8-0.7-1.3s-0.1-1,0-1.6c0.2-0.7,0.5-1.4,1.1-1.9c1.1-1,2.1-2.1,3-3.4s1.5-2.4,1.7-3.4c0.5-2.3,0.4-4.2-0.3-5.8
				c-0.7-1.6-2.1-2.7-4.1-3.1c-1.4-0.3-2.7,0-4.1,0.9c-1.3,0.9-2.8,2.6-4.5,5c-2.4,3.6-4.7,6.2-7.1,7.6c-2.3,1.4-4.8,1.8-7.4,1.2
				c-2.2-0.5-4-1.5-5.4-2.9c-1.4-1.5-2.4-3.2-2.9-5.3C103.1,218.2,103.1,215.9,103.7,213.5z M98,253.9c0.2-2.4,0.9-4.6,2.1-6.5
				s2.9-3.4,4.9-4.4s4.2-1.5,6.6-1.3c2.1,0.1,4,0.8,5.7,1.9c1.7,1.1,3,2.5,3.8,4.1c0.9,1.6,1.3,3.2,1.2,4.6v0.9l0,0
				c0.2-0.9,0.4-1.6,0.7-2.1c0.3-0.5,0.8-1,1.4-1.3l16.9-10.8l-0.3,5.2c-0.1,0.9-0.3,1.7-0.6,2.4c-0.4,0.7-0.9,1.3-1.8,1.8
				l-15.2,9.8l-0.4,6.1l16.5,1.1l-0.4,6.7L97,269.4L98,253.9z M97.3,284l6.5-0.7l2.1,19.8l10.8-1.2l-1.7-16.1l6.4-0.7l1.7,16.1
				l11.8-1.3l-2.1-19.8l6.5-0.7l2.8,26.5l-42,4.5L97.3,284z M112.3,358.7c-0.3-0.9-0.3-1.7-0.1-2.4c0.2-0.8,0.7-1.4,1.3-2l22.5-18.7
				c1.3-1.1,2.8-2,4.7-2.7l-0.1-0.2c-2,0.4-3.8,0.5-5.4,0.3l-29-3.5c-0.9-0.1-1.6-0.4-2.2-1c-0.6-0.5-1-1.2-1.3-2.1l-1.3-4.3
				l45.7,5.7l1.7,5.6l-35.3,29.5L112.3,358.7z M118.4,372.3l38.4-17.4l2.8,6.1l-38.4,17.4L118.4,372.3z M147.3,423l-2.8-4.4
				c-0.5-0.7-0.7-1.4-0.8-2.1c-0.1-0.7,0.1-1.4,0.4-2.3L158,381l-0.1-0.1c-0.9,1.4-2,2.6-3.3,3.4l-22.8,14.8l-3.6-5.6l35.4-23
				l2.8,4.3c0.2,0.3,0.3,0.7,0.3,1.2s-0.1,1-0.3,1.5l-15,35.6l0.1,0.1c0.9-1.2,1.9-2.3,3.2-3.1l24.4-15.8l3.6,5.6L147.3,423z
				 M205.2,434.8c-0.8,2.8-2.4,5.4-4.8,7.8l-18.3,18.1l-4.7-4.7l18.3-18.1c1.5-1.4,2.4-3,2.9-4.7s0.5-3.4,0-5.2
				c-0.5-1.7-1.5-3.3-2.9-4.8c-1.5-1.5-3.1-2.5-4.8-3s-3.5-0.5-5.2,0s-3.3,1.4-4.8,2.9l-18.3,18.1l-4.7-4.7l18.3-18.1
				c2.4-2.4,5-3.9,7.8-4.7s5.7-0.8,8.5,0.1c2.8,0.8,5.4,2.5,7.8,4.9c2.4,2.4,4,5,4.8,7.8C206.1,429.1,206.1,431.9,205.2,434.8z
				 M290.2,516.5l-6.2-1.6l8.6-32.3c-0.3,0.5-0.8,0.9-1.3,1.2l-3.1,1.8c-0.5,0.3-1,0.5-1.5,0.5c-0.5,0.1-0.9,0.1-1.4,0
				c-0.8-0.2-1.4-0.7-1.8-1.5l-1.5-2.8l12.9-7.6l6,1.6L290.2,516.5z M337.2,514.5l-5.8-0.6l-1,8.9l-6.4-0.7l1-8.9l-19.3-2.1l0.2-5.3
				c0-0.3,0.1-0.6,0.3-1s0.4-0.7,0.6-1l19.3-22.3c0.4-0.5,0.8-0.8,1.4-1.1s1-0.4,1.4-0.3l6.3,0.7l-2.9,26.7l5.8,0.6L337.2,514.5z
				 M378,512.1c-1.1,3.3-2.7,5.9-5,7.8c-2.3,1.9-5.1,2.9-8.3,3.1c-3.3,0.2-6.2-0.5-8.7-2c-2.5-1.6-4.5-3.9-5.9-7.1
				c-1.5-3.2-2.3-7-2.6-11.4c-0.3-4.5,0.1-8.3,1.2-11.7c1.1-3.3,2.7-5.9,5-7.8c2.3-1.9,5.1-2.9,8.3-3.1c3.3-0.2,6.2,0.5,8.7,2.1
				s4.5,4,6,7.1c1.5,3.2,2.3,7,2.6,11.4C379.5,504.9,379.1,508.8,378,512.1z M417.3,513.8l-6.2,1.6l-2.2-8.7l-18.9,4.7l-1.7-5
				c-0.1-0.3-0.1-0.6-0.1-1s0.1-0.8,0.2-1.1l10.4-27.5c0.2-0.6,0.5-1.1,0.9-1.5s0.8-0.7,1.2-0.8l6.1-1.5l6.5,26l5.7-1.4l1.6,6.2
				l-5.7,1.4L417.3,513.8z M348.6,462.4c-105.2,0-190.8-85.6-190.8-190.9S243.5,80.7,348.6,80.7c105.2,0,190.8,85.6,190.8,190.9
				S453.8,462.4,348.6,462.4z M525.1,449.2c-0.7,2-2,3.9-3.8,5.6c-1.5,1.4-3.2,2.5-5.3,3.3c-2,0.9-4,1.2-6,1.1l-0.6-2.3
				c-0.2-0.7-0.2-1.4,0-2s0.5-1.2,0.9-1.6c0.4-0.4,0.8-0.6,1.3-0.8c1-0.2,2-0.5,2.9-1s1.7-1,2.2-1.5c1.3-1.2,2.1-2.6,2.3-4
				c0.2-1.4-0.2-2.7-1.2-3.8c-0.8-0.9-1.9-1.2-3.4-1.1c-1.4,0.1-3.3,0.7-5.7,1.8c-4,1.9-7.5,2.8-10.5,2.6s-5.6-1.4-7.7-3.6
				c-1.7-1.8-2.8-3.9-3.2-6.1c-0.4-2.3-0.2-4.5,0.6-6.8c0.9-2.3,2.3-4.4,4.4-6.4c1.9-1.8,4.1-3.1,6.6-3.8c2.5-0.8,5.1-1.1,7.7-0.9
				l0.7,2.8c0.1,0.5,0.1,1-0.1,1.5c-0.2,0.5-0.5,0.9-0.9,1.3c-0.6,0.5-1.2,0.8-2,1c-1.4,0.2-2.9,0.6-4.3,1.2
				c-1.5,0.6-2.6,1.2-3.3,1.9c-1.7,1.6-2.7,3.3-2.9,5c-0.3,1.8,0.3,3.4,1.7,4.8c1,1,2.3,1.5,3.9,1.5c1.6,0,3.8-0.6,6.4-1.7
				c4-1.7,7.3-2.5,10.1-2.4c2.7,0.1,5,1.1,6.9,3c1.5,1.6,2.5,3.4,2.9,5.4C526,445.2,525.8,447.2,525.1,449.2z M539.3,435.1l-32.4-27
				l4.3-5.1l32.4,27L539.3,435.1z M561.9,402.9c-0.3,2.1-1.1,4.3-2.4,6.4c-1.1,1.7-2.5,3.2-4.3,4.5c-1.8,1.3-3.7,2.1-5.6,2.4
				l-1.1-2.1c-0.3-0.6-0.5-1.3-0.5-1.9c0-0.6,0.2-1.2,0.5-1.7c0.3-0.4,0.6-0.8,1.1-1c1-0.4,1.8-1,2.6-1.6c0.8-0.7,1.4-1.4,1.8-2
				c1-1.5,1.4-3,1.3-4.4c-0.1-1.4-0.8-2.6-2.1-3.4c-1-0.6-2.2-0.7-3.5-0.3c-1.4,0.4-3.1,1.5-5.2,3c-3.4,2.8-6.6,4.5-9.6,5
				s-5.7,0-8.3-1.7c-2.1-1.4-3.6-3.1-4.6-5.2c-1-2.1-1.3-4.4-1-6.8c0.3-2.4,1.2-4.8,2.8-7.2c1.4-2.2,3.3-3.9,5.6-5.3
				c2.3-1.4,4.7-2.2,7.2-2.7l1.3,2.6c0.2,0.5,0.3,1,0.2,1.5s-0.2,1-0.5,1.5c-0.4,0.6-1,1.1-1.7,1.4c-1.3,0.5-2.7,1.3-4,2.1
				c-1.3,0.9-2.2,1.8-2.8,2.6c-1.3,1.9-1.8,3.8-1.7,5.6s1.1,3.2,2.8,4.3c1.2,0.8,2.5,0.9,4.1,0.5s3.5-1.5,5.9-3.1
				c3.5-2.6,6.5-4.2,9.2-4.7c2.7-0.5,5.2-0.1,7.4,1.4c1.9,1.2,3.2,2.7,4.1,4.6C561.8,398.7,562.1,400.7,561.9,402.9z M585.4,356.6
				c-0.3,0.8-0.8,1.4-1.3,1.9c-0.5,0.4-1.2,0.8-2.1,1l-35.3,7.3v0.1c1.7-0.1,3.3,0.2,4.7,0.8l25.1,10.4l-2.5,6.1L535,368l1.9-4.7
				c0.2-0.4,0.4-0.7,0.8-1s0.9-0.5,1.4-0.6l37.9-7.8l0.1-0.1c-1.5,0-3-0.3-4.4-0.9l-26.9-11.2l2.5-6.1l39,16.2L585.4,356.6z
				 M591.7,336.9l-6.4-1.3l4-19.5l-10.7-2.2l-3.3,15.9l-6.3-1.3l3.3-15.9l-11.6-2.4l-4,19.5l-6.4-1.3l5.4-26.1l41.3,8.6L591.7,336.9
				z M572.5,286l27.2,0.4l-0.1,6.6l-42.2-0.7l0.1-5.1c0-0.4,0.1-0.8,0.4-1.2s0.6-0.8,1.1-1.1l32.3-21.2v-0.1
				c-1.4,0.5-2.9,0.8-4.4,0.8l-29.1-0.5l0.1-6.6l42.2,0.7l-0.1,5.2c0,0.9-0.2,1.6-0.5,2.2c-0.3,0.6-0.9,1.2-1.6,1.7l-30.1,19.8v0.1
				C569.3,286.3,570.9,285.9,572.5,286z"/>
		</g>
		<path class="st1" d="M348.8,135.4c-0.6-0.1-2.1,0.3-1.2,0.9c0.7,0.5,1.4,2.7,2.7,2.9c0.7,0.1,0.2-0.8,0.7-0.9c0.5,0,1.2,1.5,1.7,1
			C353.3,138.6,351,135.8,348.8,135.4z"/>
		<path class="st1" d="M300.9,229.2c0.6-1.3-0.3-1.6-0.5-2.4s0.3-1.3-0.7-1.7c-0.8-0.3-1.9,1.5-1.8,3.5
			C298,230.1,300.2,230.8,300.9,229.2z"/>
		<path class="st1" d="M283.6,246.5c0.5-1.3,0.2-3.2,0.3-4c0.3-2,1.7-4.1,0.6-4.7c-1.2-0.5-1.4,2-2.6,3.1c-1,1-5.5,4.4-2.9,7.5
			C280,249.5,282.8,248.3,283.6,246.5z"/>
		<path class="st1" d="M401.8,329.8c-3.3-4.5-13.8-22.8-10.3-34.2c2.9-9.6,18.4-11.2,28.9-8.8c-14.7-9-33.5-4.1-35.7,9.6
			c-1.9,11.4,5.1,26.5,8.6,31.8C395.9,329,399.6,329.3,401.8,329.8z"/>
		<path class="st1" d="M298.9,335c7-0.4,10.3-5.2,16.6-7.1c-7.3,0.9-18.9,0.9-21.3,1.3c-2,0.4-12,4.3-15.6,5.7
			C281.9,334.7,296.2,335.1,298.9,335z"/>
		<path class="st1" d="M299.7,322.5c-0.7-3.5-1.1-4.8-1.7-7.1c-14.6-6.8-10-28.9,3.4-31.7C275.4,283.9,278.9,320.8,299.7,322.5z"/>
		<path class="st1" d="M390.4,349c4.2-0.3,10.9-2.9,13.3-5.7c-4.5,0.1-16.7-0.6-18-0.1c-4.2,1.1-7,2.9-11.6,5.6
			C376,348.5,384.6,349.4,390.4,349z"/>
		<path class="st1" d="M434.9,274.8c-0.4-0.1-2.2,0.8-0.9,2.5c14.4,18.3,16.5,48,11.8,60.3C470,319.9,462.8,281.7,434.9,274.8z"/>
	</g>
</g>
</svg>
