<?xml version="1.0" encoding="UTF-8"?>
<svg width="605px" height="231px" viewBox="0 0 605 231" version="1.1" xmlns="http://www.w3.org/2000/svg" xmlns:xlink="http://www.w3.org/1999/xlink">
    <title>LOGO UNITO_ORIZZONTALE_COLORE</title>
    <g id="Page-1" stroke="none" stroke-width="1" fill="none" fill-rule="evenodd">
        <g id="Artboard" transform="translate(-10.000000, -32.000000)">
            <g id="LOGO-UNITO_ORIZZONTALE_COLORE" transform="translate(10.000000, 32.000000)">
                <path d="M286.25,161.909 C288.617,160.491 290.488,158.553 291.86,156.094 C293.232,153.635 293.919,150.93 293.919,147.979 C293.919,145.028 293.232,142.324 291.86,139.865 C290.488,137.406 288.617,135.462 286.25,134.032 C283.883,132.603 281.269,131.888 278.41,131.888 L267.98,131.888 L267.98,164.037 L278.41,164.037 C281.269,164.037 283.883,163.328 286.25,161.909 Z M258.716,123.345 L278.41,123.345 C282.962,123.345 287.131,124.436 290.916,126.621 C294.702,128.806 297.693,131.779 299.888,135.542 C302.085,139.305 303.182,143.45 303.182,147.979 C303.182,152.509 302.085,156.654 299.888,160.417 C297.693,164.18 294.702,167.147 290.916,169.32 C287.131,171.494 282.962,172.58 278.41,172.58 L258.716,172.58 L258.716,123.345 L258.716,123.345 Z" id="Fill-1" fill="#464B4C"></path>
                <polygon id="Fill-2" fill="#464B4C" points="310.353 172.58 319.616 172.58 319.616 123.379 310.353 123.379"></polygon>
                <polyline id="Fill-3" fill="#D8223A" points="350.221 123.345 388.203 123.345 388.203 132.196 373.862 132.196 373.862 172.58 364.597 172.58 364.597 132.196 350.221 132.196 350.221 123.345"></polyline>
                <path d="M398.512,156.231 C399.942,158.713 401.892,160.669 404.363,162.099 C406.833,163.528 409.566,164.242 412.563,164.242 C415.582,164.242 418.326,163.528 420.797,162.099 C423.268,160.669 425.211,158.713 426.63,156.231 C428.048,153.749 428.757,150.999 428.757,147.979 C428.757,144.937 428.048,142.176 426.63,139.693 C425.211,137.212 423.268,135.256 420.797,133.826 C418.326,132.396 415.582,131.682 412.563,131.682 C409.566,131.682 406.833,132.396 404.363,133.826 C401.892,135.256 399.942,137.218 398.512,139.711 C397.082,142.204 396.368,144.96 396.368,147.979 C396.368,150.999 397.082,153.749 398.512,156.231 Z M390.449,135.13 C392.68,131.276 395.734,128.239 399.611,126.02 C403.488,123.802 407.793,122.692 412.529,122.692 C417.263,122.692 421.574,123.802 425.463,126.02 C429.352,128.239 432.416,131.276 434.658,135.13 C436.901,138.984 438.021,143.268 438.021,147.979 C438.021,152.669 436.901,156.94 434.658,160.794 C432.416,164.649 429.352,167.686 425.463,169.904 C421.574,172.123 417.263,173.232 412.529,173.232 C407.793,173.232 403.488,172.123 399.611,169.904 C395.734,167.686 392.68,164.649 390.449,160.794 C388.219,156.94 387.104,152.669 387.104,147.979 C387.104,143.268 388.219,138.984 390.449,135.13 L390.449,135.13 Z" id="Fill-4" fill="#D8223A"></path>
                <path d="M453.323,145.303 L462.108,145.303 C463.388,145.303 464.555,145.018 465.608,144.445 C466.659,143.874 467.494,143.09 468.112,142.095 C468.73,141.1 469.038,139.997 469.038,138.784 C469.038,137.526 468.73,136.405 468.112,135.422 C467.494,134.438 466.654,133.672 465.59,133.123 C464.527,132.574 463.343,132.3 462.039,132.3 L453.323,132.3 L453.323,145.303 Z M444.06,172.58 L444.06,123.345 L462.485,123.345 C465.436,123.345 468.112,124.002 470.514,125.317 C472.915,126.633 474.814,128.469 476.209,130.824 C477.604,133.181 478.302,135.833 478.302,138.784 C478.302,141.209 477.713,143.411 476.535,145.389 C475.357,147.367 473.87,148.923 472.074,150.055 C470.279,151.187 468.512,151.766 466.774,151.788 L465.676,151.822 L465.676,151.891 C466.934,151.982 467.975,152.251 468.798,152.697 C469.621,153.144 470.319,153.79 470.891,154.636 L483.689,172.58 L476.037,172.58 C474.94,172.58 473.967,172.38 473.121,171.979 C472.275,171.58 471.496,170.83 470.788,169.732 L459.74,154.258 L453.323,154.258 L453.323,172.58 L444.06,172.58 L444.06,172.58 Z" id="Fill-5" fill="#464B4C"></path>
                <polygon id="Fill-6" fill="#464B4C" points="487.223 172.58 496.487 172.58 496.487 123.379 487.223 123.379"></polygon>
                <path d="M547.746,123.345 L547.746,172.58 L540.816,172.58 C539.626,172.58 538.563,171.894 537.625,170.521 L514.122,135.971 L513.95,135.971 C514.705,137.847 515.082,139.848 515.082,141.975 L515.048,172.58 L505.819,172.58 L505.819,123.345 L513.161,123.345 C514.259,123.345 515.168,123.556 515.889,123.979 C516.61,124.402 517.335,125.141 518.068,126.192 L539.718,158.066 L539.855,158.066 C538.963,156.008 538.517,153.893 538.517,151.719 L538.551,123.345 L547.746,123.345" id="Fill-7" fill="#464B4C"></path>
                <path d="M565.193,156.231 C566.622,158.713 568.573,160.669 571.043,162.099 C573.514,163.528 576.246,164.242 579.243,164.242 C582.263,164.242 585.007,163.528 587.478,162.099 C589.948,160.669 591.892,158.713 593.311,156.231 C594.729,153.749 595.438,150.999 595.438,147.979 C595.438,144.937 594.729,142.176 593.311,139.693 C591.892,137.212 589.948,135.256 587.478,133.826 C585.007,132.396 582.263,131.682 579.243,131.682 C576.246,131.682 573.514,132.396 571.043,133.826 C568.573,135.256 566.622,137.218 565.193,139.711 C563.763,142.204 563.049,144.96 563.049,147.979 C563.049,150.999 563.763,153.749 565.193,156.231 Z M557.13,135.13 C559.361,131.276 562.414,128.239 566.291,126.02 C570.168,123.802 574.474,122.692 579.209,122.692 C583.944,122.692 588.255,123.802 592.144,126.02 C596.032,128.239 599.097,131.276 601.339,135.13 C603.581,138.984 604.701,143.268 604.701,147.979 C604.701,152.669 603.581,156.94 601.339,160.794 C599.097,164.649 596.032,167.686 592.144,169.904 C588.255,172.123 583.944,173.232 579.209,173.232 C574.474,173.232 570.168,172.123 566.291,169.904 C562.414,167.686 559.361,164.649 557.13,160.794 C554.9,156.94 553.784,152.669 553.784,147.979 C553.784,143.268 554.9,138.984 557.13,135.13 L557.13,135.13 Z" id="Fill-8" fill="#464B4C"></path>
                <path d="M268.402,89.711 C269.227,91.196 270.398,92.352 271.915,93.178 C273.431,94.004 275.182,94.417 277.169,94.417 C279.156,94.417 280.907,94.004 282.424,93.178 C283.94,92.352 285.116,91.196 285.953,89.711 C286.789,88.227 287.208,86.522 287.208,84.598 L287.208,57.275 L295.677,57.275 L295.677,84.598 C295.677,88.174 294.904,91.348 293.356,94.119 C291.808,96.89 289.633,99.044 286.831,100.581 C284.029,102.118 280.808,102.887 277.169,102.887 C273.531,102.887 270.315,102.118 267.523,100.581 C264.731,99.044 262.561,96.89 261.014,94.119 C259.466,91.348 258.693,88.174 258.693,84.598 L258.693,57.275 L267.162,57.275 L267.162,84.598 C267.162,86.522 267.575,88.227 268.402,89.711" id="Fill-9" fill="#D8223A"></path>
                <path d="M341.446,57.275 L341.446,102.29 L335.109,102.29 C334.022,102.29 333.049,101.663 332.192,100.408 L310.703,68.819 L310.546,68.819 C311.237,70.534 311.581,72.364 311.581,74.309 L311.55,102.29 L303.112,102.29 L303.112,57.275 L309.824,57.275 C310.828,57.275 311.66,57.469 312.319,57.855 C312.978,58.243 313.641,58.917 314.311,59.878 L334.105,89.021 L334.231,89.021 C333.415,87.139 333.007,85.205 333.007,83.218 L333.038,57.275 L341.446,57.275" id="Fill-10" fill="#D8223A"></path>
                <polygon id="Fill-11" fill="#D8223A" points="350.291 102.29 358.761 102.29 358.761 57.306 350.291 57.306"></polygon>
                <path d="M407.823,57.275 L388.469,102.29 L380.971,102.29 L361.616,57.275 L367.514,57.275 C368.559,57.275 369.469,57.531 370.242,58.043 C371.017,58.556 371.602,59.293 371.999,60.255 L383.23,86.543 C383.983,88.237 384.432,90.328 384.579,92.817 L384.83,92.817 C385.018,90.328 385.468,88.237 386.179,86.543 L397.409,60.255 C397.827,59.293 398.423,58.556 399.198,58.043 C399.971,57.531 400.87,57.275 401.895,57.275 L407.823,57.275" id="Fill-12" fill="#464B4C"></path>
                <polyline id="Fill-13" fill="#464B4C" points="410.677 102.29 410.677 57.275 439.695 57.275 439.695 65.462 419.147 65.462 419.147 75.407 435.836 75.407 435.836 83.28 419.147 83.28 419.147 94.103 439.695 94.103 439.695 102.29 410.677 102.29"></polyline>
                <path d="M454.343,77.352 L462.374,77.352 C463.545,77.352 464.612,77.09 465.573,76.567 C466.535,76.045 467.299,75.328 467.864,74.418 C468.428,73.509 468.71,72.5 468.71,71.391 C468.71,70.241 468.428,69.216 467.864,68.317 C467.299,67.418 466.531,66.717 465.558,66.215 C464.585,65.713 463.503,65.462 462.311,65.462 L454.343,65.462 L454.343,77.352 Z M445.873,102.29 L445.873,57.275 L462.719,57.275 C465.417,57.275 467.864,57.876 470.06,59.079 C472.255,60.282 473.991,61.96 475.267,64.114 C476.542,66.268 477.181,68.693 477.181,71.391 C477.181,73.608 476.642,75.622 475.565,77.43 C474.488,79.239 473.128,80.661 471.487,81.696 C469.845,82.731 468.23,83.26 466.64,83.28 L465.636,83.312 L465.636,83.375 C466.786,83.459 467.739,83.704 468.491,84.112 C469.244,84.52 469.882,85.111 470.405,85.884 L482.106,102.29 L475.11,102.29 C474.107,102.29 473.217,102.108 472.444,101.742 C471.67,101.376 470.958,100.69 470.311,99.687 L460.209,85.539 L454.343,85.539 L454.343,102.29 L445.873,102.29 L445.873,102.29 Z" id="Fill-14" fill="#464B4C"></path>
                <path d="M488.661,100.941 C486.047,99.645 483.726,97.951 481.698,95.86 L483.517,92.66 C483.851,92.095 484.311,91.656 484.897,91.342 C485.483,91.029 486.12,90.872 486.811,90.872 C487.772,90.872 488.661,91.144 489.477,91.688 C490.69,92.545 492.007,93.267 493.43,93.852 C494.852,94.438 496.096,94.73 497.162,94.73 C499.337,94.73 501.078,94.234 502.386,93.24 C503.693,92.247 504.346,90.799 504.346,88.896 C504.346,87.599 503.766,86.449 502.605,85.445 C501.445,84.441 499.61,83.459 497.1,82.496 C492.624,80.907 489.325,79.035 487.202,76.881 C485.079,74.728 484.019,72.176 484.019,69.227 C484.019,66.78 484.604,64.605 485.776,62.702 C486.947,60.799 488.593,59.319 490.716,58.263 C492.838,57.208 495.27,56.679 498.01,56.679 C500.226,56.679 502.495,57.108 504.817,57.965 C507.138,58.823 509.021,60.036 510.463,61.604 L508.895,64.365 C508.413,65.18 507.844,65.787 507.185,66.184 C506.527,66.582 505.821,66.78 505.068,66.78 C504.398,66.78 503.781,66.644 503.217,66.372 C502.38,65.85 501.487,65.462 500.534,65.211 C499.583,64.96 498.741,64.835 498.01,64.835 C496.378,64.835 495.05,65.227 494.026,66.011 C493,66.796 492.489,67.857 492.489,69.195 C492.489,70.283 493.042,71.25 494.151,72.097 C495.259,72.944 497.016,73.765 499.421,74.56 C503.917,75.898 507.274,77.754 509.49,80.128 C511.707,82.501 512.816,85.414 512.816,88.864 C512.816,91.604 512.147,94.035 510.809,96.158 C509.47,98.281 507.598,99.933 505.194,101.114 C502.788,102.295 500.037,102.887 496.943,102.887 C494.035,102.887 491.276,102.239 488.661,100.941" id="Fill-15" fill="#464B4C"></path>
                <polygon id="Fill-16" fill="#464B4C" points="518.556 102.29 527.026 102.29 527.026 57.306 518.556 57.306"></polygon>
                <polyline id="Fill-17" fill="#464B4C" points="531.198 57.275 565.925 57.275 565.925 65.368 552.812 65.368 552.812 102.29 544.342 102.29 544.342 65.368 531.198 65.368 531.198 57.275"></polyline>
                <path d="M588.229,85.978 L582.582,72.928 C582.122,71.841 581.798,70.89 581.61,70.074 C581.421,69.258 581.327,68.359 581.327,67.376 L581.014,67.376 C580.992,68.38 580.888,69.29 580.7,70.105 C580.512,70.921 580.188,71.862 579.728,72.928 L574.081,85.978 L588.229,85.978 Z M604.573,102.29 L598.518,102.29 C597.514,102.29 596.61,102.024 595.805,101.491 C594.999,100.957 594.398,100.21 594.001,99.248 L591.334,93.068 L571.007,93.068 L568.34,99.248 C567.922,100.21 567.31,100.957 566.505,101.491 C565.699,102.024 564.795,102.29 563.791,102.29 L557.738,102.29 L577.406,57.275 L584.904,57.275 L604.573,102.29 L604.573,102.29 Z" id="Fill-18" fill="#464B4C"></path>
                <path d="M570.303,40.955 C571.029,42.856 572.61,46.243 573.552,48.298 C574.147,49.594 575.482,51.456 577.449,51.456 C580.014,51.455 581.518,51.449 582.267,51.449 C581.719,50.282 579.885,45.741 578.736,43.565 C577.599,41.413 575.847,40.932 574.489,40.918 C573.083,40.904 570.303,40.955 570.303,40.955" id="Fill-19" fill="#464B4C"></path>
                <path d="M16.449,115.213 C16.277,114.909 16.045,114.669 15.753,114.494 C15.46,114.318 15.137,114.232 14.783,114.237 C14.417,114.243 14.091,114.338 13.807,114.522 C13.523,114.706 13.303,114.955 13.148,115.267 C12.992,115.579 12.917,115.926 12.923,116.306 L12.96,118.846 L16.751,118.79 L16.714,116.23 C16.708,115.857 16.62,115.518 16.449,115.213" id="Fill-20" fill="#D8223A"></path>
                <path d="M30.082,62.774 C29.71,62.718 29.396,62.649 29.144,62.564 C28.89,62.48 28.63,62.356 28.362,62.192 L28.31,62.278 C28.58,62.451 28.81,62.63 29.001,62.817 C29.192,63.004 29.394,63.248 29.608,63.551 L32.221,67.257 L34.572,63.405 L30.082,62.774" id="Fill-21" fill="#D8223A"></path>
                <path d="M211.443,94.959 C211.672,95.223 211.948,95.411 212.27,95.524 C212.592,95.637 212.926,95.655 213.271,95.579 C213.629,95.499 213.929,95.341 214.17,95.103 C214.411,94.865 214.576,94.578 214.665,94.24 C214.754,93.903 214.758,93.548 214.675,93.177 L214.126,90.697 L210.424,91.517 L210.978,94.017 C211.059,94.382 211.214,94.696 211.443,94.959" id="Fill-22" fill="#D8223A"></path>
                <path d="M198.889,61.236 C199.1,60.924 199.298,60.672 199.484,60.48 C199.67,60.289 199.894,60.107 200.157,59.937 L200.103,59.853 C199.83,60.021 199.569,60.151 199.318,60.243 C199.067,60.334 198.759,60.41 198.394,60.472 L193.923,61.227 L196.378,65.012 L198.889,61.236" id="Fill-23" fill="#D8223A"></path>
                <path d="M131.725,14.849 C131.102,14.337 130.379,14.02 129.554,13.901 L126.545,13.462 L125.194,22.737 L128.202,23.176 C129.027,23.296 129.811,23.202 130.553,22.892 C131.296,22.582 131.917,22.101 132.416,21.449 C132.916,20.798 133.227,20.046 133.352,19.195 C133.476,18.344 133.391,17.534 133.099,16.767 C132.806,16 132.348,15.361 131.725,14.849" id="Fill-24" fill="#D8223A"></path>
                <path d="M106.887,209.26 L103.564,213.17 C103.466,213.281 103.352,213.384 103.222,213.478 C103.092,213.573 102.972,213.638 102.862,213.674 L106.765,214.052 L107.303,208.496 C107.264,208.62 107.204,208.755 107.123,208.901 C107.041,209.048 106.963,209.167 106.887,209.26" id="Fill-25" fill="#D8223A"></path>
                <path d="M137.64,206.41 C137.611,206.575 137.576,206.714 137.535,206.826 L135.679,211.611 C135.623,211.748 135.55,211.882 135.458,212.014 C135.367,212.146 135.274,212.248 135.182,212.318 L138.993,211.394 L137.677,205.969 C137.681,206.098 137.668,206.246 137.64,206.41" id="Fill-26" fill="#D8223A"></path>
                <path d="M124.109,209.664 C123.825,208.955 123.45,208.425 122.984,208.074 C122.518,207.722 121.986,207.568 121.387,207.61 C120.788,207.652 120.285,207.881 119.876,208.293 C119.467,208.707 119.172,209.283 118.99,210.021 C118.808,210.76 118.753,211.627 118.824,212.625 C118.894,213.616 119.07,214.465 119.354,215.17 C119.638,215.875 120.012,216.404 120.474,216.756 C120.937,217.107 121.468,217.262 122.067,217.219 C122.665,217.177 123.171,216.949 123.583,216.535 C123.995,216.122 124.292,215.546 124.473,214.808 C124.655,214.07 124.711,213.205 124.641,212.214 C124.571,211.223 124.393,210.372 124.109,209.664" id="Fill-27" fill="#D8223A"></path>
                <path d="M114.9,53.179 C114.639,53.123 113.93,53.328 114.335,53.6 C114.656,53.816 114.955,54.837 115.578,54.894 C115.897,54.924 115.681,54.522 115.914,54.505 C116.148,54.488 116.468,55.163 116.662,54.939 C116.902,54.664 115.863,53.384 114.9,53.179" id="Fill-28" fill="#D8223A"></path>
                <path d="M153.833,116.261 C153.636,116.212 152.836,116.64 153.44,117.409 C159.962,125.712 160.924,139.135 158.789,144.69 C169.749,136.676 166.488,119.411 153.833,116.261" id="Fill-29" fill="#D8223A"></path>
                <path d="M93.198,95.622 C93.453,95.026 93.059,94.882 92.985,94.542 C92.91,94.198 93.125,93.95 92.683,93.773 C92.334,93.633 91.841,94.453 91.872,95.341 C91.897,96.066 92.889,96.347 93.198,95.622" id="Fill-30" fill="#D8223A"></path>
                <path d="M138.851,141.156 C137.37,139.125 132.601,130.845 134.177,125.67 C135.494,121.348 142.505,120.58 147.27,121.666 C140.636,117.611 132.118,119.815 131.109,125.99 C130.266,131.146 133.423,138.004 134.987,140.371 C136.206,140.81 137.878,140.941 138.851,141.156" id="Fill-31" fill="#D8223A"></path>
                <path d="M92.293,143.516 C95.453,143.335 96.946,141.146 99.822,140.298 C96.517,140.704 91.278,140.691 90.181,140.891 C89.254,141.06 84.748,142.854 83.119,143.491 C84.603,143.386 91.092,143.585 92.293,143.516" id="Fill-32" fill="#D8223A"></path>
                <path d="M85.373,103.46 C85.621,102.863 85.446,102.034 85.515,101.632 C85.672,100.713 86.307,99.759 85.769,99.518 C85.225,99.274 85.15,100.402 84.588,100.924 C84.124,101.354 82.097,102.902 83.298,104.318 C83.749,104.85 85.031,104.28 85.373,103.46" id="Fill-33" fill="#D8223A"></path>
                <path d="M92.684,137.876 C92.357,136.28 92.168,135.687 91.904,134.661 C85.287,131.574 87.357,121.572 93.424,120.308 C81.675,120.418 83.236,137.114 92.684,137.876" id="Fill-34" fill="#D8223A"></path>
                <path d="M133.731,149.857 C135.642,149.739 138.646,148.54 139.765,147.277 C137.733,147.302 132.221,146.993 131.641,147.247 C129.745,147.766 128.479,148.57 126.392,149.759 C127.178,149.641 131.087,150.02 133.731,149.857" id="Fill-35" fill="#D8223A"></path>
                <path d="M219.436,118.692 C219.3,118.894 219.072,119.091 218.752,119.285 L209.071,124.985 L209.068,125.025 C209.684,124.804 210.308,124.714 210.94,124.755 L219.196,125.298 L219.023,127.973 L204.697,127.048 L204.828,125.032 C204.85,124.686 205.069,124.389 205.487,124.142 L215.981,117.953 L215.984,117.903 C215.424,118.088 214.834,118.16 214.215,118.12 L205.312,117.535 L205.485,114.849 L219.81,115.774 L219.672,117.911 C219.652,118.23 219.573,118.491 219.436,118.692 Z M215.33,145.265 L212.796,144.636 L214.377,138.277 L211.299,137.512 L210.015,142.676 L207.579,142.071 L208.863,136.906 L205.513,136.073 L203.933,142.432 L201.399,141.803 L203.631,132.822 L217.562,136.285 L215.33,145.265 Z M212.057,154.41 C211.926,154.702 211.76,154.918 211.561,155.059 C211.363,155.2 211.08,155.304 210.712,155.373 L199.646,157.307 L199.629,157.343 C200.283,157.353 200.899,157.488 201.477,157.748 L209.014,161.158 L207.912,163.602 L194.826,157.701 L195.657,155.859 C195.799,155.543 196.109,155.342 196.586,155.257 L208.586,153.152 L208.607,153.106 C208.018,153.082 207.44,152.943 206.875,152.688 L198.745,149.01 L199.851,146.557 L212.938,152.459 L212.057,154.41 Z M202.458,171.982 C202.354,172.731 202.056,173.466 201.564,174.188 C201.165,174.772 200.644,175.292 200.001,175.749 C199.357,176.207 198.699,176.484 198.027,176.582 L197.582,175.673 C197.454,175.4 197.396,175.14 197.411,174.896 C197.424,174.65 197.499,174.429 197.634,174.231 C197.754,174.054 197.901,173.916 198.074,173.816 C198.363,173.69 198.625,173.524 198.862,173.319 C199.1,173.113 199.284,172.914 199.416,172.721 C199.709,172.292 199.844,171.872 199.822,171.461 C199.8,171.05 199.612,170.724 199.26,170.483 C198.974,170.288 198.619,170.26 198.197,170.399 C197.774,170.539 197.242,170.854 196.6,171.345 C195.44,172.288 194.347,172.838 193.323,172.996 C192.3,173.152 191.334,172.921 190.425,172.3 C189.703,171.808 189.183,171.194 188.865,170.46 C188.546,169.726 188.448,168.936 188.569,168.09 C188.691,167.244 189.029,166.414 189.586,165.599 C190.108,164.833 190.775,164.222 191.587,163.767 C192.399,163.312 193.262,163.005 194.178,162.847 L194.693,163.901 C194.782,164.091 194.815,164.291 194.792,164.502 C194.769,164.712 194.696,164.909 194.572,165.09 C194.399,165.344 194.168,165.529 193.878,165.646 C193.434,165.811 193.007,166.028 192.597,166.298 C192.187,166.567 191.886,166.842 191.694,167.123 C191.303,167.696 191.121,168.244 191.148,168.767 C191.174,169.289 191.438,169.722 191.939,170.064 C192.281,170.297 192.688,170.351 193.161,170.226 C193.634,170.101 194.223,169.794 194.928,169.306 C196.151,168.413 197.237,167.881 198.186,167.709 C199.135,167.538 199.998,167.717 200.774,168.247 C201.419,168.687 201.886,169.232 202.177,169.883 C202.468,170.533 202.561,171.233 202.458,171.982 Z M192.589,185.256 L181.831,175.767 L183.617,173.741 L194.375,183.23 L192.589,185.256 Z M185.766,191.735 C185.483,192.436 185.014,193.076 184.359,193.655 C183.83,194.124 183.198,194.501 182.462,194.787 C181.727,195.072 181.021,195.181 180.345,195.111 L180.136,194.12 C180.078,193.824 180.086,193.558 180.159,193.325 C180.233,193.09 180.359,192.894 180.539,192.735 C180.699,192.593 180.875,192.495 181.068,192.441 C181.378,192.389 181.673,192.292 181.953,192.151 C182.233,192.01 182.461,191.862 182.636,191.707 C183.025,191.363 183.26,190.988 183.338,190.584 C183.417,190.18 183.316,189.819 183.032,189.499 C182.803,189.239 182.466,189.125 182.022,189.158 C181.579,189.19 180.986,189.365 180.243,189.684 C178.887,190.314 177.693,190.58 176.662,190.482 C175.631,190.383 174.751,189.922 174.022,189.098 C173.442,188.444 173.089,187.722 172.959,186.932 C172.83,186.142 172.928,185.352 173.253,184.562 C173.578,183.771 174.109,183.049 174.849,182.395 C175.542,181.781 176.339,181.352 177.237,181.109 C178.135,180.867 179.048,180.78 179.974,180.851 L180.216,182 C180.255,182.205 180.238,182.407 180.165,182.606 C180.091,182.805 179.972,182.977 179.807,183.123 C179.578,183.326 179.308,183.449 178.998,183.492 C178.527,183.543 178.06,183.649 177.597,183.81 C177.134,183.971 176.774,184.164 176.52,184.389 C176,184.849 175.69,185.336 175.587,185.849 C175.485,186.362 175.635,186.846 176.037,187.301 C176.311,187.61 176.693,187.762 177.183,187.757 C177.672,187.751 178.318,187.598 179.121,187.297 C180.525,186.731 181.709,186.481 182.671,186.547 C183.633,186.612 184.425,186.997 185.049,187.702 C185.566,188.286 185.886,188.929 186.008,189.631 C186.131,190.333 186.05,191.034 185.766,191.735 Z M139.161,170.448 C139.3,171.027 140.143,174.56 140.339,175.475 C139.356,175.075 138.039,174.938 137.344,174.876 C137.098,173.89 136.415,170.882 136.317,170.448 C129.955,170.448 125.287,170.448 125.287,170.448 L125.287,162.287 C125.287,162.287 166.702,162.287 170.772,162.287 C176.131,162.287 175.933,170.448 171.1,170.448 C168.883,170.448 151.819,170.448 139.161,170.448 Z M142.759,216.059 L140.271,216.663 L139.596,213.882 L133.297,215.41 L132.66,213.465 C132.625,213.35 132.611,213.214 132.618,213.058 C132.625,212.902 132.652,212.753 132.7,212.611 L136.123,203.597 C136.206,203.371 136.325,203.174 136.48,203.007 C136.634,202.839 136.786,202.737 136.935,202.7 L139.376,202.108 L141.482,210.79 L143.338,210.339 L143.942,212.828 L142.085,213.278 L142.759,216.059 Z M126.809,216.007 C126.452,217.138 125.883,218.026 125.103,218.669 C124.322,219.313 123.37,219.675 122.246,219.754 C121.122,219.834 120.129,219.61 119.27,219.082 C118.411,218.555 117.724,217.756 117.21,216.685 C116.696,215.616 116.386,214.322 116.279,212.805 C116.171,211.282 116.296,209.953 116.654,208.817 C117.011,207.683 117.578,206.791 118.355,206.145 C119.132,205.498 120.082,205.135 121.207,205.055 C122.33,204.976 123.324,205.202 124.188,205.732 C125.051,206.263 125.739,207.065 126.253,208.138 C126.767,209.212 127.078,210.51 127.185,212.034 C127.293,213.55 127.167,214.875 126.809,216.007 Z M92.234,185.872 L92.234,177.711 L89.384,177.711 L90.556,172.393 C77.015,172.393 58.604,172.393 58.604,172.393 L58.604,164.232 L55.325,164.232 L66.441,146.013 C67.766,145.933 68.113,145.909 69.817,145.821 C68.506,147.958 58.474,164.333 58.604,164.232 C58.604,164.232 100.019,164.232 104.089,164.232 C109.447,164.232 109.249,172.393 104.416,172.393 C103.371,172.393 99.026,172.393 93.401,172.393 L92.234,177.711 C92.234,177.711 133.649,177.711 137.719,177.711 C143.077,177.711 142.879,185.872 138.046,185.872 C134.469,185.872 92.234,185.872 92.234,185.872 Z M110.969,217.032 L109.067,216.849 L108.791,219.696 L106.242,219.449 L106.518,216.601 L100.066,215.977 L100.103,213.93 C100.108,213.81 100.139,213.677 100.197,213.532 C100.255,213.387 100.329,213.255 100.421,213.137 L106.614,205.747 C106.766,205.56 106.943,205.413 107.144,205.305 C107.346,205.197 107.523,205.151 107.675,205.166 L110.175,205.408 L109.314,214.299 L111.215,214.483 L110.969,217.032 Z M91.07,217.027 L88.508,216.354 L91.292,205.77 C91.147,205.98 90.99,206.132 90.821,206.225 L89.946,206.72 C89.603,206.898 89.279,206.948 88.976,206.868 C88.686,206.792 88.458,206.608 88.294,206.317 L87.703,205.22 L92.236,202.491 L94.635,203.121 L91.07,217.027 Z M56.488,187.432 C56.261,188.419 55.765,189.335 55,190.18 L49.155,196.642 L47.152,194.829 L52.997,188.369 C53.409,187.913 53.676,187.422 53.798,186.894 C53.92,186.366 53.891,185.842 53.709,185.322 C53.527,184.803 53.201,184.331 52.731,183.905 C52.261,183.48 51.759,183.203 51.224,183.074 C50.688,182.945 50.163,182.967 49.648,183.139 C49.132,183.311 48.669,183.625 48.257,184.08 L42.412,190.541 L40.408,188.729 L46.254,182.268 C47.019,181.422 47.881,180.837 48.84,180.513 C49.799,180.189 50.774,180.145 51.765,180.381 C52.757,180.617 53.683,181.124 54.543,181.903 C55.404,182.681 56,183.551 56.331,184.511 C56.662,185.472 56.715,186.446 56.488,187.432 Z M33.628,181.028 C33.436,180.77 33.326,180.522 33.299,180.28 C33.271,180.039 33.316,179.74 33.433,179.384 L37.074,168.756 L37.049,168.724 C36.726,169.293 36.311,169.767 35.804,170.147 L29.183,175.107 L27.573,172.964 L39.051,164.344 L40.265,165.959 C40.473,166.237 40.499,166.605 40.343,167.064 L36.404,178.592 L36.434,178.632 C36.739,178.128 37.139,177.689 37.635,177.316 L44.776,171.966 L46.392,174.118 L34.914,182.739 L33.628,181.028 Z M22.227,163.583 L34.844,156.757 L36.129,159.133 L23.512,165.959 L22.227,163.583 Z M18.664,156.447 C18.548,156.134 18.525,155.834 18.592,155.546 C18.66,155.258 18.816,155.001 19.06,154.776 L25.681,148.511 C26.105,148.098 26.681,147.733 27.409,147.413 L27.381,147.339 C26.616,147.557 25.941,147.654 25.356,147.629 L16.251,147.175 C15.917,147.156 15.63,147.06 15.392,146.885 C15.153,146.71 14.977,146.47 14.864,146.163 L14.208,144.39 L29.813,145.203 L30.641,147.446 L19.316,158.211 L18.664,156.447 Z M11.102,128.985 L13.67,128.515 L14.849,134.961 L17.968,134.39 L17.011,129.155 L19.481,128.704 L20.438,133.939 L23.833,133.318 L22.655,126.872 L25.222,126.403 L26.887,135.506 L12.766,138.087 L11.102,128.985 Z M10.31,116.215 C10.298,115.354 10.478,114.571 10.851,113.866 C11.224,113.16 11.751,112.598 12.432,112.181 C13.113,111.765 13.883,111.55 14.743,111.537 C15.45,111.527 16.095,111.689 16.676,112.024 C17.258,112.359 17.718,112.785 18.056,113.304 C18.394,113.823 18.57,114.335 18.584,114.842 L18.598,115.162 L18.618,115.162 C18.64,114.795 18.714,114.49 18.84,114.248 C18.967,114.006 19.152,113.8 19.396,113.629 L24.573,109.821 L24.606,112.052 C24.61,112.372 24.556,112.656 24.443,112.905 C24.33,113.153 24.115,113.384 23.798,113.595 L19.334,116.882 L19.362,118.752 L24.703,118.674 L24.743,121.374 L10.389,121.586 L10.31,116.215 Z M11.251,99.592 C11.354,98.893 11.595,98.197 11.973,97.504 C12.351,96.812 12.821,96.274 13.382,95.891 L14.181,96.514 C14.416,96.704 14.581,96.911 14.676,97.138 C14.77,97.364 14.8,97.596 14.765,97.834 C14.734,98.045 14.663,98.233 14.551,98.398 C14.348,98.638 14.184,98.903 14.061,99.191 C13.937,99.48 13.859,99.739 13.825,99.97 C13.749,100.485 13.812,100.922 14.012,101.282 C14.211,101.642 14.522,101.852 14.945,101.914 C15.288,101.964 15.619,101.835 15.937,101.524 C16.256,101.213 16.596,100.698 16.959,99.975 C17.589,98.619 18.33,97.646 19.182,97.057 C20.034,96.467 21.004,96.252 22.092,96.412 C22.957,96.539 23.693,96.863 24.301,97.383 C24.908,97.904 25.343,98.571 25.604,99.385 C25.866,100.198 25.925,101.093 25.781,102.069 C25.646,102.987 25.314,103.828 24.784,104.592 C24.254,105.358 23.612,106.011 22.858,106.554 L21.933,105.832 C21.77,105.7 21.652,105.535 21.581,105.335 C21.509,105.136 21.489,104.927 21.521,104.71 C21.566,104.407 21.692,104.138 21.902,103.906 C22.229,103.563 22.517,103.181 22.768,102.76 C23.019,102.338 23.169,101.959 23.218,101.623 C23.319,100.936 23.243,100.364 22.99,99.905 C22.737,99.447 22.311,99.174 21.71,99.086 C21.301,99.026 20.911,99.156 20.54,99.475 C20.17,99.795 19.775,100.328 19.355,101.076 C18.646,102.414 17.903,103.368 17.125,103.938 C16.347,104.508 15.493,104.725 14.562,104.588 C13.791,104.475 13.131,104.19 12.585,103.732 C12.039,103.274 11.648,102.686 11.414,101.967 C11.179,101.248 11.125,100.457 11.251,99.592 Z M14.478,85.714 L28.302,89.545 L27.581,92.148 L13.756,88.317 L14.478,85.714 Z M20.594,69.399 L22.973,70.399 L21.353,74.254 L32.208,78.814 L31.162,81.305 L20.307,76.744 L18.684,80.608 L16.304,79.608 L20.594,69.399 Z M26.207,59.541 L41.728,61.668 L40.722,63.316 C40.555,63.589 40.332,63.791 40.053,63.921 C39.774,64.052 39.471,64.091 39.143,64.04 L37.018,63.739 L33.639,69.271 L34.879,71.024 C35.071,71.298 35.173,71.588 35.184,71.896 C35.195,72.204 35.117,72.494 34.951,72.767 L33.945,74.415 L24.961,61.581 L26.207,59.541 Z M34.812,48.189 C35.003,47.457 35.385,46.763 35.96,46.104 C36.424,45.571 37.003,45.115 37.695,44.737 C38.388,44.359 39.074,44.16 39.753,44.142 L40.088,45.098 C40.183,45.384 40.21,45.648 40.167,45.89 C40.125,46.132 40.025,46.343 39.867,46.523 C39.727,46.684 39.565,46.804 39.381,46.883 C39.08,46.975 38.799,47.108 38.54,47.285 C38.28,47.461 38.074,47.637 37.92,47.813 C37.579,48.205 37.395,48.606 37.368,49.017 C37.342,49.428 37.49,49.774 37.812,50.053 C38.073,50.282 38.422,50.351 38.858,50.262 C39.293,50.173 39.859,49.923 40.554,49.511 C41.818,48.711 42.967,48.293 44.002,48.257 C45.037,48.222 45.97,48.565 46.799,49.288 C47.458,49.862 47.902,50.533 48.132,51.299 C48.362,52.066 48.367,52.862 48.147,53.688 C47.927,54.513 47.493,55.298 46.844,56.042 C46.235,56.741 45.501,57.269 44.641,57.625 C43.782,57.982 42.888,58.186 41.96,58.235 L41.573,57.127 C41.507,56.928 41.497,56.725 41.545,56.519 C41.592,56.313 41.688,56.127 41.833,55.961 C42.034,55.73 42.286,55.573 42.587,55.49 C43.048,55.378 43.497,55.213 43.936,54.994 C44.375,54.775 44.706,54.537 44.93,54.28 C45.385,53.758 45.63,53.235 45.666,52.713 C45.701,52.19 45.49,51.73 45.032,51.331 C44.72,51.059 44.322,50.957 43.838,51.027 C43.353,51.095 42.732,51.33 41.976,51.732 C40.655,52.475 39.514,52.876 38.552,52.935 C37.589,52.994 36.754,52.714 36.045,52.097 C35.456,51.583 35.056,50.987 34.844,50.307 C34.632,49.627 34.621,48.921 34.812,48.189 Z M52.055,141.912 C51.695,141.895 51.229,141.987 51.204,141.393 C52.242,141.328 53.515,139.894 54.47,139.266 C55.579,138.536 58.219,138.154 59.818,137.695 C61.417,137.237 66.879,133.877 70.176,133.541 C70.106,135.082 72.586,140.787 73.924,142.16 C71.508,143.121 63.736,143.093 63.022,143.223 C64.058,141.987 61.815,140.057 60.233,143.283 C59.794,144.177 59.717,145.191 58.364,146.6 C57.021,146.6 50.414,146.516 48.284,146.55 C49.068,143.669 52.461,142.073 52.055,141.912 Z M58.493,111.538 C58.633,111.416 58.87,111.292 59.016,111.357 C60.601,112.054 64.433,113.424 67.667,113.538 C67.318,114.649 67.14,116.317 67.156,117.052 C63.191,116.476 57.474,112.428 58.493,111.538 Z M86.407,160.46 C84.484,161.208 81.538,160.976 80.906,160.416 C81.617,159.749 83.188,158.353 83.043,157.773 C81.991,157.637 79.547,158.528 78.963,158.76 C78.373,157.513 79.002,155.922 80.337,154.908 C81.479,155.433 83,156.021 83.708,155.892 C84.065,154.933 83.637,153.69 83.511,153.228 C84.039,152.972 87.575,152.613 88.691,153.335 C88.212,153.776 86.648,155.087 86.605,155.949 C87.474,155.963 89.513,155.433 90.606,154.955 C91.318,156.112 90.671,157.803 89.361,158.826 C88.472,158.283 86.737,157.826 85.825,157.892 C85.689,158.827 86.035,159.658 86.407,160.46 Z M109.553,149.842 C109.553,149.842 108.555,162.105 108.537,162.975 C107.703,162.211 106.801,161.797 105.857,161.594 C105.926,160.574 106.754,149.881 106.754,149.881 L109.553,149.842 Z M171.662,159.924 C170.368,159.592 169.304,159.571 168.232,159.689 C167.438,158.446 162.69,150.684 161.961,149.453 C162.689,149.038 164.161,147.813 164.161,147.813 C165.009,149.047 170.932,158.783 171.662,159.924 Z M74.875,97.044 C77.035,95.492 84.565,92.609 87.409,91.861 C88.89,91.471 90.964,90.331 92.459,89.9 C93.407,89.628 94.356,89.927 94.859,90.498 C95.018,90.677 94.867,91.233 95.104,91.412 C95.333,91.583 98.162,93.567 98.032,94.34 C97.738,96.09 97.241,96.242 96.884,96.932 C96.017,98.61 95.299,100.489 93.663,103.382 C89.578,115.359 82.493,108.712 80.756,106.571 C79.712,108.247 77.512,115.437 76.127,117.891 C80.724,116.425 81.336,113.08 81.379,111.139 C81.945,111.707 85.239,113.672 88.422,113.08 C86.442,115.805 76.253,123.459 82.162,134.981 C82.314,131.582 81.932,128.836 83.62,123.757 C85.437,118.293 92.83,114.828 94.414,108.695 C94.414,108.695 94.831,108.822 95.676,109.123 C98.51,110.132 102.552,114.311 103.776,114.462 C105.361,114.658 139.242,114.538 141.837,114.584 C144.892,114.639 150.244,111.568 156.111,113.961 C173.257,120.953 170.838,144.265 156.805,148.75 C157.646,147.214 158.406,145.765 158.789,144.69 C155.976,146.511 155.279,146.165 152.953,147.068 C152.355,147.3 151.599,148.232 151.862,149.839 C152.174,151.741 152.718,153.727 151.625,155.189 C150.748,156.29 134.496,154.804 133.016,155.709 C131.047,156.912 130.458,157.967 127.299,157.989 C127.519,157.431 127.654,156.085 126.242,156.22 C123.714,156.461 125.27,160.107 123.196,160.873 C122.709,161.054 122.331,160.862 122.051,160.972 C121.017,161.38 120.938,162.647 120.828,163.462 C120.214,163.519 111.525,163.539 110.572,163.484 C111.546,160.522 113.576,158.843 114.105,158.583 C113.683,158.45 113.425,158.593 113.327,157.867 C116.156,157.521 116.191,155.907 117.852,154.801 C118.855,154.133 120.181,153.428 121.605,152.556 C122.92,151.75 125.172,150.458 126.392,149.759 C112.254,148.012 113.412,137.88 116.062,131.967 C121.288,131.142 121.581,125.24 121.237,123.856 C120.892,122.473 120.7,120.167 120.696,117.403 C118.489,123.546 116.4,123.438 113.155,131.207 C109.408,140.179 112.751,146.998 117.245,149.728 L109.573,149.792 C109.956,143.378 108.189,141.956 107.291,140.571 C106.297,139.039 107.381,129.347 105.84,127.152 C105.232,126.285 102.241,124.859 101.077,124.859 C105.629,128.739 102.923,137.31 104.642,141.53 C105.373,143.326 107.121,143.848 106.805,149.703 C104.917,149.883 85.266,149.895 84.223,149.923 C85.963,148.494 83.184,145.917 81.19,149.91 C80.784,150.725 80.536,151.004 79.414,151.821 C78.379,151.742 70.647,151.932 69.741,151.807 C69.936,150.649 72.604,148.134 73.874,147.362 C73.612,147.113 72.85,147.475 73.032,146.531 C73.448,146.53 74.144,146.403 75.253,145.799 C76.363,145.194 76.281,143.812 79.584,143.355 C75.836,141.874 73.323,136.079 72.721,132.293 C71.057,129.703 66.937,123.047 67.238,116.99 C75.03,117.065 77.044,108.51 77.981,106.177 C78.873,103.954 75.487,101.215 74.017,105.196 C72.943,108.105 71.07,113.005 67.676,113.474 C67.945,111.779 74.082,100.272 74.875,97.044 Z M70.768,83.757 C73.412,83.501 81.488,83.908 80.771,91.202 C77.573,92.513 76.461,93.054 76.461,93.054 C78.39,86.667 73.539,84.764 70.421,84.471 C69.314,84.367 69.47,83.883 70.768,83.757 Z M74.27,59.24 C76.04,60.364 80.982,62.547 85.361,62.449 C85.379,62.061 85.375,61.52 85.445,61.019 C81.974,60.537 76.777,57.452 75.843,56.688 C74.896,55.913 75.036,55.094 75.621,53.674 C77.473,55.278 80.766,57.452 85.837,58.772 C85.931,58.425 86.179,57.645 86.29,57.334 C82.725,55.838 79.565,53.222 78.046,51.194 C77.056,49.872 78.198,48.725 78.609,48.008 C79.394,49.957 83.913,54.128 87.299,55.288 C87.558,54.843 87.729,54.616 88.052,54.162 C84.53,52.158 81.981,47.738 81.411,46.462 C80.84,45.186 81.926,44.17 82.725,43.416 C83.549,46.121 85.111,49.518 89.59,52.409 C90.021,51.885 90.293,51.927 90.603,51.527 C87.76,48.94 86.431,44.112 86.193,42.6 C85.913,40.82 86.995,40.397 88.272,39.805 C88.461,44.907 90.457,50.097 96.242,52.518 C98.506,53.466 98.128,56.444 95.627,58.44 C92.162,61.207 93.357,67.359 99.452,67.839 C102.637,68.09 104.828,65.241 109.735,64.101 C109.146,64.685 108.84,65.38 107.855,66.38 C108.227,66.52 108.84,66.781 109.459,66.781 C106.506,71.867 107.608,77.302 107.888,78.572 C107.494,77.664 107.088,77.453 106.744,77.393 C106.691,82.163 104.971,87.008 103.747,88.886 C103.258,88.21 102.901,87.686 102.12,87.082 C103.243,85.003 104.566,80.575 104.485,76.348 C104.318,76.283 103.752,76.102 102.955,76.073 C102.571,79.259 100.968,82.956 99.624,84.807 C99.41,85.112 98.184,85.121 96.823,84.844 C98.24,82.87 100.063,79.419 100.604,76.138 C100.031,76.204 99.65,76.168 98.945,76.184 C98.58,77.428 96.283,81.121 94.185,83.314 C93.377,84.158 92.349,84.585 90.106,84.048 C93.542,81.348 95.886,77.371 96.531,75.961 C96.158,75.876 95.9,75.823 95.153,75.613 C92.801,78.741 89.443,81.236 87.13,82.377 C85.619,83.121 84.453,82.754 82.95,81.701 C88.752,79.831 92.362,75.446 92.927,74.726 C92.532,74.526 92.304,74.364 91.648,73.983 C88.834,76.415 85.138,77.977 81.692,78.715 C80.063,79.065 79.032,77.562 78.639,76.745 C84.31,76.476 88.34,73.69 89.782,72.528 C89.499,72.299 89.125,71.877 88.821,71.546 C86.538,72.883 81.377,73.965 78.036,73.711 C76.555,73.598 76.174,72.146 75.805,71.226 C80.953,72.051 85.563,70.531 87.434,69.667 C87.205,69.28 86.876,68.704 86.717,68.386 C82.984,69.39 77.597,68.671 75.843,68.17 C74.186,67.697 74.224,66.634 74.148,65.348 C75.843,65.981 81.913,67.223 85.888,66.243 C85.825,66.006 85.576,64.892 85.552,64.754 C80.471,64.863 75.741,62.605 74.791,62.165 C73.84,61.725 74.039,59.754 74.27,59.24 Z M74.359,20.355 C74.489,19.655 74.809,19.025 75.319,18.467 C75.829,17.909 76.491,17.473 77.307,17.158 C77.966,16.904 78.69,16.771 79.479,16.759 C80.268,16.748 80.968,16.892 81.577,17.193 L81.428,18.194 C81.378,18.492 81.278,18.738 81.128,18.932 C80.978,19.126 80.791,19.266 80.566,19.353 C80.367,19.429 80.168,19.46 79.969,19.444 C79.66,19.384 79.35,19.372 79.038,19.407 C78.726,19.441 78.461,19.501 78.243,19.585 C77.758,19.772 77.408,20.041 77.193,20.392 C76.978,20.743 76.948,21.118 77.102,21.516 C77.227,21.839 77.503,22.064 77.93,22.188 C78.357,22.313 78.974,22.355 79.78,22.315 C81.272,22.197 82.483,22.364 83.416,22.815 C84.348,23.267 85.012,24.006 85.408,25.032 C85.723,25.847 85.803,26.647 85.649,27.433 C85.495,28.218 85.128,28.925 84.548,29.552 C83.968,30.18 83.217,30.671 82.297,31.027 C81.432,31.361 80.536,31.486 79.61,31.4 C78.683,31.314 77.798,31.077 76.954,30.688 L77.128,29.527 C77.163,29.321 77.249,29.137 77.387,28.977 C77.525,28.816 77.697,28.696 77.903,28.617 C78.189,28.506 78.484,28.485 78.789,28.553 C79.249,28.669 79.724,28.732 80.214,28.743 C80.704,28.754 81.108,28.698 81.426,28.576 C82.072,28.326 82.533,27.978 82.808,27.532 C83.083,27.086 83.111,26.581 82.892,26.015 C82.743,25.629 82.439,25.353 81.978,25.188 C81.517,25.023 80.858,24.941 80.001,24.943 C78.487,24.985 77.291,24.807 76.412,24.409 C75.533,24.013 74.925,23.376 74.586,22.498 C74.305,21.77 74.229,21.056 74.359,20.355 Z M98.015,11.597 L98.565,14.118 L94.479,15.008 L96.984,26.513 L94.345,27.088 L91.84,15.583 L87.745,16.475 L87.195,13.953 L98.015,11.597 Z M93.961,38.898 C93.846,38.563 93.743,38.223 93.659,37.875 C94.477,37.651 95.301,37.445 96.129,37.248 C95.693,37.704 94.836,38.66 93.961,38.898 Z M99.01,38.543 C97.421,40.569 97.849,42.323 96.686,43.242 C96.672,43.253 96.659,43.258 96.645,43.268 C95.971,42.572 95.384,41.793 94.897,40.948 C96.695,40.272 97.458,38.739 98.769,38.076 C98.844,38.235 98.924,38.39 99.01,38.543 Z M100.885,40.683 C100.522,42.653 101.56,44.656 101.022,46.134 C100.088,45.789 99.21,45.327 98.404,44.768 C99.762,43.457 99.821,41.449 100.471,40.343 C100.604,40.462 100.742,40.575 100.885,40.683 Z M103.206,41.801 C103.483,41.884 103.64,41.956 103.931,42.005 C104.408,44.336 106.07,45.371 106.202,46.815 C105.841,46.848 105.476,46.867 105.106,46.867 C104.442,46.867 103.791,46.809 103.157,46.703 C103.805,44.873 103.25,43.294 103.206,41.801 Z M109.857,35.226 C109.781,37.788 107.686,39.843 105.106,39.843 C102.907,39.843 101.062,38.349 100.516,36.323 C103.572,35.776 106.69,35.41 109.857,35.226 Z M107.06,10.624 L107.448,19.328 C107.475,19.941 107.631,20.478 107.915,20.939 C108.199,21.401 108.589,21.752 109.084,21.994 C109.579,22.235 110.142,22.342 110.775,22.314 C111.408,22.286 111.96,22.129 112.432,21.845 C112.903,21.56 113.261,21.175 113.507,20.69 C113.753,20.205 113.861,19.656 113.834,19.043 L113.446,10.339 L116.145,10.219 L116.532,18.923 C116.583,20.062 116.382,21.084 115.928,21.989 C115.474,22.894 114.812,23.611 113.941,24.14 C113.07,24.67 112.055,24.961 110.896,25.012 C109.737,25.064 108.701,24.865 107.79,24.415 C106.879,23.965 106.157,23.309 105.625,22.449 C105.092,21.588 104.801,20.588 104.75,19.448 L104.362,10.744 L107.06,10.624 Z M116.884,35.22 C115.089,35.311 112.895,36.015 112.055,36.015 C112.094,35.723 112.121,35.427 112.123,35.125 C112.919,35.101 113.718,35.085 114.52,35.085 C115.312,35.085 116.101,35.1 116.887,35.123 C116.887,35.156 116.885,35.188 116.884,35.22 Z M118.87,44.663 L117.73,45.06 C117.73,45.06 118.318,46.778 118.506,47.93 C116.915,48.953 119.537,50.283 119.432,48.29 C119.71,48.156 121.569,47.505 121.569,47.505 L121.602,46.6 L122.528,46.371 L122.509,47.256 L121.569,47.505 C121.569,47.505 121.614,49.191 121.615,49.902 C119.863,50.623 122.073,52.401 122.397,50.491 C122.675,50.505 125.146,50.358 125.146,50.358 L125.037,49.085 C125.037,49.085 126.204,49.045 126.247,49.045 C126.291,49.045 122.775,53.16 121.891,54.125 C119.967,50.824 115.962,49.571 115.772,49.483 C115.991,49.046 118.411,43.501 118.411,43.501 L118.87,44.663 Z M124.231,10.608 L129.913,11.436 C131.226,11.627 132.383,12.117 133.383,12.907 C134.383,13.696 135.121,14.68 135.597,15.858 C136.072,17.035 136.214,18.278 136.024,19.584 C135.834,20.891 135.343,22.041 134.551,23.034 C133.759,24.027 132.771,24.758 131.588,25.226 C130.405,25.694 129.156,25.832 127.843,25.641 L122.161,24.813 L124.231,10.608 Z M111.041,45.261 C110.223,45.74 109.342,46.122 108.413,46.393 C108.114,44.513 106.61,43.233 106.244,42.004 C106.435,41.972 106.624,41.934 106.809,41.887 C107.819,43.431 110.16,43.622 111.041,45.261 Z M111.01,38.868 C111.112,38.709 111.21,38.548 111.299,38.381 C112.99,38.383 114.727,37.499 116.639,37.499 C116.461,38.354 116.188,39.173 115.836,39.949 C113.78,38.777 112.055,39.24 111.01,38.868 Z M114.727,41.88 C114.19,42.639 113.567,43.332 112.869,43.943 C111.679,42.129 110.124,41.797 109.028,40.905 C109.133,40.835 109.406,40.622 109.507,40.546 C111.194,41.553 113.473,41.115 114.727,41.88 Z M107.237,104.313 C107.269,104.319 107.321,104.327 107.388,104.336 C107.391,104.33 107.395,104.318 107.397,104.313 C107.662,104.359 109.215,104.554 110.141,104.739 C109.836,105.916 108.979,109.297 108.676,111.979 C108.665,111.922 108.623,111.801 108.561,111.639 C108.547,111.752 108.528,111.869 108.516,111.979 C108.434,111.556 106.753,107.83 106.45,107.512 C106.531,107.154 107.108,104.543 107.237,104.313 Z M105.013,103.755 C105.323,103.586 107.385,98.306 107.674,97.631 C107.052,97.493 106.672,97.294 106.308,97.24 C106.02,97.651 103.147,102.234 102.253,102.914 C101.469,102.649 100.508,102.312 99.538,101.854 C100.15,101.673 108.846,90.424 108.451,81.405 C108.846,82.635 111.833,89.578 111.833,89.578 C111.833,89.578 107.534,102.979 107.374,104.219 C106.491,104.128 105.574,103.898 105.013,103.755 Z M100.089,108.615 C99.73,108.379 98.383,107.609 98.167,107.423 C98.392,107.154 98.649,106.648 99.026,106.242 C99.24,106.012 100.991,106.068 101.856,106.419 C101.357,106.856 100.458,108.146 100.089,108.615 Z M103.362,106.775 C103.708,106.443 105.764,106.679 106.062,106.928 C105.37,107.815 103.726,110.4 103.607,111.081 C102.897,110.64 101.978,109.917 101.66,109.654 C101.868,109.264 102.97,107.15 103.362,106.775 Z M113.366,98.406 C113.224,99.012 112.904,104.541 112.691,104.967 C112.184,104.927 110.854,104.842 110.141,104.744 C110.854,101.619 113.599,92.917 113.599,92.917 C113.599,92.917 117.629,100.637 118.761,104.821 C118.229,104.872 116.342,105.02 116.089,105.002 C116.054,104.691 115.024,98.754 115.102,98.406 C114.433,98.442 113.693,98.406 113.366,98.406 Z M118.761,104.895 C119.832,104.749 121.212,104.549 121.557,104.495 C121.878,105.131 122.357,107.859 122.411,108.209 C121.562,108.95 120.014,111.923 119.859,111.923 C120.129,109.996 119.11,105.542 118.761,104.895 Z M127.516,111.923 C127.197,111.923 125.639,111.956 125.175,111.943 C125.093,111.646 124.032,108.815 123.314,107.558 C123.666,107.531 125.831,107.335 126.225,108.299 C126.531,109.049 127.416,111.231 127.516,111.923 Z M131.997,111.909 C131.439,111.9 129.955,111.92 129.569,111.923 C129.591,111.71 128.166,108.447 128.049,108.215 C128.735,108.124 130.659,108.413 130.93,108.914 C131.201,109.415 131.897,111.413 131.997,111.909 Z M140.764,39.757 C142.04,40.349 143.122,40.772 142.842,42.552 C142.604,44.064 141.276,48.892 138.433,51.479 C138.742,51.879 139.015,51.837 139.445,52.361 C143.924,49.47 145.486,46.073 146.31,43.368 C147.11,44.122 148.195,45.138 147.625,46.414 C147.055,47.69 144.506,52.11 140.984,54.114 C141.306,54.568 141.478,54.795 141.737,55.24 C145.122,54.08 149.641,49.909 150.426,47.96 C150.838,48.677 151.98,49.824 150.99,51.146 C149.47,53.174 146.31,55.79 142.745,57.286 C142.856,57.597 143.104,58.377 143.198,58.724 C148.269,57.404 151.563,55.23 153.414,53.626 C154,55.046 154.14,55.865 153.192,56.64 C152.258,57.404 147.062,60.489 143.591,60.971 C143.661,61.472 143.657,62.013 143.675,62.401 C148.054,62.499 152.996,60.316 154.765,59.192 C154.996,59.706 155.195,61.677 154.245,62.117 C153.294,62.557 148.565,64.815 143.484,64.706 C143.459,64.844 143.211,65.958 143.147,66.195 C147.122,67.175 153.192,65.932 154.887,65.3 C154.811,66.587 154.85,67.649 153.192,68.122 C151.439,68.623 146.051,69.342 142.318,68.338 C142.16,68.656 141.831,69.232 141.602,69.619 C143.472,70.482 148.083,72.002 153.231,71.178 C152.861,72.099 152.481,73.55 151,73.663 C147.658,73.917 142.498,72.835 140.214,71.498 C139.911,71.829 139.537,72.251 139.254,72.48 C140.695,73.642 144.726,76.428 150.397,76.697 C150.004,77.514 148.973,79.017 147.343,78.667 C143.897,77.929 140.201,76.367 137.388,73.935 C136.731,74.316 136.504,74.478 136.109,74.678 C136.673,75.398 140.283,79.783 146.086,81.653 C144.582,82.705 143.416,83.073 141.906,82.328 C139.593,81.188 136.235,78.693 133.883,75.565 C133.135,75.775 132.877,75.828 132.504,75.913 C133.149,77.323 135.493,81.3 138.93,84 C136.687,84.537 135.658,84.11 134.851,83.266 C132.752,81.073 130.455,77.38 130.09,76.136 C129.386,76.12 129.005,76.156 128.432,76.09 C128.972,79.371 130.795,82.822 132.212,84.796 C130.852,85.072 129.625,85.064 129.412,84.759 C128.067,82.908 126.465,79.211 126.08,76.025 C125.283,76.054 124.718,76.235 124.551,76.3 C124.47,80.527 125.792,84.955 126.916,87.033 C126.134,87.638 125.777,88.162 125.289,88.838 C124.065,86.96 122.344,82.115 122.291,77.345 C116.991,82.348 124.636,97.103 129.99,101.871 C128.699,102.335 127.968,102.752 127.109,102.948 C126.215,102.517 123.093,97.685 122.804,97.351 C122.042,97.55 121.843,97.533 121.298,97.699 C121.595,98.427 123.847,103.113 124.493,103.693 C124.04,103.9 122.308,104.277 121.595,104.372 C116.294,88.414 104.365,76.633 113.731,65.464 C113.818,65.36 113.901,65.265 113.985,65.169 C113.931,65.157 113.879,65.144 113.832,65.132 C112.812,64.864 110.46,64.196 109.793,64.008 C110.422,63.759 113.089,58.437 112.776,56.49 C112.678,55.883 110.732,52.797 109.066,53.865 C108.966,53.929 109.515,51.241 111.1,51.111 C112.071,51.03 112.904,51.896 113.501,51.95 C114.034,51.998 113.877,51.734 113.909,51.409 C114.057,51.329 114.116,51.39 114.215,51.418 C122.195,53.645 120.936,60.323 121.692,62.66 C119.168,62.631 118.092,63.675 117.57,64.458 C117.611,64.748 117.607,64.974 117.607,64.974 C123.342,63.567 124.547,68.187 129.584,67.791 C135.678,67.311 136.874,61.159 133.408,58.392 C130.908,56.396 130.529,53.418 132.794,52.47 C138.578,50.049 140.575,44.859 140.764,39.757 Z M143.929,14.439 L146.515,15.219 L142.373,28.953 L139.787,28.173 L143.929,14.439 Z M153.613,17.746 L156.11,18.776 L150.639,32.037 L148.141,31.007 L153.613,17.746 Z M187.758,43.25 L189.69,41.54 L197.031,49.831 L195.099,51.542 L192.326,48.411 L183.511,56.216 L181.72,54.194 L190.536,46.389 L187.758,43.25 Z M203.479,59.14 L194.851,72.215 L193.8,70.596 C193.626,70.327 193.54,70.039 193.544,69.731 C193.546,69.423 193.642,69.132 193.83,68.859 L195.02,67.073 L191.492,61.635 L189.377,61.994 C189.047,62.049 188.74,62.016 188.458,61.893 C188.175,61.77 187.947,61.574 187.773,61.306 L186.722,59.686 L202.178,57.134 L203.479,59.14 Z M210.212,71.466 L202.184,74.851 C201.618,75.09 201.168,75.422 200.834,75.849 C200.5,76.276 200.306,76.763 200.251,77.311 C200.196,77.859 200.292,78.424 200.538,79.008 C200.784,79.592 201.122,80.055 201.553,80.399 C201.983,80.742 202.469,80.944 203.008,81.006 C203.549,81.068 204.101,80.98 204.667,80.742 L212.695,77.357 L213.744,79.846 L205.716,83.23 C204.665,83.673 203.637,83.839 202.631,83.728 C201.624,83.616 200.722,83.244 199.923,82.611 C199.125,81.978 198.5,81.127 198.049,80.058 C197.598,78.988 197.426,77.948 197.531,76.938 C197.638,75.927 198.001,75.022 198.624,74.224 C199.247,73.426 200.083,72.805 201.134,72.362 L209.163,68.977 L210.212,71.466 Z M217.253,92.739 C217.439,93.579 217.42,94.383 217.197,95.149 C216.975,95.916 216.572,96.572 215.989,97.118 C215.407,97.664 214.695,98.03 213.855,98.216 C213.165,98.369 212.501,98.34 211.864,98.129 C211.226,97.919 210.69,97.594 210.255,97.154 C209.819,96.714 209.543,96.248 209.426,95.754 L209.348,95.444 L209.328,95.448 C209.382,95.812 209.371,96.126 209.296,96.388 C209.221,96.651 209.081,96.89 208.876,97.106 L204.575,101.881 L204.093,99.703 C204.023,99.391 204.019,99.101 204.079,98.835 C204.14,98.569 204.304,98.3 204.572,98.029 L208.28,93.908 L207.875,92.082 L202.66,93.238 L202.075,90.6 L216.091,87.495 L217.253,92.739 Z M219.382,107.708 L205.084,108.884 L204.863,106.192 L219.16,105.016 L219.382,107.708 Z M114.971,0 C51.474,0 0,51.501 0,115.032 C0,178.562 51.474,230.064 114.971,230.064 C178.468,230.064 229.943,178.562 229.943,115.032 C229.943,51.501 178.468,0 114.971,0 L114.971,0 Z" id="Fill-36" fill="#D8223A"></path>
            </g>
        </g>
    </g>
</svg>